HasubiMono-Regular.ufo
<glyph name="exclam" format="2">
  <advance width="512"/>
  <unicode hex="0021"/>
  <outline>
    <contour>
      <point x="228" y="192" type="line"/>
      <point x="284" y="192" type="line"/>
      <point x="292" y="200" type="line"/>
      <point x="292" y="696" type="line"/>
      <point x="284" y="704" type="line"/>
      <point x="228" y="704" type="line"/>
      <point x="220" y="696" type="line"/>
      <point x="220" y="200" type="line"/>
    </contour>
    <contour>
      <point x="256" y="-16" type="curve" smooth="yes"/>
      <point x="292" y="-16"/>
      <point x="320" y="12"/>
      <point x="320" y="49" type="curve" smooth="yes"/>
      <point x="320" y="85"/>
      <point x="292" y="112"/>
      <point x="256" y="112" type="curve" smooth="yes"/>
      <point x="220" y="112"/>
      <point x="192" y="85"/>
      <point x="192" y="49" type="curve" smooth="yes"/>
      <point x="192" y="12"/>
      <point x="220" y="-16"/>
    </contour>
  </outline>
</glyph>
<glyph name="quotedbl" format="2">
  <advance width="512"/>
  <unicode hex="0022"/>
  <outline>
    <contour>
      <point x="156" y="512" type="line"/>
      <point x="212" y="512" type="line"/>
      <point x="220" y="520" type="line"/>
      <point x="220" y="696" type="line"/>
      <point x="212" y="704" type="line"/>
      <point x="156" y="704" type="line"/>
      <point x="148" y="696" type="line"/>
      <point x="148" y="520" type="line"/>
    </contour>
    <contour>
      <point x="300" y="512" type="line"/>
      <point x="356" y="512" type="line"/>
      <point x="364" y="520" type="line"/>
      <point x="364" y="696" type="line"/>
      <point x="356" y="704" type="line"/>
      <point x="300" y="704" type="line"/>
      <point x="292" y="696" type="line"/>
      <point x="292" y="520" type="line"/>
    </contour>
  </outline>
</glyph>
<glyph name="percent" format="2">
  <advance width="512"/>
  <unicode hex="0025"/>
  <outline>
    <contour>
      <point x="31" y="193" type="line"/>
      <point x="39" y="193" type="line"/>
      <point x="512" y="515" type="line"/>
      <point x="512" y="523" type="line"/>
      <point x="482" y="570" type="line"/>
      <point x="474" y="570" type="line"/>
      <point x="0" y="248" type="line"/>
      <point x="0" y="240" type="line"/>
    </contour>
    <contour>
      <point x="361" y="-16" type="curve" smooth="yes"/>
      <point x="441" y="-16"/>
      <point x="495" y="22"/>
      <point x="495" y="121" type="curve" smooth="yes"/>
      <point x="495" y="191" type="line" smooth="yes"/>
      <point x="495" y="291"/>
      <point x="441" y="330"/>
      <point x="361" y="330" type="curve" smooth="yes"/>
      <point x="281" y="330"/>
      <point x="226" y="291"/>
      <point x="226" y="191" type="curve" smooth="yes"/>
      <point x="226" y="121" type="line" smooth="yes"/>
      <point x="226" y="22"/>
      <point x="281" y="-16"/>
    </contour>
    <contour>
      <point x="361" y="54" type="curve" smooth="yes"/>
      <point x="328" y="54"/>
      <point x="298" y="68"/>
      <point x="298" y="119" type="curve" smooth="yes"/>
      <point x="298" y="193" type="line" smooth="yes"/>
      <point x="298" y="244"/>
      <point x="328" y="260"/>
      <point x="361" y="260" type="curve" smooth="yes"/>
      <point x="394" y="260"/>
      <point x="423" y="244"/>
      <point x="423" y="193" type="curve" smooth="yes"/>
      <point x="423" y="119" type="line" smooth="yes"/>
      <point x="423" y="68"/>
      <point x="394" y="54"/>
    </contour>
    <contour>
      <point x="151" y="438" type="curve" smooth="yes"/>
      <point x="231" y="438"/>
      <point x="285" y="476"/>
      <point x="285" y="575" type="curve" smooth="yes"/>
      <point x="285" y="645" type="line" smooth="yes"/>
      <point x="285" y="745"/>
      <point x="231" y="784"/>
      <point x="151" y="784" type="curve" smooth="yes"/>
      <point x="71" y="784"/>
      <point x="16" y="745"/>
      <point x="16" y="645" type="curve" smooth="yes"/>
      <point x="16" y="575" type="line" smooth="yes"/>
      <point x="16" y="476"/>
      <point x="71" y="438"/>
    </contour>
    <contour>
      <point x="151" y="508" type="curve" smooth="yes"/>
      <point x="118" y="508"/>
      <point x="88" y="522"/>
      <point x="88" y="573" type="curve" smooth="yes"/>
      <point x="88" y="647" type="line" smooth="yes"/>
      <point x="88" y="698"/>
      <point x="118" y="714"/>
      <point x="151" y="714" type="curve" smooth="yes"/>
      <point x="184" y="714"/>
      <point x="213" y="698"/>
      <point x="213" y="647" type="curve" smooth="yes"/>
      <point x="213" y="573" type="line" smooth="yes"/>
      <point x="213" y="522"/>
      <point x="184" y="508"/>
    </contour>
  </outline>
</glyph>
<glyph name="quotesingle" format="2">
  <advance width="512"/>
  <unicode hex="0027"/>
  <outline>
    <contour>
      <point x="228" y="512" type="line"/>
      <point x="284" y="512" type="line"/>
      <point x="292" y="520" type="line"/>
      <point x="292" y="696" type="line"/>
      <point x="284" y="704" type="line"/>
      <point x="228" y="704" type="line"/>
      <point x="220" y="696" type="line"/>
      <point x="220" y="520" type="line"/>
    </contour>
  </outline>
</glyph>
<glyph name="hyphen" format="2">
  <advance width="512"/>
  <unicode hex="002D"/>
  <outline>
    <contour>
      <point x="89" y="225" type="line"/>
      <point x="424" y="225" type="line"/>
      <point x="432" y="233" type="line"/>
      <point x="432" y="297" type="line"/>
      <point x="424" y="305" type="line"/>
      <point x="88" y="305" type="line"/>
      <point x="80" y="297" type="line"/>
      <point x="81" y="233" type="line"/>
    </contour>
  </outline>
</glyph>
<glyph name="period" format="2">
  <advance width="512"/>
  <unicode hex="002E"/>
  <outline>
    <contour>
      <point x="256" y="-16" type="curve" smooth="yes"/>
      <point x="295" y="-16"/>
      <point x="326" y="15"/>
      <point x="326" y="54" type="curve" smooth="yes"/>
      <point x="326" y="93"/>
      <point x="295" y="124"/>
      <point x="256" y="124" type="curve" smooth="yes"/>
      <point x="217" y="124"/>
      <point x="186" y="93"/>
      <point x="186" y="54" type="curve" smooth="yes"/>
      <point x="186" y="15"/>
      <point x="217" y="-16"/>
    </contour>
  </outline>
</glyph>
<glyph name="zero" format="2">
  <advance width="512"/>
  <unicode hex="0030"/>
  <outline>
    <contour>
      <point x="256" y="288" type="curve" smooth="yes"/>
      <point x="292" y="288"/>
      <point x="320" y="316"/>
      <point x="320" y="353" type="curve" smooth="yes"/>
      <point x="320" y="389"/>
      <point x="292" y="416"/>
      <point x="256" y="416" type="curve" smooth="yes"/>
      <point x="220" y="416"/>
      <point x="192" y="389"/>
      <point x="192" y="353" type="curve" smooth="yes"/>
      <point x="192" y="316"/>
      <point x="220" y="288"/>
    </contour>
    <contour>
      <point x="256" y="-16" type="curve" smooth="yes"/>
      <point x="384" y="-16"/>
      <point x="440" y="57"/>
      <point x="440" y="161" type="curve" smooth="yes"/>
      <point x="440" y="543" type="line" smooth="yes"/>
      <point x="440" y="647"/>
      <point x="384" y="720"/>
      <point x="256" y="720" type="curve" smooth="yes"/>
      <point x="128" y="720"/>
      <point x="72" y="647"/>
      <point x="72" y="543" type="curve" smooth="yes"/>
      <point x="72" y="161" type="line" smooth="yes"/>
      <point x="72" y="57"/>
      <point x="128" y="-16"/>
    </contour>
    <contour>
      <point x="256" y="64" type="curve" smooth="yes"/>
      <point x="176" y="64"/>
      <point x="145" y="105"/>
      <point x="145" y="193" type="curve" smooth="yes"/>
      <point x="145" y="511" type="line" smooth="yes"/>
      <point x="145" y="599"/>
      <point x="176" y="640"/>
      <point x="256" y="640" type="curve" smooth="yes"/>
      <point x="336" y="640"/>
      <point x="367" y="599"/>
      <point x="367" y="511" type="curve" smooth="yes"/>
      <point x="367" y="193" type="line" smooth="yes"/>
      <point x="367" y="105"/>
      <point x="336" y="64"/>
    </contour>
  </outline>
</glyph>
<glyph name="one" format="2">
  <advance width="512"/>
  <unicode hex="0031"/>
  <outline>
    <contour>
      <point x="72" y="0" type="line"/>
      <point x="440" y="0" type="line"/>
      <point x="448" y="8" type="line"/>
      <point x="448" y="72" type="line"/>
      <point x="440" y="80" type="line"/>
      <point x="307" y="80" type="line"/>
      <point x="299" y="88" type="line"/>
      <point x="299" y="696" type="line"/>
      <point x="291" y="704" type="line"/>
      <point x="234" y="704" type="line"/>
      <point x="226" y="696" type="line"/>
      <point x="226" y="628"/>
      <point x="155" y="593"/>
      <point x="99" y="593" type="curve" smooth="yes"/>
      <point x="77" y="593" type="line"/>
      <point x="69" y="584" type="line"/>
      <point x="69" y="521" type="line"/>
      <point x="77" y="513" type="line"/>
      <point x="99" y="513" type="line" smooth="yes"/>
      <point x="148" y="513"/>
      <point x="188" y="528"/>
      <point x="217" y="569" type="curve"/>
      <point x="225" y="569" type="line"/>
      <point x="225" y="88" type="line"/>
      <point x="217" y="80" type="line"/>
      <point x="72" y="80" type="line"/>
      <point x="64" y="72" type="line"/>
      <point x="64" y="8" type="line"/>
    </contour>
  </outline>
</glyph>
<glyph name="two" format="2">
  <advance width="512"/>
  <unicode hex="0032"/>
  <outline>
    <contour>
      <point x="80" y="0" type="line"/>
      <point x="432" y="0" type="line"/>
      <point x="440" y="8" type="line"/>
      <point x="440" y="72" type="line"/>
      <point x="432" y="80" type="line"/>
      <point x="153" y="80" type="line"/>
      <point x="145" y="88" type="line"/>
      <point x="145" y="136" type="line" smooth="yes"/>
      <point x="145" y="183"/>
      <point x="183" y="207"/>
      <point x="245" y="256" type="curve" smooth="yes"/>
      <point x="309" y="307" type="line" smooth="yes"/>
      <point x="408" y="386"/>
      <point x="440" y="405"/>
      <point x="440" y="543" type="curve" smooth="yes"/>
      <point x="440" y="647"/>
      <point x="384" y="720"/>
      <point x="256" y="720" type="curve" smooth="yes"/>
      <point x="128" y="720"/>
      <point x="72" y="647"/>
      <point x="72" y="543" type="curve" smooth="yes"/>
      <point x="72" y="488" type="line"/>
      <point x="80" y="480" type="line"/>
      <point x="137" y="480" type="line"/>
      <point x="145" y="488" type="line"/>
      <point x="145" y="511" type="line" smooth="yes"/>
      <point x="145" y="599"/>
      <point x="176" y="640"/>
      <point x="256" y="640" type="curve" smooth="yes"/>
      <point x="336" y="640"/>
      <point x="367" y="599"/>
      <point x="367" y="511" type="curve" smooth="yes"/>
      <point x="367" y="441"/>
      <point x="338" y="421"/>
      <point x="278" y="374" type="curve" smooth="yes"/>
      <point x="222" y="330" type="line" smooth="yes"/>
      <point x="130" y="258"/>
      <point x="72" y="207"/>
      <point x="72" y="136" type="curve" smooth="yes"/>
      <point x="72" y="8" type="line"/>
    </contour>
  </outline>
</glyph>
<glyph name="three" format="2">
  <advance width="512"/>
  <unicode hex="0033"/>
  <outline>
    <contour>
      <point x="256" y="-16" type="curve" smooth="yes"/>
      <point x="384" y="-16"/>
      <point x="440" y="57"/>
      <point x="440" y="161" type="curve" smooth="yes"/>
      <point x="440" y="273" type="line" smooth="yes"/>
      <point x="440" y="344"/>
      <point x="391" y="364"/>
      <point x="361" y="371" type="curve"/>
      <point x="361" y="381" type="line"/>
      <point x="393" y="388"/>
      <point x="440" y="407"/>
      <point x="440" y="483" type="curve" smooth="yes"/>
      <point x="440" y="543" type="line" smooth="yes"/>
      <point x="440" y="647"/>
      <point x="384" y="720"/>
      <point x="256" y="720" type="curve" smooth="yes"/>
      <point x="128" y="720"/>
      <point x="72" y="647"/>
      <point x="72" y="543" type="curve" smooth="yes"/>
      <point x="72" y="488" type="line"/>
      <point x="80" y="480" type="line"/>
      <point x="137" y="480" type="line"/>
      <point x="145" y="488" type="line"/>
      <point x="145" y="511" type="line" smooth="yes"/>
      <point x="145" y="599"/>
      <point x="176" y="640"/>
      <point x="256" y="640" type="curve" smooth="yes"/>
      <point x="336" y="640"/>
      <point x="367" y="599"/>
      <point x="367" y="511" type="curve" smooth="yes"/>
      <point x="367" y="483" type="line" smooth="yes"/>
      <point x="367" y="440"/>
      <point x="340" y="418"/>
      <point x="281" y="418" type="curve" smooth="yes"/>
      <point x="209" y="418" type="line"/>
      <point x="201" y="410" type="line"/>
      <point x="201" y="346" type="line"/>
      <point x="209" y="338" type="line"/>
      <point x="281" y="338" type="line" smooth="yes"/>
      <point x="340" y="338"/>
      <point x="367" y="312"/>
      <point x="367" y="273" type="curve" smooth="yes"/>
      <point x="367" y="193" type="line" smooth="yes"/>
      <point x="367" y="105"/>
      <point x="336" y="64"/>
      <point x="256" y="64" type="curve" smooth="yes"/>
      <point x="176" y="64"/>
      <point x="145" y="105"/>
      <point x="145" y="193" type="curve" smooth="yes"/>
      <point x="145" y="209" type="line"/>
      <point x="137" y="217" type="line"/>
      <point x="80" y="217" type="line"/>
      <point x="72" y="209" type="line"/>
      <point x="72" y="161" type="line" smooth="yes"/>
      <point x="72" y="57"/>
      <point x="128" y="-16"/>
    </contour>
  </outline>
</glyph>
<glyph name="four" format="2">
  <advance width="512"/>
  <unicode hex="0034"/>
  <outline>
    <contour>
      <point x="164" y="292" type="line"/>
      <point x="156" y="300" type="line"/>
      <point x="288" y="616" type="line"/>
      <point x="296" y="616" type="line"/>
      <point x="296" y="300" type="line"/>
      <point x="288" y="292" type="line"/>
    </contour>
    <contour>
      <point x="304" y="0" type="line"/>
      <point x="361" y="0" type="line"/>
      <point x="369" y="8" type="line"/>
      <point x="369" y="204" type="line"/>
      <point x="377" y="212" type="line"/>
      <point x="424" y="212" type="line"/>
      <point x="432" y="220" type="line"/>
      <point x="432" y="284" type="line"/>
      <point x="424" y="292" type="line"/>
      <point x="377" y="292" type="line"/>
      <point x="369" y="300" type="line"/>
      <point x="369" y="696" type="line"/>
      <point x="361" y="704" type="line"/>
      <point x="268" y="704" type="line"/>
      <point x="260" y="696" type="line"/>
      <point x="80" y="292" type="line"/>
      <point x="80" y="220" type="line"/>
      <point x="88" y="212" type="line"/>
      <point x="288" y="212" type="line"/>
      <point x="296" y="204" type="line"/>
      <point x="296" y="8" type="line"/>
    </contour>
  </outline>
</glyph>
<glyph name="five" format="2">
  <advance width="512"/>
  <unicode hex="0035"/>
  <outline>
    <contour>
      <point x="256" y="-16" type="curve" smooth="yes"/>
      <point x="384" y="-16"/>
      <point x="440" y="57"/>
      <point x="440" y="161" type="curve" smooth="yes"/>
      <point x="440" y="302" type="line" smooth="yes"/>
      <point x="440" y="434"/>
      <point x="332" y="459"/>
      <point x="249" y="459" type="curve" smooth="yes"/>
      <point x="185" y="459" type="line"/>
      <point x="177" y="467" type="line"/>
      <point x="177" y="616" type="line"/>
      <point x="185" y="624" type="line"/>
      <point x="387" y="624" type="line"/>
      <point x="395" y="632" type="line"/>
      <point x="395" y="696" type="line"/>
      <point x="387" y="704" type="line"/>
      <point x="112" y="704" type="line"/>
      <point x="104" y="696" type="line"/>
      <point x="104" y="387" type="line"/>
      <point x="112" y="379" type="line"/>
      <point x="249" y="379" type="line" smooth="yes"/>
      <point x="322" y="379"/>
      <point x="367" y="353"/>
      <point x="367" y="270" type="curve" smooth="yes"/>
      <point x="367" y="193" type="line" smooth="yes"/>
      <point x="367" y="105"/>
      <point x="336" y="64"/>
      <point x="256" y="64" type="curve" smooth="yes"/>
      <point x="176" y="64"/>
      <point x="145" y="105"/>
      <point x="145" y="193" type="curve" smooth="yes"/>
      <point x="145" y="216" type="line"/>
      <point x="137" y="224" type="line"/>
      <point x="80" y="224" type="line"/>
      <point x="72" y="216" type="line"/>
      <point x="72" y="161" type="line" smooth="yes"/>
      <point x="72" y="57"/>
      <point x="128" y="-16"/>
    </contour>
  </outline>
</glyph>
<glyph name="six" format="2">
  <advance width="512"/>
  <unicode hex="0036"/>
  <outline>
    <contour>
      <point x="256" y="-16" type="curve" smooth="yes"/>
      <point x="393" y="-16"/>
      <point x="440" y="74"/>
      <point x="440" y="181" type="curve" smooth="yes"/>
      <point x="440" y="258" type="line" smooth="yes"/>
      <point x="440" y="357"/>
      <point x="406" y="434"/>
      <point x="278" y="434" type="curve" smooth="yes"/>
      <point x="231" y="434"/>
      <point x="192" y="418"/>
      <point x="157" y="381" type="curve"/>
      <point x="145" y="381" type="line"/>
      <point x="145" y="483" type="line" smooth="yes"/>
      <point x="145" y="577"/>
      <point x="165" y="640"/>
      <point x="248" y="640" type="curve" smooth="yes"/>
      <point x="317" y="640"/>
      <point x="351" y="602"/>
      <point x="351" y="544" type="curve" smooth="yes"/>
      <point x="351" y="520" type="line"/>
      <point x="359" y="512" type="line"/>
      <point x="415" y="512" type="line"/>
      <point x="423" y="520" type="line"/>
      <point x="423" y="560" type="line" smooth="yes"/>
      <point x="423" y="653"/>
      <point x="379" y="720"/>
      <point x="248" y="720" type="curve" smooth="yes"/>
      <point x="133" y="720"/>
      <point x="72" y="667"/>
      <point x="72" y="512" type="curve" smooth="yes"/>
      <point x="72" y="181" type="line" smooth="yes"/>
      <point x="72" y="74"/>
      <point x="119" y="-16"/>
    </contour>
    <contour>
      <point x="256" y="64" type="curve" smooth="yes"/>
      <point x="176" y="64"/>
      <point x="145" y="105"/>
      <point x="145" y="205" type="curve" smooth="yes"/>
      <point x="145" y="242" type="line" smooth="yes"/>
      <point x="145" y="301"/>
      <point x="183" y="350"/>
      <point x="256" y="350" type="curve" smooth="yes"/>
      <point x="336" y="350"/>
      <point x="367" y="301"/>
      <point x="367" y="242" type="curve" smooth="yes"/>
      <point x="367" y="205" type="line" smooth="yes"/>
      <point x="367" y="105"/>
      <point x="336" y="64"/>
    </contour>
  </outline>
</glyph>
<glyph name="seven" format="2">
  <advance width="512"/>
  <unicode hex="0037"/>
  <outline>
    <contour>
      <point x="180" y="0" type="line"/>
      <point x="246" y="0" type="line"/>
      <point x="254" y="8" type="line"/>
      <point x="254" y="43" type="line" smooth="yes"/>
      <point x="254" y="271"/>
      <point x="322" y="479"/>
      <point x="432" y="624" type="curve"/>
      <point x="432" y="704" type="line"/>
      <point x="420" y="704" type="line"/>
      <point x="80" y="704" type="line"/>
      <point x="80" y="695" type="line"/>
      <point x="80" y="636" type="line"/>
      <point x="80" y="624" type="line"/>
      <point x="345" y="624" type="line"/>
      <point x="345" y="616" type="line"/>
      <point x="243" y="472"/>
      <point x="172" y="313"/>
      <point x="172" y="59" type="curve" smooth="yes"/>
      <point x="172" y="8" type="line"/>
    </contour>
  </outline>
</glyph>
<glyph name="eight" format="2">
  <advance width="512"/>
  <unicode hex="0038"/>
  <outline>
    <contour>
      <point x="258" y="-16" type="curve" smooth="yes"/>
      <point x="402" y="-16"/>
      <point x="432" y="49"/>
      <point x="432" y="128" type="curve" smooth="yes"/>
      <point x="432" y="240" type="line" smooth="yes"/>
      <point x="432" y="307"/>
      <point x="405" y="358"/>
      <point x="345" y="367" type="curve"/>
      <point x="345" y="383" type="line"/>
      <point x="405" y="390"/>
      <point x="416" y="440"/>
      <point x="416" y="496" type="curve" smooth="yes"/>
      <point x="416" y="569" type="line" smooth="yes"/>
      <point x="416" y="642"/>
      <point x="391" y="720"/>
      <point x="256" y="720" type="curve" smooth="yes"/>
      <point x="121" y="720"/>
      <point x="96" y="642"/>
      <point x="96" y="569" type="curve" smooth="yes"/>
      <point x="96" y="496" type="line" smooth="yes"/>
      <point x="96" y="440"/>
      <point x="110" y="390"/>
      <point x="170" y="383" type="curve"/>
      <point x="170" y="367" type="line"/>
      <point x="110" y="358"/>
      <point x="80" y="307"/>
      <point x="80" y="240" type="curve" smooth="yes"/>
      <point x="80" y="128" type="line" smooth="yes"/>
      <point x="80" y="49"/>
      <point x="112.667" y="-16"/>
    </contour>
    <contour>
      <point x="256" y="421" type="curve" smooth="yes"/>
      <point x="194" y="421"/>
      <point x="169" y="453"/>
      <point x="169" y="512" type="curve" smooth="yes"/>
      <point x="169" y="553" type="line" smooth="yes"/>
      <point x="169" y="585"/>
      <point x="180" y="640"/>
      <point x="256" y="640" type="curve" smooth="yes"/>
      <point x="332" y="640"/>
      <point x="343" y="585"/>
      <point x="343" y="553" type="curve" smooth="yes"/>
      <point x="343" y="512" type="line" smooth="yes"/>
      <point x="343" y="453"/>
      <point x="320" y="421"/>
    </contour>
    <contour>
      <point x="258" y="64" type="curve" smooth="yes"/>
      <point x="170" y="64"/>
      <point x="153" y="100"/>
      <point x="153" y="144" type="curve" smooth="yes"/>
      <point x="153" y="224" type="line" smooth="yes"/>
      <point x="153" y="301"/>
      <point x="176" y="339"/>
      <point x="256" y="339" type="curve" smooth="yes"/>
      <point x="355" y="339"/>
      <point x="359" y="301"/>
      <point x="359" y="224" type="curve" smooth="yes"/>
      <point x="359" y="144" type="line" smooth="yes"/>
      <point x="359" y="100"/>
      <point x="345" y="64"/>
    </contour>
  </outline>
</glyph>
<glyph name="nine" format="2">
  <advance width="512"/>
  <unicode hex="0039"/>
  <outline>
    <contour>
      <point x="256" y="720" type="curve" smooth="yes"/>
      <point x="119" y="720"/>
      <point x="72" y="630"/>
      <point x="72" y="523" type="curve" smooth="yes"/>
      <point x="72" y="446" type="line" smooth="yes"/>
      <point x="72" y="347"/>
      <point x="106" y="270"/>
      <point x="234" y="270" type="curve" smooth="yes"/>
      <point x="281" y="270"/>
      <point x="320" y="286"/>
      <point x="355" y="323" type="curve"/>
      <point x="367" y="323" type="line"/>
      <point x="367" y="221" type="line" smooth="yes"/>
      <point x="367" y="127"/>
      <point x="347" y="64"/>
      <point x="264" y="64" type="curve" smooth="yes"/>
      <point x="195" y="64"/>
      <point x="162" y="102"/>
      <point x="162" y="160" type="curve" smooth="yes"/>
      <point x="162" y="184" type="line"/>
      <point x="154" y="192" type="line"/>
      <point x="97" y="192" type="line"/>
      <point x="89" y="184" type="line"/>
      <point x="89" y="144" type="line" smooth="yes"/>
      <point x="89" y="51"/>
      <point x="133" y="-16"/>
      <point x="264" y="-16" type="curve" smooth="yes"/>
      <point x="379" y="-16"/>
      <point x="440" y="37"/>
      <point x="440" y="192" type="curve" smooth="yes"/>
      <point x="440" y="523" type="line" smooth="yes"/>
      <point x="440" y="630"/>
      <point x="393" y="720"/>
    </contour>
    <contour>
      <point x="256" y="640" type="curve" smooth="yes"/>
      <point x="336" y="640"/>
      <point x="367" y="599"/>
      <point x="367" y="499" type="curve" smooth="yes"/>
      <point x="367" y="462" type="line" smooth="yes"/>
      <point x="367" y="403"/>
      <point x="329" y="354"/>
      <point x="256" y="354" type="curve" smooth="yes"/>
      <point x="176" y="354"/>
      <point x="145" y="403"/>
      <point x="145" y="462" type="curve" smooth="yes"/>
      <point x="145" y="499" type="line" smooth="yes"/>
      <point x="145" y="599"/>
      <point x="176" y="640"/>
    </contour>
  </outline>
</glyph>
<glyph name="colon" format="2">
  <advance width="512"/>
  <unicode hex="003A"/>
  <outline>
    <contour>
      <point x="256" y="388" type="curve" smooth="yes"/>
      <point x="295" y="388"/>
      <point x="326" y="419"/>
      <point x="326" y="458" type="curve" smooth="yes"/>
      <point x="326" y="497"/>
      <point x="295" y="528"/>
      <point x="256" y="528" type="curve" smooth="yes"/>
      <point x="217" y="528"/>
      <point x="186" y="497"/>
      <point x="186" y="458" type="curve" smooth="yes"/>
      <point x="186" y="419"/>
      <point x="217" y="388"/>
    </contour>
    <contour>
      <point x="256" y="-16" type="curve" smooth="yes"/>
      <point x="295" y="-16"/>
      <point x="326" y="15"/>
      <point x="326" y="54" type="curve" smooth="yes"/>
      <point x="326" y="93"/>
      <point x="295" y="124"/>
      <point x="256" y="124" type="curve" smooth="yes"/>
      <point x="217" y="124"/>
      <point x="186" y="93"/>
      <point x="186" y="54" type="curve" smooth="yes"/>
      <point x="186" y="15"/>
      <point x="217" y="-16"/>
    </contour>
  </outline>
</glyph>
<glyph name="semicolon" format="2">
  <advance width="512"/>
  <unicode hex="003B"/>
  <outline>
    <contour>
      <point x="256" y="-144" type="curve" smooth="yes"/>
      <point x="310" y="-144"/>
      <point x="352" y="26"/>
      <point x="352" y="81" type="curve" smooth="yes"/>
      <point x="352" y="135"/>
      <point x="310" y="176"/>
      <point x="256" y="176" type="curve" smooth="yes"/>
      <point x="202" y="176"/>
      <point x="160" y="135"/>
      <point x="160" y="81" type="curve" smooth="yes"/>
      <point x="160" y="0"/>
      <point x="215" y="0"/>
      <point x="215" y="-40" type="curve" smooth="yes"/>
      <point x="215" y="-127"/>
      <point x="233" y="-144"/>
    </contour>
    <contour>
      <point x="256" y="336" type="curve" smooth="yes"/>
      <point x="310" y="336"/>
      <point x="352" y="378"/>
      <point x="352" y="433" type="curve" smooth="yes"/>
      <point x="352" y="487"/>
      <point x="310" y="528"/>
      <point x="256" y="528" type="curve" smooth="yes"/>
      <point x="202" y="528"/>
      <point x="160" y="487"/>
      <point x="160" y="433" type="curve" smooth="yes"/>
      <point x="160" y="378"/>
      <point x="202" y="336"/>
    </contour>
  </outline>
</glyph>
<glyph name="less" format="2">
  <advance width="512"/>
  <unicode hex="003C"/>
  <outline>
    <contour>
      <point x="442" y="7" type="line"/>
      <point x="442" y="94" type="line"/>
      <point x="147" y="310" type="line"/>
      <point x="442" y="526" type="line"/>
      <point x="442" y="613" type="line"/>
      <point x="87" y="363" type="line"/>
      <point x="87" y="257" type="line"/>
    </contour>
  </outline>
</glyph>
<glyph name="A" format="2">
  <advance width="512"/>
  <unicode hex="0041"/>
  <anchor x="256" y="0" name="bottom"/>
  <anchor x="464" y="0" name="ogonek"/>
  <anchor x="256" y="704" name="top"/>
  <outline>
    <contour>
      <point x="172" y="254" type="line"/>
      <point x="164" y="262" type="line"/>
      <point x="240" y="616" type="line"/>
      <point x="248" y="624" type="line"/>
      <point x="264" y="624" type="line"/>
      <point x="272" y="616" type="line"/>
      <point x="349" y="262" type="line"/>
      <point x="341" y="254" type="line"/>
    </contour>
    <contour>
      <point x="40" y="0" type="line"/>
      <point x="97" y="0" type="line"/>
      <point x="105" y="8" type="line"/>
      <point x="144" y="174" type="line"/>
      <point x="152" y="182" type="line"/>
      <point x="360" y="182" type="line"/>
      <point x="368" y="174" type="line"/>
      <point x="407" y="8" type="line"/>
      <point x="415" y="0" type="line"/>
      <point x="472" y="0" type="line"/>
      <point x="480" y="8" type="line"/>
      <point x="320" y="696" type="line"/>
      <point x="312" y="704" type="line"/>
      <point x="200" y="704" type="line"/>
      <point x="192" y="696" type="line"/>
      <point x="32" y="8" type="line"/>
    </contour>
  </outline>
</glyph>
<glyph name="B" format="2">
  <advance width="512"/>
  <unicode hex="0042"/>
  <outline>
    <contour>
      <point x="161" y="407" type="line"/>
      <point x="153" y="415" type="line"/>
      <point x="153" y="616" type="line"/>
      <point x="161" y="624" type="line"/>
      <point x="256" y="624" type="line" smooth="yes"/>
      <point x="312" y="624"/>
      <point x="343" y="592"/>
      <point x="343" y="543" type="curve" smooth="yes"/>
      <point x="343" y="497" type="line" smooth="yes"/>
      <point x="343" y="440"/>
      <point x="328" y="407"/>
      <point x="256" y="407" type="curve" smooth="yes"/>
    </contour>
    <contour>
      <point x="88" y="0" type="line"/>
      <point x="272" y="0" type="line" smooth="yes"/>
      <point x="384" y="0"/>
      <point x="440" y="40"/>
      <point x="440" y="129" type="curve" smooth="yes"/>
      <point x="440" y="271" type="line" smooth="yes"/>
      <point x="440" y="315"/>
      <point x="414" y="354"/>
      <point x="353" y="368" type="curve"/>
      <point x="353" y="376" type="line"/>
      <point x="392" y="384"/>
      <point x="416" y="411"/>
      <point x="416" y="465" type="curve" smooth="yes"/>
      <point x="416" y="575" type="line" smooth="yes"/>
      <point x="416" y="664"/>
      <point x="358" y="704"/>
      <point x="272" y="704" type="curve" smooth="yes"/>
      <point x="88" y="704" type="line"/>
      <point x="80" y="696" type="line"/>
      <point x="80" y="8" type="line"/>
    </contour>
    <contour>
      <point x="161" y="80" type="line"/>
      <point x="153" y="88" type="line"/>
      <point x="153" y="327" type="line"/>
      <point x="161" y="335" type="line"/>
      <point x="256" y="335" type="line" smooth="yes"/>
      <point x="336" y="335"/>
      <point x="367" y="305"/>
      <point x="367" y="239" type="curve" smooth="yes"/>
      <point x="367" y="161" type="line" smooth="yes"/>
      <point x="367" y="102"/>
      <point x="352" y="80"/>
      <point x="256" y="80" type="curve" smooth="yes"/>
    </contour>
  </outline>
</glyph>
<glyph name="C" format="2">
  <advance width="512"/>
  <unicode hex="0043"/>
  <anchor x="256" y="736" name="top"/>
  <outline>
    <contour>
      <point x="256" y="-16" type="curve" smooth="yes"/>
      <point x="392" y="-16"/>
      <point x="448" y="64"/>
      <point x="448" y="192" type="curve" smooth="yes"/>
      <point x="448" y="232" type="line"/>
      <point x="440" y="240" type="line"/>
      <point x="383" y="240" type="line"/>
      <point x="375" y="232" type="line"/>
      <point x="375" y="224" type="line" smooth="yes"/>
      <point x="375" y="128"/>
      <point x="360" y="64"/>
      <point x="256" y="64" type="curve" smooth="yes"/>
      <point x="160" y="64"/>
      <point x="145" y="128"/>
      <point x="145" y="224" type="curve" smooth="yes"/>
      <point x="145" y="512" type="line" smooth="yes"/>
      <point x="145" y="608"/>
      <point x="160" y="672"/>
      <point x="256" y="672" type="curve" smooth="yes"/>
      <point x="360" y="672"/>
      <point x="375" y="608"/>
      <point x="375" y="512" type="curve" smooth="yes"/>
      <point x="375" y="504" type="line"/>
      <point x="383" y="496" type="line"/>
      <point x="440" y="496" type="line"/>
      <point x="448" y="504" type="line"/>
      <point x="448" y="544" type="line" smooth="yes"/>
      <point x="448" y="672"/>
      <point x="392" y="752"/>
      <point x="256" y="752" type="curve" smooth="yes"/>
      <point x="128" y="752"/>
      <point x="72" y="672"/>
      <point x="72" y="544" type="curve" smooth="yes"/>
      <point x="72" y="192" type="line" smooth="yes"/>
      <point x="72" y="64"/>
      <point x="128" y="-16"/>
    </contour>
  </outline>
</glyph>
<glyph name="E" format="2">
  <advance width="512"/>
  <unicode hex="0045"/>
  <anchor x="267" y="704" name="top"/>
  <outline>
    <contour>
      <point x="88" y="0" type="line"/>
      <point x="432" y="0" type="line"/>
      <point x="440" y="8" type="line"/>
      <point x="440" y="72" type="line"/>
      <point x="432" y="80" type="line"/>
      <point x="161" y="80" type="line"/>
      <point x="153" y="88" type="line"/>
      <point x="153" y="344" type="line"/>
      <point x="368" y="344" type="line"/>
      <point x="376" y="352" type="line"/>
      <point x="376" y="408" type="line"/>
      <point x="368" y="416" type="line"/>
      <point x="161" y="416" type="line"/>
      <point x="153" y="424" type="line"/>
      <point x="153" y="616" type="line"/>
      <point x="161" y="624" type="line"/>
      <point x="432" y="624" type="line"/>
      <point x="440" y="632" type="line"/>
      <point x="440" y="696" type="line"/>
      <point x="432" y="704" type="line"/>
      <point x="88" y="704" type="line"/>
      <point x="80" y="696" type="line"/>
      <point x="80" y="8" type="line"/>
    </contour>
  </outline>
</glyph>
<glyph name="F" format="2">
  <advance width="512"/>
  <unicode hex="0046"/>
  <outline>
    <contour>
      <point x="88" y="0" type="line"/>
      <point x="145" y="0" type="line"/>
      <point x="153" y="8" type="line"/>
      <point x="153" y="336" type="line"/>
      <point x="161" y="344" type="line"/>
      <point x="400" y="344" type="line"/>
      <point x="408" y="352" type="line"/>
      <point x="408" y="408" type="line"/>
      <point x="400" y="416" type="line"/>
      <point x="161" y="416" type="line"/>
      <point x="153" y="424" type="line"/>
      <point x="153" y="616" type="line"/>
      <point x="161" y="624" type="line"/>
      <point x="464" y="624" type="line"/>
      <point x="472" y="632" type="line"/>
      <point x="472" y="696" type="line"/>
      <point x="464" y="704" type="line"/>
      <point x="88" y="704" type="line"/>
      <point x="80" y="696" type="line"/>
      <point x="80" y="8" type="line"/>
    </contour>
  </outline>
</glyph>
<glyph name="G" format="2">
  <advance width="512"/>
  <unicode hex="0047"/>
  <anchor x="255" y="704" name="top"/>
  <outline>
    <contour>
      <point x="256" y="-16" type="curve" smooth="yes"/>
      <point x="310" y="-16"/>
      <point x="345" y="15"/>
      <point x="368" y="50" type="curve"/>
      <point x="376" y="50" type="line"/>
      <point x="392" y="8" type="line"/>
      <point x="400" y="0" type="line"/>
      <point x="432" y="0" type="line"/>
      <point x="440" y="8" type="line"/>
      <point x="440" y="352" type="line"/>
      <point x="432" y="360" type="line"/>
      <point x="264" y="360" type="line"/>
      <point x="256" y="352" type="line"/>
      <point x="256" y="288" type="line"/>
      <point x="264" y="280" type="line"/>
      <point x="367" y="280" type="line"/>
      <point x="367" y="185" type="line" smooth="yes"/>
      <point x="367" y="112"/>
      <point x="336" y="64"/>
      <point x="256" y="64" type="curve" smooth="yes"/>
      <point x="176" y="64"/>
      <point x="145" y="105"/>
      <point x="145" y="193" type="curve" smooth="yes"/>
      <point x="145" y="511" type="line" smooth="yes"/>
      <point x="145" y="599"/>
      <point x="176" y="640"/>
      <point x="256" y="640" type="curve" smooth="yes"/>
      <point x="336" y="640"/>
      <point x="367" y="599"/>
      <point x="367" y="511" type="curve" smooth="yes"/>
      <point x="367" y="487" type="line"/>
      <point x="375" y="479" type="line"/>
      <point x="432" y="479" type="line"/>
      <point x="440" y="487" type="line"/>
      <point x="440" y="543" type="line" smooth="yes"/>
      <point x="440" y="648"/>
      <point x="384" y="720"/>
      <point x="256" y="720" type="curve" smooth="yes"/>
      <point x="128" y="720"/>
      <point x="72" y="648"/>
      <point x="72" y="543" type="curve" smooth="yes"/>
      <point x="72" y="161" type="line" smooth="yes"/>
      <point x="72" y="57"/>
      <point x="128" y="-16"/>
    </contour>
  </outline>
</glyph>
<glyph name="H" format="2">
  <advance width="512"/>
  <unicode hex="0048"/>
  <outline>
    <contour>
      <point x="88" y="0" type="line"/>
      <point x="145" y="0" type="line"/>
      <point x="153" y="8" type="line"/>
      <point x="153" y="360" type="line"/>
      <point x="161" y="368" type="line"/>
      <point x="351" y="368" type="line"/>
      <point x="359" y="360" type="line"/>
      <point x="359" y="8" type="line"/>
      <point x="367" y="0" type="line"/>
      <point x="424" y="0" type="line"/>
      <point x="432" y="8" type="line"/>
      <point x="432" y="728" type="line"/>
      <point x="424" y="736" type="line"/>
      <point x="367" y="736" type="line"/>
      <point x="359" y="728" type="line"/>
      <point x="359" y="456" type="line"/>
      <point x="351" y="448" type="line"/>
      <point x="161" y="448" type="line"/>
      <point x="153" y="456" type="line"/>
      <point x="153" y="728" type="line"/>
      <point x="145" y="736" type="line"/>
      <point x="88" y="736" type="line"/>
      <point x="80" y="728" type="line"/>
      <point x="80" y="8" type="line"/>
    </contour>
  </outline>
</glyph>
<glyph name="I" format="2">
  <advance width="512"/>
  <unicode hex="0049"/>
  <anchor x="258" y="704" name="top"/>
  <outline>
    <contour>
      <point x="56" y="0" type="line"/>
      <point x="456" y="0" type="line"/>
      <point x="464" y="8" type="line"/>
      <point x="464" y="72" type="line"/>
      <point x="456" y="80" type="line"/>
      <point x="301" y="80" type="line"/>
      <point x="293" y="88" type="line"/>
      <point x="293" y="616" type="line"/>
      <point x="301" y="624" type="line"/>
      <point x="456" y="624" type="line"/>
      <point x="464" y="632" type="line"/>
      <point x="464" y="696" type="line"/>
      <point x="456" y="704" type="line"/>
      <point x="56" y="704" type="line"/>
      <point x="48" y="696" type="line"/>
      <point x="48" y="632" type="line"/>
      <point x="56" y="624" type="line"/>
      <point x="211" y="624" type="line"/>
      <point x="219" y="616" type="line"/>
      <point x="219" y="88" type="line"/>
      <point x="211" y="80" type="line"/>
      <point x="56" y="80" type="line"/>
      <point x="48" y="72" type="line"/>
      <point x="48" y="8" type="line"/>
    </contour>
  </outline>
</glyph>
<glyph name="J" format="2">
  <advance width="512"/>
  <unicode hex="004A"/>
  <outline>
    <contour>
      <point x="256" y="-16" type="curve" smooth="yes"/>
      <point x="384" y="-16"/>
      <point x="440" y="64"/>
      <point x="440" y="192" type="curve" smooth="yes"/>
      <point x="440" y="728" type="line"/>
      <point x="432" y="736" type="line"/>
      <point x="153" y="736" type="line"/>
      <point x="145" y="728" type="line"/>
      <point x="145" y="664" type="line"/>
      <point x="153" y="656" type="line"/>
      <point x="359" y="656" type="line"/>
      <point x="367" y="648" type="line"/>
      <point x="367" y="224" type="line" smooth="yes"/>
      <point x="367" y="128"/>
      <point x="352" y="64"/>
      <point x="256" y="64" type="curve" smooth="yes"/>
      <point x="160" y="64"/>
      <point x="145" y="128"/>
      <point x="145" y="224" type="curve" smooth="yes"/>
      <point x="145" y="240" type="line"/>
      <point x="137" y="248" type="line"/>
      <point x="80" y="248" type="line"/>
      <point x="72" y="240" type="line"/>
      <point x="72" y="192" type="line" smooth="yes"/>
      <point x="72" y="64"/>
      <point x="128" y="-16"/>
    </contour>
  </outline>
</glyph>
<glyph name="K" format="2">
  <advance width="512"/>
  <unicode hex="004B"/>
  <outline>
    <contour>
      <point x="88" y="0" type="line"/>
      <point x="145" y="0" type="line"/>
      <point x="153" y="8" type="line"/>
      <point x="153" y="332" type="line"/>
      <point x="161" y="340" type="line"/>
      <point x="220" y="340" type="line"/>
      <point x="400" y="8" type="line"/>
      <point x="408" y="0" type="line"/>
      <point x="464" y="0" type="line"/>
      <point x="472" y="8" type="line"/>
      <point x="472" y="16" type="line"/>
      <point x="280" y="371" type="line"/>
      <point x="280" y="387" type="line"/>
      <point x="458" y="688" type="line"/>
      <point x="458" y="696" type="line"/>
      <point x="450" y="704" type="line"/>
      <point x="394" y="704" type="line"/>
      <point x="386" y="696" type="line"/>
      <point x="225" y="420" type="line"/>
      <point x="161" y="420" type="line"/>
      <point x="153" y="428" type="line"/>
      <point x="153" y="696" type="line"/>
      <point x="145" y="704" type="line"/>
      <point x="88" y="704" type="line"/>
      <point x="80" y="696" type="line"/>
      <point x="80" y="8" type="line"/>
    </contour>
  </outline>
</glyph>
<glyph name="L" format="2">
  <advance width="512"/>
  <unicode hex="004C"/>
  <anchor x="114" y="736" name="top"/>
  <outline>
    <contour>
      <point x="88" y="0" type="line"/>
      <point x="440" y="0" type="line"/>
      <point x="448" y="8" type="line"/>
      <point x="448" y="72" type="line"/>
      <point x="440" y="80" type="line"/>
      <point x="161" y="80" type="line"/>
      <point x="153" y="88" type="line"/>
      <point x="153" y="728" type="line"/>
      <point x="145" y="736" type="line"/>
      <point x="88" y="736" type="line"/>
      <point x="80" y="728" type="line"/>
      <point x="80" y="8" type="line"/>
    </contour>
  </outline>
</glyph>
<glyph name="M" format="2">
  <advance width="512"/>
  <unicode hex="004D"/>
  <outline>
    <contour>
      <point x="72" y="0" type="line"/>
      <point x="128" y="0" type="line"/>
      <point x="136" y="8" type="line"/>
      <point x="136" y="624" type="line"/>
      <point x="144" y="624" type="line"/>
      <point x="218" y="264" type="line"/>
      <point x="226" y="256" type="line"/>
      <point x="286" y="256" type="line"/>
      <point x="294" y="264" type="line"/>
      <point x="368" y="624" type="line"/>
      <point x="376" y="624" type="line"/>
      <point x="376" y="8" type="line"/>
      <point x="384" y="0" type="line"/>
      <point x="440" y="0" type="line"/>
      <point x="448" y="8" type="line"/>
      <point x="448" y="696" type="line"/>
      <point x="440" y="704" type="line"/>
      <point x="336" y="704" type="line"/>
      <point x="328" y="696" type="line"/>
      <point x="260" y="336" type="line"/>
      <point x="252" y="336" type="line"/>
      <point x="184" y="696" type="line"/>
      <point x="176" y="704" type="line"/>
      <point x="72" y="704" type="line"/>
      <point x="64" y="696" type="line"/>
      <point x="64" y="8" type="line"/>
    </contour>
  </outline>
</glyph>
<glyph name="N" format="2">
  <advance width="512"/>
  <unicode hex="004E"/>
  <anchor x="260" y="704" name="top"/>
  <outline>
    <contour>
      <point x="88" y="0" type="line"/>
      <point x="144" y="0" type="line"/>
      <point x="152" y="8" type="line"/>
      <point x="152" y="624" type="line"/>
      <point x="160" y="624" type="line"/>
      <point x="304" y="8" type="line"/>
      <point x="312" y="0" type="line"/>
      <point x="424" y="0" type="line"/>
      <point x="432" y="8" type="line"/>
      <point x="432" y="696" type="line"/>
      <point x="424" y="704" type="line"/>
      <point x="368" y="704" type="line"/>
      <point x="360" y="696" type="line"/>
      <point x="360" y="80" type="line"/>
      <point x="352" y="80" type="line"/>
      <point x="208" y="696" type="line"/>
      <point x="200" y="704" type="line"/>
      <point x="88" y="704" type="line"/>
      <point x="80" y="696" type="line"/>
      <point x="80" y="8" type="line"/>
    </contour>
  </outline>
</glyph>
<glyph name="Q" format="2">
  <advance width="512"/>
  <unicode hex="0051"/>
  <outline>
    <contour>
      <point x="256" y="64" type="curve" smooth="yes"/>
      <point x="176" y="64"/>
      <point x="145" y="105"/>
      <point x="145" y="193" type="curve" smooth="yes"/>
      <point x="145" y="511" type="line" smooth="yes"/>
      <point x="145" y="599"/>
      <point x="176" y="640"/>
      <point x="256" y="640" type="curve" smooth="yes"/>
      <point x="336" y="640"/>
      <point x="367" y="599"/>
      <point x="367" y="511" type="curve" smooth="yes"/>
      <point x="367" y="193" type="line" smooth="yes"/>
      <point x="367" y="105"/>
      <point x="336" y="64"/>
    </contour>
    <contour>
      <point x="290" y="-208" type="curve" smooth="yes"/>
      <point x="384" y="-208" type="line"/>
      <point x="392" y="-200" type="line"/>
      <point x="392" y="-136" type="line"/>
      <point x="384" y="-128" type="line"/>
      <point x="315" y="-128" type="line" smooth="yes"/>
      <point x="299" y="-128"/>
      <point x="291" y="-120"/>
      <point x="291" y="-104" type="curve" smooth="yes"/>
      <point x="291" y="-14" type="line"/>
      <point x="396" y="0"/>
      <point x="440" y="57"/>
      <point x="440" y="161" type="curve" smooth="yes"/>
      <point x="440" y="543" type="line" smooth="yes"/>
      <point x="440" y="647"/>
      <point x="384" y="720"/>
      <point x="256" y="720" type="curve" smooth="yes"/>
      <point x="128" y="720"/>
      <point x="72" y="647"/>
      <point x="72" y="543" type="curve" smooth="yes"/>
      <point x="72" y="161" type="line" smooth="yes"/>
      <point x="72" y="57"/>
      <point x="116" y="1"/>
      <point x="217" y="-13" type="curve"/>
      <point x="217" y="-136" type="line" smooth="yes"/>
      <point x="217" y="-184"/>
      <point x="242" y="-208"/>
    </contour>
  </outline>
</glyph>
<glyph name="R" format="2">
  <advance width="512"/>
  <unicode hex="0052"/>
  <anchor x="248" y="704" name="top"/>
  <outline>
    <contour>
      <point x="161" y="376" type="line"/>
      <point x="153" y="384" type="line"/>
      <point x="153" y="616" type="line"/>
      <point x="161" y="624" type="line"/>
      <point x="256" y="624" type="line" smooth="yes"/>
      <point x="344" y="624"/>
      <point x="367" y="592"/>
      <point x="367" y="543" type="curve" smooth="yes"/>
      <point x="367" y="465" type="line" smooth="yes"/>
      <point x="367" y="408"/>
      <point x="344" y="376"/>
      <point x="256" y="376" type="curve" smooth="yes"/>
    </contour>
    <contour>
      <point x="88" y="0" type="line"/>
      <point x="145" y="0" type="line"/>
      <point x="153" y="8" type="line"/>
      <point x="153" y="296" type="line"/>
      <point x="161" y="304" type="line"/>
      <point x="256" y="304" type="line" smooth="yes"/>
      <point x="336" y="304"/>
      <point x="367" y="273"/>
      <point x="367" y="207" type="curve" smooth="yes"/>
      <point x="367" y="7" type="line"/>
      <point x="375" y="0" type="line"/>
      <point x="432" y="0" type="line"/>
      <point x="440" y="8" type="line"/>
      <point x="440" y="239" type="line" smooth="yes"/>
      <point x="440" y="296"/>
      <point x="408" y="323"/>
      <point x="353" y="332" type="curve"/>
      <point x="353" y="345" type="line"/>
      <point x="408" y="352"/>
      <point x="440" y="371"/>
      <point x="440" y="433" type="curve" smooth="yes"/>
      <point x="440" y="575" type="line" smooth="yes"/>
      <point x="440" y="664"/>
      <point x="392" y="704"/>
      <point x="256" y="704" type="curve" smooth="yes"/>
      <point x="88" y="704" type="line"/>
      <point x="80" y="696" type="line"/>
      <point x="80" y="8" type="line"/>
    </contour>
  </outline>
</glyph>
<glyph name="S" format="2">
  <advance width="512"/>
  <unicode hex="0053"/>
  <anchor x="256" y="736" name="top"/>
  <outline>
    <contour>
      <point x="256" y="-16" type="curve" smooth="yes"/>
      <point x="384" y="-16"/>
      <point x="456" y="56"/>
      <point x="456" y="176" type="curve" smooth="yes"/>
      <point x="456" y="298"/>
      <point x="402" y="354"/>
      <point x="256" y="423" type="curve" smooth="yes"/>
      <point x="178" y="460"/>
      <point x="145" y="511"/>
      <point x="145" y="567" type="curve" smooth="yes"/>
      <point x="145" y="634"/>
      <point x="184" y="672"/>
      <point x="256" y="672" type="curve" smooth="yes"/>
      <point x="305" y="672"/>
      <point x="358" y="634"/>
      <point x="358" y="567" type="curve" smooth="yes"/>
      <point x="358" y="542" type="line"/>
      <point x="366" y="534" type="line"/>
      <point x="423" y="534" type="line"/>
      <point x="431" y="542" type="line"/>
      <point x="431" y="575" type="line" smooth="yes"/>
      <point x="431" y="671"/>
      <point x="368" y="752"/>
      <point x="256" y="752" type="curve" smooth="yes"/>
      <point x="144" y="752"/>
      <point x="72" y="679"/>
      <point x="72" y="583" type="curve" smooth="yes"/>
      <point x="72" y="466"/>
      <point x="121" y="400"/>
      <point x="256" y="338" type="curve" smooth="yes"/>
      <point x="334" y="302"/>
      <point x="383" y="256"/>
      <point x="383" y="192" type="curve" smooth="yes"/>
      <point x="383" y="120"/>
      <point x="352" y="64"/>
      <point x="256" y="64" type="curve" smooth="yes"/>
      <point x="160" y="64"/>
      <point x="129" y="120"/>
      <point x="129" y="208" type="curve" smooth="yes"/>
      <point x="129" y="233" type="line"/>
      <point x="121" y="241" type="line"/>
      <point x="64" y="241" type="line"/>
      <point x="56" y="233" type="line"/>
      <point x="56" y="176" type="line" smooth="yes"/>
      <point x="56" y="56"/>
      <point x="128" y="-16"/>
    </contour>
  </outline>
</glyph>
<glyph name="T" format="2">
  <advance width="512"/>
  <unicode hex="0054"/>
  <anchor x="258" y="736" name="top"/>
  <outline>
    <contour>
      <point x="227" y="0" type="line"/>
      <point x="285" y="0" type="line"/>
      <point x="293" y="8" type="line"/>
      <point x="293" y="648" type="line"/>
      <point x="301" y="656" type="line"/>
      <point x="488" y="656" type="line"/>
      <point x="496" y="664" type="line"/>
      <point x="496" y="728" type="line"/>
      <point x="488" y="736" type="line"/>
      <point x="24" y="736" type="line"/>
      <point x="16" y="728" type="line"/>
      <point x="16" y="664" type="line"/>
      <point x="24" y="656" type="line"/>
      <point x="211" y="656" type="line"/>
      <point x="219" y="648" type="line"/>
      <point x="219" y="8" type="line"/>
    </contour>
  </outline>
</glyph>
<glyph name="U" format="2">
  <advance width="512"/>
  <unicode hex="0055"/>
  <anchor x="256" y="736" name="top"/>
  <outline>
    <contour>
      <point x="256" y="-16" type="curve" smooth="yes"/>
      <point x="384" y="-16"/>
      <point x="440" y="48"/>
      <point x="440" y="192" type="curve" smooth="yes"/>
      <point x="440" y="728" type="line"/>
      <point x="432" y="736" type="line"/>
      <point x="374" y="736" type="line"/>
      <point x="366" y="728" type="line"/>
      <point x="366" y="224" type="line" smooth="yes"/>
      <point x="366" y="120"/>
      <point x="352" y="64"/>
      <point x="256" y="64" type="curve" smooth="yes"/>
      <point x="160" y="64"/>
      <point x="146" y="120"/>
      <point x="146" y="224" type="curve" smooth="yes"/>
      <point x="146" y="728" type="line"/>
      <point x="138" y="736" type="line"/>
      <point x="80" y="736" type="line"/>
      <point x="72" y="728" type="line"/>
      <point x="72" y="192" type="line" smooth="yes"/>
      <point x="72" y="48"/>
      <point x="128" y="-16"/>
    </contour>
  </outline>
</glyph>
<glyph name="V" format="2">
  <advance width="512"/>
  <unicode hex="0056"/>
  <outline>
    <contour>
      <point x="208" y="0" type="line"/>
      <point x="304" y="0" type="line"/>
      <point x="312" y="8" type="line"/>
      <point x="464" y="688" type="line"/>
      <point x="464" y="696" type="line"/>
      <point x="456" y="704" type="line"/>
      <point x="400" y="704" type="line"/>
      <point x="392" y="696" type="line"/>
      <point x="264" y="96" type="line"/>
      <point x="248" y="96" type="line"/>
      <point x="120" y="696" type="line"/>
      <point x="112" y="704" type="line"/>
      <point x="56" y="704" type="line"/>
      <point x="48" y="696" type="line"/>
      <point x="48" y="688" type="line"/>
      <point x="200" y="8" type="line"/>
    </contour>
  </outline>
</glyph>
<glyph name="W" format="2">
  <advance width="512"/>
  <unicode hex="0057"/>
  <anchor x="256" y="736" name="top"/>
  <outline>
    <contour>
      <point x="71" y="0" type="line"/>
      <point x="172" y="0" type="line"/>
      <point x="180" y="8" type="line"/>
      <point x="244" y="424" type="line"/>
      <point x="252" y="432" type="line"/>
      <point x="260" y="432" type="line"/>
      <point x="268" y="424" type="line"/>
      <point x="332" y="8" type="line"/>
      <point x="340" y="0" type="line"/>
      <point x="441" y="0" type="line"/>
      <point x="449" y="8" type="line"/>
      <point x="449" y="24" type="line"/>
      <point x="488" y="712" type="line"/>
      <point x="488" y="728" type="line"/>
      <point x="480" y="736" type="line"/>
      <point x="422" y="736" type="line"/>
      <point x="414" y="728" type="line"/>
      <point x="389" y="208" type="line"/>
      <point x="402" y="96" type="line"/>
      <point x="402" y="88" type="line"/>
      <point x="394" y="80" type="line"/>
      <point x="386" y="80" type="line"/>
      <point x="378" y="88" type="line"/>
      <point x="316" y="504" type="line"/>
      <point x="308" y="512" type="line"/>
      <point x="204" y="512" type="line"/>
      <point x="196" y="504" type="line"/>
      <point x="134" y="88" type="line"/>
      <point x="126" y="80" type="line"/>
      <point x="118" y="80" type="line"/>
      <point x="110" y="88" type="line"/>
      <point x="110" y="96" type="line"/>
      <point x="123" y="208" type="line"/>
      <point x="98" y="728" type="line"/>
      <point x="90" y="736" type="line"/>
      <point x="32" y="736" type="line"/>
      <point x="24" y="728" type="line"/>
      <point x="24" y="712" type="line"/>
      <point x="63" y="24" type="line"/>
      <point x="63" y="8" type="line"/>
    </contour>
  </outline>
</glyph>
<glyph name="X" format="2">
  <advance width="512"/>
  <unicode hex="0058"/>
  <outline>
    <contour>
      <point x="48" y="0" type="line"/>
      <point x="109" y="0" type="line"/>
      <point x="117" y="8" type="line"/>
      <point x="248" y="269" type="line"/>
      <point x="264" y="269" type="line"/>
      <point x="395" y="8" type="line"/>
      <point x="403" y="0" type="line"/>
      <point x="464" y="0" type="line"/>
      <point x="472" y="8" type="line"/>
      <point x="472" y="16" type="line"/>
      <point x="299" y="352" type="line"/>
      <point x="299" y="360" type="line"/>
      <point x="472" y="688" type="line"/>
      <point x="472" y="696" type="line"/>
      <point x="464" y="704" type="line"/>
      <point x="403" y="704" type="line"/>
      <point x="395" y="696" type="line"/>
      <point x="264" y="435" type="line"/>
      <point x="248" y="435" type="line"/>
      <point x="117" y="696" type="line"/>
      <point x="109" y="704" type="line"/>
      <point x="48" y="704" type="line"/>
      <point x="40" y="696" type="line"/>
      <point x="40" y="688" type="line"/>
      <point x="213" y="360" type="line"/>
      <point x="213" y="352" type="line"/>
      <point x="40" y="16" type="line"/>
      <point x="40" y="8" type="line"/>
    </contour>
  </outline>
</glyph>
<glyph name="Y" format="2">
  <advance width="512"/>
  <unicode hex="0059"/>
  <anchor x="248" y="704" name="top"/>
  <outline>
    <contour>
      <point x="227" y="0" type="line"/>
      <point x="285" y="0" type="line"/>
      <point x="293" y="8" type="line"/>
      <point x="293" y="291" type="line"/>
      <point x="472" y="688" type="line"/>
      <point x="472" y="696" type="line"/>
      <point x="464" y="704" type="line"/>
      <point x="404" y="704" type="line"/>
      <point x="396" y="696" type="line"/>
      <point x="264" y="404" type="line"/>
      <point x="248" y="404" type="line"/>
      <point x="116" y="696" type="line"/>
      <point x="108" y="704" type="line"/>
      <point x="48" y="704" type="line"/>
      <point x="40" y="696" type="line"/>
      <point x="40" y="688" type="line"/>
      <point x="219" y="291" type="line"/>
      <point x="219" y="8" type="line"/>
    </contour>
  </outline>
</glyph>
<glyph name="Z" format="2">
  <advance width="512"/>
  <unicode hex="005A"/>
  <anchor x="265" y="704" name="top"/>
  <outline>
    <contour>
      <point x="80" y="0" type="line"/>
      <point x="432" y="0" type="line"/>
      <point x="440" y="8" type="line"/>
      <point x="440" y="72" type="line"/>
      <point x="432" y="80" type="line"/>
      <point x="156" y="80" type="line"/>
      <point x="156" y="88" type="line"/>
      <point x="440" y="624" type="line"/>
      <point x="440" y="696" type="line"/>
      <point x="432" y="704" type="line"/>
      <point x="80" y="704" type="line"/>
      <point x="72" y="696" type="line"/>
      <point x="72" y="632" type="line"/>
      <point x="80" y="624" type="line"/>
      <point x="356" y="624" type="line"/>
      <point x="356" y="616" type="line"/>
      <point x="72" y="80" type="line"/>
      <point x="72" y="8" type="line"/>
    </contour>
  </outline>
</glyph>
<glyph name="bracketright" format="2">
  <advance width="512"/>
  <unicode hex="005D"/>
  <outline>
    <contour>
      <point x="116" y="-208" type="line"/>
      <point x="394" y="-208" type="line"/>
      <point x="394" y="704" type="line"/>
      <point x="116" y="704" type="line"/>
      <point x="116" y="624" type="line"/>
      <point x="322" y="624" type="line"/>
      <point x="322" y="-128" type="line"/>
      <point x="116" y="-128" type="line"/>
    </contour>
  </outline>
</glyph>
<glyph name="asciicircum" format="2">
  <advance width="512"/>
  <unicode hex="005E"/>
  <outline>
    <contour>
      <point x="32" y="328" type="line"/>
      <point x="40" y="320" type="line"/>
      <point x="96" y="320" type="line"/>
      <point x="104" y="328" type="line"/>
      <point x="248" y="624" type="line"/>
      <point x="264" y="624" type="line"/>
      <point x="408" y="328" type="line"/>
      <point x="416" y="320" type="line"/>
      <point x="472" y="320" type="line"/>
      <point x="480" y="328" type="line"/>
      <point x="304" y="696" type="line"/>
      <point x="296" y="704" type="line"/>
      <point x="215" y="704" type="line"/>
      <point x="207" y="696" type="line"/>
    </contour>
  </outline>
</glyph>
<glyph name="grave" format="2">
  <advance width="512"/>
  <unicode hex="0060"/>
  <outline>
    <contour>
      <point x="308" y="408" type="line"/>
      <point x="378" y="408" type="line"/>
      <point x="298" y="768" type="line"/>
      <point x="135" y="768" type="line"/>
    </contour>
  </outline>
</glyph>
<glyph name="a" format="2">
  <advance width="512"/>
  <unicode hex="0061"/>
  <anchor x="220" y="0" name="bottom"/>
  <anchor x="410" y="58" name="ogonek"/>
  <anchor x="258" y="512" name="top"/>
  <outline>
    <contour>
      <point x="244" y="64" type="curve" smooth="yes"/>
      <point x="180" y="64"/>
      <point x="140" y="88"/>
      <point x="140" y="144" type="curve" smooth="yes"/>
      <point x="140" y="200"/>
      <point x="180" y="224"/>
      <point x="244" y="224" type="curve" smooth="yes"/>
      <point x="332" y="224" type="line"/>
      <point x="340" y="216" type="line"/>
      <point x="340" y="144" type="line" smooth="yes"/>
      <point x="340" y="88"/>
      <point x="308" y="64"/>
    </contour>
    <contour>
      <point x="220" y="-16" type="curve" smooth="yes"/>
      <point x="272" y="-16"/>
      <point x="309" y="16"/>
      <point x="324" y="56" type="curve"/>
      <point x="332" y="64" type="line"/>
      <point x="340" y="64" type="line"/>
      <point x="348" y="56" type="line"/>
      <point x="356" y="16"/>
      <point x="392" y="0"/>
      <point x="425" y="0" type="curve"/>
      <point x="456" y="0" type="line"/>
      <point x="464" y="8" type="line"/>
      <point x="464" y="72" type="line"/>
      <point x="456" y="80" type="line"/>
      <point x="441" y="80" type="line" smooth="yes"/>
      <point x="420" y="80"/>
      <point x="412" y="97"/>
      <point x="412" y="129" type="curve" smooth="yes"/>
      <point x="412" y="380" type="line" smooth="yes"/>
      <point x="412" y="484"/>
      <point x="360" y="528"/>
      <point x="256" y="528" type="curve" smooth="yes"/>
      <point x="144" y="528"/>
      <point x="100" y="468"/>
      <point x="100" y="404" type="curve" smooth="yes"/>
      <point x="100" y="380" type="line"/>
      <point x="108" y="372" type="line"/>
      <point x="164" y="372" type="line"/>
      <point x="172" y="380" type="line"/>
      <point x="172" y="396" type="line" smooth="yes"/>
      <point x="172" y="436"/>
      <point x="194" y="448"/>
      <point x="256" y="448" type="curve" smooth="yes"/>
      <point x="320" y="448"/>
      <point x="340" y="428"/>
      <point x="340" y="380" type="curve" smooth="yes"/>
      <point x="340" y="296" type="line"/>
      <point x="332" y="288" type="line"/>
      <point x="244" y="288" type="line" smooth="yes"/>
      <point x="132" y="288"/>
      <point x="68" y="248"/>
      <point x="68" y="144" type="curve" smooth="yes"/>
      <point x="68" y="33"/>
      <point x="141" y="-16"/>
    </contour>
  </outline>
</glyph>
<glyph name="b" format="2">
  <advance width="512"/>
  <unicode hex="0062"/>
  <outline>
    <contour>
      <point x="88" y="0" type="line"/>
      <point x="136" y="0" type="line"/>
      <point x="144" y="8" type="line"/>
      <point x="152" y="48" type="line"/>
      <point x="160" y="48" type="line"/>
      <point x="188" y="8"/>
      <point x="232" y="-16"/>
      <point x="280" y="-16" type="curve" smooth="yes"/>
      <point x="368" y="-16"/>
      <point x="432" y="40"/>
      <point x="432" y="160" type="curve" smooth="yes"/>
      <point x="432" y="352" type="line" smooth="yes"/>
      <point x="432" y="472"/>
      <point x="368" y="528"/>
      <point x="280" y="528" type="curve" smooth="yes"/>
      <point x="232" y="528"/>
      <point x="188" y="504"/>
      <point x="160" y="469" type="curve"/>
      <point x="152" y="469" type="line"/>
      <point x="152" y="696" type="line"/>
      <point x="144" y="704" type="line"/>
      <point x="88" y="704" type="line"/>
      <point x="80" y="696" type="line"/>
      <point x="80" y="8" type="line"/>
    </contour>
    <contour>
      <point x="256" y="64" type="curve" smooth="yes"/>
      <point x="192" y="64"/>
      <point x="152" y="96"/>
      <point x="152" y="192" type="curve" smooth="yes"/>
      <point x="152" y="320" type="line" smooth="yes"/>
      <point x="152" y="416"/>
      <point x="192" y="448"/>
      <point x="256" y="448" type="curve" smooth="yes"/>
      <point x="320" y="448"/>
      <point x="360" y="416"/>
      <point x="360" y="320" type="curve" smooth="yes"/>
      <point x="360" y="192" type="line" smooth="yes"/>
      <point x="360" y="96"/>
      <point x="320" y="64"/>
    </contour>
  </outline>
</glyph>
<glyph name="c" format="2">
  <advance width="512"/>
  <unicode hex="0063"/>
  <anchor x="263" y="512" name="top"/>
  <outline>
    <contour>
      <point x="256" y="-16" type="curve" smooth="yes"/>
      <point x="384" y="-16"/>
      <point x="432" y="56"/>
      <point x="432" y="152" type="curve" smooth="yes"/>
      <point x="432" y="176" type="line"/>
      <point x="424" y="184" type="line"/>
      <point x="368" y="184" type="line"/>
      <point x="360" y="176" type="line"/>
      <point x="360" y="168" type="line" smooth="yes"/>
      <point x="360" y="120"/>
      <point x="336" y="64"/>
      <point x="256" y="64" type="curve" smooth="yes"/>
      <point x="176" y="64"/>
      <point x="152" y="112"/>
      <point x="152" y="216" type="curve" smooth="yes"/>
      <point x="152" y="296" type="line" smooth="yes"/>
      <point x="152" y="400"/>
      <point x="176" y="448"/>
      <point x="256" y="448" type="curve" smooth="yes"/>
      <point x="336" y="448"/>
      <point x="360" y="392"/>
      <point x="360" y="344" type="curve" smooth="yes"/>
      <point x="360" y="336" type="line"/>
      <point x="368" y="328" type="line"/>
      <point x="425" y="328" type="line"/>
      <point x="432" y="336" type="line"/>
      <point x="432" y="344" type="line" smooth="yes"/>
      <point x="432" y="456"/>
      <point x="384" y="528"/>
      <point x="256" y="528" type="curve" smooth="yes"/>
      <point x="128" y="528"/>
      <point x="80" y="464"/>
      <point x="80" y="312" type="curve" smooth="yes"/>
      <point x="80" y="200" type="line" smooth="yes"/>
      <point x="80" y="48"/>
      <point x="128" y="-16"/>
    </contour>
  </outline>
</glyph>
<glyph name="d" format="2">
  <advance width="512"/>
  <unicode hex="0064"/>
  <outline>
    <contour>
      <point x="424" y="0" type="line"/>
      <point x="432" y="8" type="line"/>
      <point x="432" y="728" type="line"/>
      <point x="424" y="736" type="line"/>
      <point x="368" y="736" type="line"/>
      <point x="360" y="728" type="line"/>
      <point x="360" y="512" type="line"/>
      <point x="368" y="477" type="line"/>
      <point x="360" y="469" type="line"/>
      <point x="352" y="469" type="line"/>
      <point x="329" y="499"/>
      <point x="296" y="528"/>
      <point x="240" y="528" type="curve" smooth="yes"/>
      <point x="128" y="528"/>
      <point x="80" y="456"/>
      <point x="80" y="328" type="curve" smooth="yes"/>
      <point x="80" y="184" type="line" smooth="yes"/>
      <point x="80" y="56"/>
      <point x="112" y="-16"/>
      <point x="240" y="-16" type="curve" smooth="yes"/>
      <point x="288" y="-16"/>
      <point x="324" y="8"/>
      <point x="352" y="48" type="curve"/>
      <point x="360" y="48" type="line"/>
      <point x="376" y="8" type="line"/>
      <point x="384" y="0" type="line"/>
    </contour>
    <contour>
      <point x="256" y="64" type="curve" smooth="yes"/>
      <point x="176" y="64"/>
      <point x="152" y="112"/>
      <point x="152" y="192" type="curve" smooth="yes"/>
      <point x="152" y="320" type="line" smooth="yes"/>
      <point x="152" y="400"/>
      <point x="176" y="448"/>
      <point x="256" y="448" type="curve" smooth="yes"/>
      <point x="336" y="448"/>
      <point x="360" y="400"/>
      <point x="360" y="320" type="curve" smooth="yes"/>
      <point x="360" y="192" type="line" smooth="yes"/>
      <point x="360" y="112"/>
      <point x="336" y="64"/>
    </contour>
  </outline>
</glyph>
<glyph name="e" format="2">
  <advance width="512"/>
  <unicode hex="0065"/>
  <outline>
    <contour>
      <point x="256" y="-16" type="curve" smooth="yes"/>
      <point x="384" y="-16"/>
      <point x="424" y="40"/>
      <point x="424" y="124" type="curve" smooth="yes"/>
      <point x="424" y="140" type="line"/>
      <point x="416" y="148" type="line"/>
      <point x="360" y="148" type="line"/>
      <point x="352" y="140" type="line"/>
      <point x="352" y="132" type="line" smooth="yes"/>
      <point x="352" y="84"/>
      <point x="336" y="64"/>
      <point x="256" y="64" type="curve" smooth="yes"/>
      <point x="176" y="64"/>
      <point x="152" y="112"/>
      <point x="152" y="192" type="curve" smooth="yes"/>
      <point x="152" y="228" type="line"/>
      <point x="160" y="236" type="line"/>
      <point x="424" y="236" type="line"/>
      <point x="432" y="244" type="line"/>
      <point x="432" y="328" type="line" smooth="yes"/>
      <point x="432" y="456"/>
      <point x="384" y="528"/>
      <point x="256" y="528" type="curve" smooth="yes"/>
      <point x="128" y="528"/>
      <point x="80" y="456"/>
      <point x="80" y="328" type="curve" smooth="yes"/>
      <point x="80" y="184" type="line" smooth="yes"/>
      <point x="80" y="56"/>
      <point x="128" y="-16"/>
    </contour>
    <contour>
      <point x="160" y="300" type="line"/>
      <point x="152" y="308" type="line"/>
      <point x="152" y="316" type="line" smooth="yes"/>
      <point x="152" y="404"/>
      <point x="176" y="448"/>
      <point x="256" y="448" type="curve" smooth="yes"/>
      <point x="336" y="448"/>
      <point x="360" y="404"/>
      <point x="360" y="316" type="curve" smooth="yes"/>
      <point x="360" y="308" type="line"/>
      <point x="352" y="300" type="line"/>
    </contour>
  </outline>
</glyph>
<glyph name="f" format="2">
  <advance width="512"/>
  <unicode hex="0066"/>
  <outline>
    <contour>
      <point x="217" y="0" type="line"/>
      <point x="273" y="0" type="line"/>
      <point x="281" y="8" type="line"/>
      <point x="281" y="424" type="line"/>
      <point x="289" y="432" type="line"/>
      <point x="456" y="432" type="line"/>
      <point x="464" y="440" type="line"/>
      <point x="464" y="504" type="line"/>
      <point x="456" y="512" type="line"/>
      <point x="289" y="512" type="line"/>
      <point x="281" y="520" type="line"/>
      <point x="281" y="584" type="line" smooth="yes"/>
      <point x="281" y="632"/>
      <point x="305" y="656"/>
      <point x="353" y="656" type="curve" smooth="yes"/>
      <point x="464" y="656" type="line"/>
      <point x="472" y="664" type="line"/>
      <point x="472" y="728" type="line"/>
      <point x="464" y="736" type="line"/>
      <point x="345" y="736" type="line" smooth="yes"/>
      <point x="249" y="736"/>
      <point x="209" y="696"/>
      <point x="209" y="600" type="curve" smooth="yes"/>
      <point x="209" y="520" type="line"/>
      <point x="201" y="512" type="line"/>
      <point x="48" y="512" type="line"/>
      <point x="40" y="504" type="line"/>
      <point x="40" y="440" type="line"/>
      <point x="48" y="432" type="line"/>
      <point x="201" y="432" type="line"/>
      <point x="209" y="424" type="line"/>
      <point x="209" y="8" type="line"/>
    </contour>
  </outline>
</glyph>
<glyph name="g" format="2">
  <advance width="512"/>
  <unicode hex="0067"/>
  <anchor x="266" y="512" name="top"/>
  <outline>
    <contour>
      <point x="136" y="-208" type="line"/>
      <point x="258" y="-208" type="line" smooth="yes"/>
      <point x="394" y="-208"/>
      <point x="432" y="-144"/>
      <point x="432" y="-31" type="curve" smooth="yes"/>
      <point x="432" y="504" type="line"/>
      <point x="424" y="512" type="line"/>
      <point x="376" y="512" type="line"/>
      <point x="368" y="504" type="line"/>
      <point x="360" y="464" type="line"/>
      <point x="352" y="464" type="line"/>
      <point x="323" y="505"/>
      <point x="280" y="528"/>
      <point x="232" y="528" type="curve" smooth="yes"/>
      <point x="144" y="528"/>
      <point x="80" y="472"/>
      <point x="80" y="352" type="curve" smooth="yes"/>
      <point x="80" y="216" type="line" smooth="yes"/>
      <point x="80" y="88"/>
      <point x="144" y="32"/>
      <point x="232" y="32" type="curve" smooth="yes"/>
      <point x="280" y="32"/>
      <point x="325" y="48"/>
      <point x="352" y="91" type="curve"/>
      <point x="360" y="91" type="line"/>
      <point x="360" y="-48" type="line" smooth="yes"/>
      <point x="360" y="-105"/>
      <point x="330" y="-128"/>
      <point x="258" y="-128" type="curve" smooth="yes"/>
      <point x="136" y="-128" type="line"/>
      <point x="128" y="-136" type="line"/>
      <point x="128" y="-200" type="line"/>
    </contour>
    <contour>
      <point x="256" y="448" type="curve" smooth="yes"/>
      <point x="331" y="448"/>
      <point x="360" y="408"/>
      <point x="360" y="312" type="curve" smooth="yes"/>
      <point x="360" y="248" type="line" smooth="yes"/>
      <point x="360" y="152"/>
      <point x="328" y="112"/>
      <point x="256" y="112" type="curve" smooth="yes"/>
      <point x="184" y="112"/>
      <point x="152" y="152"/>
      <point x="152" y="248" type="curve" smooth="yes"/>
      <point x="152" y="320" type="line" smooth="yes"/>
      <point x="152" y="416"/>
      <point x="184" y="448"/>
    </contour>
  </outline>
</glyph>
<glyph name="i" format="2">
  <advance width="512"/>
  <unicode hex="0069"/>
  <outline>
    <contour>
      <point x="72" y="0" type="line"/>
      <point x="440" y="0" type="line"/>
      <point x="448" y="8" type="line"/>
      <point x="448" y="72" type="line"/>
      <point x="440" y="80" type="line"/>
      <point x="308" y="80" type="line"/>
      <point x="300" y="88" type="line"/>
      <point x="300" y="504" type="line"/>
      <point x="292" y="512" type="line"/>
      <point x="102" y="512" type="line"/>
      <point x="94" y="504" type="line"/>
      <point x="94" y="440" type="line"/>
      <point x="102" y="432" type="line"/>
      <point x="220" y="432" type="line"/>
      <point x="228" y="424" type="line"/>
      <point x="228" y="88" type="line"/>
      <point x="220" y="80" type="line"/>
      <point x="72" y="80" type="line"/>
      <point x="64" y="72" type="line"/>
      <point x="64" y="8" type="line"/>
    </contour>
    <contour>
      <point x="248" y="592" type="curve" smooth="yes"/>
      <point x="284" y="592"/>
      <point x="312" y="620"/>
      <point x="312" y="657" type="curve" smooth="yes"/>
      <point x="312" y="693"/>
      <point x="284" y="720"/>
      <point x="248" y="720" type="curve" smooth="yes"/>
      <point x="212" y="720"/>
      <point x="184" y="693"/>
      <point x="184" y="657" type="curve" smooth="yes"/>
      <point x="184" y="620"/>
      <point x="212" y="592"/>
    </contour>
  </outline>
</glyph>
<glyph name="j" format="2">
  <advance width="512"/>
  <unicode hex="006A"/>
  <outline>
    <contour>
      <point x="40" y="-208" type="line"/>
      <point x="160" y="-208" type="line" smooth="yes"/>
      <point x="296" y="-208"/>
      <point x="334" y="-144"/>
      <point x="334" y="-31" type="curve" smooth="yes"/>
      <point x="334" y="504" type="line"/>
      <point x="326" y="512" type="line"/>
      <point x="126" y="512" type="line"/>
      <point x="118" y="504" type="line"/>
      <point x="118" y="440" type="line"/>
      <point x="126" y="432" type="line"/>
      <point x="254" y="432" type="line"/>
      <point x="262" y="424" type="line"/>
      <point x="262" y="-47" type="line" smooth="yes"/>
      <point x="262" y="-104"/>
      <point x="232" y="-128"/>
      <point x="160" y="-128" type="curve" smooth="yes"/>
      <point x="40" y="-128" type="line"/>
      <point x="32" y="-136" type="line"/>
      <point x="32" y="-200" type="line"/>
    </contour>
    <contour>
      <point x="288" y="592" type="curve" smooth="yes"/>
      <point x="324" y="592"/>
      <point x="352" y="620"/>
      <point x="352" y="657" type="curve" smooth="yes"/>
      <point x="352" y="693"/>
      <point x="324" y="720"/>
      <point x="288" y="720" type="curve" smooth="yes"/>
      <point x="252" y="720"/>
      <point x="224" y="693"/>
      <point x="224" y="657" type="curve" smooth="yes"/>
      <point x="224" y="620"/>
      <point x="252" y="592"/>
    </contour>
  </outline>
</glyph>
<glyph name="l" format="2">
  <advance width="512"/>
  <unicode hex="006C"/>
  <anchor x="239" y="736" name="top"/>
  <outline>
    <contour>
      <point x="72" y="0" type="line"/>
      <point x="440" y="0" type="line"/>
      <point x="448" y="8" type="line"/>
      <point x="448" y="72" type="line"/>
      <point x="440" y="80" type="line"/>
      <point x="290" y="80" type="line"/>
      <point x="282" y="88" type="line"/>
      <point x="282" y="728" type="line"/>
      <point x="274" y="736" type="line"/>
      <point x="74" y="736" type="line"/>
      <point x="66" y="728" type="line"/>
      <point x="66" y="664" type="line"/>
      <point x="74" y="656" type="line"/>
      <point x="202" y="656" type="line"/>
      <point x="210" y="648" type="line"/>
      <point x="210" y="88" type="line"/>
      <point x="202" y="80" type="line"/>
      <point x="72" y="80" type="line"/>
      <point x="64" y="72" type="line"/>
      <point x="64" y="8" type="line"/>
    </contour>
  </outline>
</glyph>
<glyph name="m" format="2">
  <advance width="512"/>
  <unicode hex="006D"/>
  <outline>
    <contour>
      <point x="66" y="0" type="line"/>
      <point x="122" y="0" type="line"/>
      <point x="130" y="8" type="line"/>
      <point x="130" y="389" type="line" smooth="yes"/>
      <point x="130" y="425"/>
      <point x="143" y="448"/>
      <point x="177" y="448" type="curve" smooth="yes"/>
      <point x="211" y="448"/>
      <point x="224" y="425"/>
      <point x="224" y="389" type="curve" smooth="yes"/>
      <point x="224" y="8" type="line"/>
      <point x="232" y="0" type="line"/>
      <point x="280" y="0" type="line"/>
      <point x="288" y="8" type="line"/>
      <point x="288" y="389" type="line" smooth="yes"/>
      <point x="288" y="425"/>
      <point x="301" y="448"/>
      <point x="335" y="448" type="curve" smooth="yes"/>
      <point x="369" y="448"/>
      <point x="382" y="425"/>
      <point x="382" y="389" type="curve" smooth="yes"/>
      <point x="382" y="8" type="line"/>
      <point x="390" y="0" type="line"/>
      <point x="446" y="0" type="line"/>
      <point x="454" y="8" type="line"/>
      <point x="454" y="429" type="line" smooth="yes"/>
      <point x="454" y="489"/>
      <point x="428" y="528"/>
      <point x="368" y="528" type="curve" smooth="yes"/>
      <point x="326" y="528"/>
      <point x="302" y="496"/>
      <point x="291" y="456" type="curve"/>
      <point x="283" y="456" type="line"/>
      <point x="272" y="496"/>
      <point x="253" y="528"/>
      <point x="211" y="528" type="curve" smooth="yes"/>
      <point x="169" y="528"/>
      <point x="148" y="498"/>
      <point x="140" y="456" type="curve"/>
      <point x="132" y="456" type="line"/>
      <point x="124" y="504" type="line"/>
      <point x="116" y="512" type="line"/>
      <point x="66" y="512" type="line"/>
      <point x="58" y="504" type="line"/>
      <point x="58" y="8" type="line"/>
    </contour>
  </outline>
</glyph>
<glyph name="n" format="2">
  <advance width="512"/>
  <unicode hex="006E"/>
  <anchor x="260" y="512" name="top"/>
  <outline>
    <contour>
      <point x="88" y="0" type="line"/>
      <point x="144" y="0" type="line"/>
      <point x="152" y="8" type="line"/>
      <point x="152" y="337" type="line" smooth="yes"/>
      <point x="152" y="421"/>
      <point x="200" y="448"/>
      <point x="256" y="448" type="curve" smooth="yes"/>
      <point x="312" y="448"/>
      <point x="360" y="421"/>
      <point x="360" y="337" type="curve" smooth="yes"/>
      <point x="360" y="8" type="line"/>
      <point x="368" y="0" type="line"/>
      <point x="424" y="0" type="line"/>
      <point x="432" y="8" type="line"/>
      <point x="432" y="369" type="line" smooth="yes"/>
      <point x="432" y="476"/>
      <point x="377" y="528"/>
      <point x="292" y="528" type="curve" smooth="yes"/>
      <point x="232" y="528"/>
      <point x="190" y="503"/>
      <point x="160" y="464" type="curve"/>
      <point x="152" y="464" type="line"/>
      <point x="144" y="504" type="line"/>
      <point x="136" y="512" type="line"/>
      <point x="88" y="512" type="line"/>
      <point x="80" y="504" type="line"/>
      <point x="80" y="8" type="line"/>
    </contour>
  </outline>
</glyph>
<glyph name="o" format="2">
  <advance width="512"/>
  <unicode hex="006F"/>
  <outline>
    <contour>
      <point x="256" y="-16" type="curve" smooth="yes"/>
      <point x="384" y="-16"/>
      <point x="432" y="56"/>
      <point x="432" y="184" type="curve" smooth="yes"/>
      <point x="432" y="328" type="line" smooth="yes"/>
      <point x="432" y="456"/>
      <point x="384" y="528"/>
      <point x="256" y="528" type="curve" smooth="yes"/>
      <point x="128" y="528"/>
      <point x="80" y="456"/>
      <point x="80" y="328" type="curve" smooth="yes"/>
      <point x="80" y="184" type="line" smooth="yes"/>
      <point x="80" y="56"/>
      <point x="128" y="-16"/>
    </contour>
    <contour>
      <point x="256" y="64" type="curve" smooth="yes"/>
      <point x="176" y="64"/>
      <point x="152" y="112"/>
      <point x="152" y="192" type="curve" smooth="yes"/>
      <point x="152" y="320" type="line" smooth="yes"/>
      <point x="152" y="400"/>
      <point x="176" y="448"/>
      <point x="256" y="448" type="curve" smooth="yes"/>
      <point x="336" y="448"/>
      <point x="360" y="400"/>
      <point x="360" y="320" type="curve" smooth="yes"/>
      <point x="360" y="192" type="line" smooth="yes"/>
      <point x="360" y="112"/>
      <point x="336" y="64"/>
    </contour>
  </outline>
</glyph>
<glyph name="p" format="2">
  <advance width="512"/>
  <unicode hex="0070"/>
  <outline>
    <contour>
      <point x="144" y="-208" type="line"/>
      <point x="152" y="-200" type="line"/>
      <point x="152" y="43" type="line"/>
      <point x="160" y="43" type="line"/>
      <point x="171" y="20"/>
      <point x="210" y="-16"/>
      <point x="264" y="-16" type="curve" smooth="yes"/>
      <point x="376" y="-16"/>
      <point x="432" y="48"/>
      <point x="432" y="176" type="curve" smooth="yes"/>
      <point x="432" y="336" type="line" smooth="yes"/>
      <point x="432" y="464"/>
      <point x="376" y="528"/>
      <point x="264" y="528" type="curve" smooth="yes"/>
      <point x="210" y="528"/>
      <point x="171" y="499"/>
      <point x="152" y="472" type="curve"/>
      <point x="144" y="472" type="line"/>
      <point x="136" y="504" type="line"/>
      <point x="128" y="512" type="line"/>
      <point x="88" y="512" type="line"/>
      <point x="80" y="504" type="line"/>
      <point x="80" y="-200" type="line"/>
      <point x="88" y="-208" type="line"/>
    </contour>
    <contour>
      <point x="256" y="64" type="curve" smooth="yes"/>
      <point x="184" y="64"/>
      <point x="152" y="113"/>
      <point x="152" y="192" type="curve" smooth="yes"/>
      <point x="152" y="320" type="line" smooth="yes"/>
      <point x="152" y="416"/>
      <point x="192" y="448"/>
      <point x="256" y="448" type="curve" smooth="yes"/>
      <point x="320" y="448"/>
      <point x="360" y="416"/>
      <point x="360" y="320" type="curve" smooth="yes"/>
      <point x="360" y="192" type="line" smooth="yes"/>
      <point x="360" y="113"/>
      <point x="336" y="64"/>
    </contour>
  </outline>
</glyph>
<glyph name="s" format="2">
  <advance width="512"/>
  <unicode hex="0073"/>
  <anchor x="246" y="512" name="top"/>
  <outline>
    <contour>
      <point x="264" y="-16" type="curve" smooth="yes"/>
      <point x="360" y="-16"/>
      <point x="440" y="32"/>
      <point x="440" y="129" type="curve" smooth="yes"/>
      <point x="440" y="228"/>
      <point x="393" y="273"/>
      <point x="256" y="299" type="curve" smooth="yes"/>
      <point x="165" y="316"/>
      <point x="156" y="351"/>
      <point x="156" y="383" type="curve" smooth="yes"/>
      <point x="156" y="415"/>
      <point x="176" y="448"/>
      <point x="248" y="448" type="curve" smooth="yes"/>
      <point x="304" y="448"/>
      <point x="340" y="423"/>
      <point x="340" y="375" type="curve" smooth="yes"/>
      <point x="340" y="358" type="line"/>
      <point x="348" y="350" type="line"/>
      <point x="404" y="350" type="line"/>
      <point x="412" y="358" type="line"/>
      <point x="412" y="391" type="line" smooth="yes"/>
      <point x="412" y="479"/>
      <point x="336" y="528"/>
      <point x="248" y="528" type="curve" smooth="yes"/>
      <point x="152" y="528"/>
      <point x="84" y="487"/>
      <point x="84" y="391" type="curve" smooth="yes"/>
      <point x="84" y="301"/>
      <point x="116" y="254"/>
      <point x="256" y="228" type="curve" smooth="yes"/>
      <point x="339" y="213"/>
      <point x="368" y="179"/>
      <point x="368" y="137" type="curve" smooth="yes"/>
      <point x="368" y="105"/>
      <point x="344" y="64"/>
      <point x="256" y="64" type="curve" smooth="yes"/>
      <point x="168" y="64"/>
      <point x="144" y="89"/>
      <point x="144" y="137" type="curve" smooth="yes"/>
      <point x="144" y="162" type="line"/>
      <point x="136" y="170" type="line"/>
      <point x="80" y="170" type="line"/>
      <point x="72" y="162" type="line"/>
      <point x="72" y="121" type="line" smooth="yes"/>
      <point x="72" y="32"/>
      <point x="144" y="-16"/>
    </contour>
  </outline>
</glyph>
<glyph name="t" format="2">
  <advance width="512"/>
  <unicode hex="0074"/>
  <outline>
    <contour>
      <point x="319" y="0" type="curve" smooth="yes"/>
      <point x="439" y="0" type="line"/>
      <point x="447" y="8" type="line"/>
      <point x="448" y="72" type="line"/>
      <point x="440" y="80" type="line"/>
      <point x="335" y="80" type="line" smooth="yes"/>
      <point x="288" y="80"/>
      <point x="274" y="105"/>
      <point x="274" y="181" type="curve" smooth="yes"/>
      <point x="274" y="424" type="line"/>
      <point x="282" y="432" type="line"/>
      <point x="440" y="432" type="line"/>
      <point x="448" y="440" type="line"/>
      <point x="448" y="504" type="line"/>
      <point x="440" y="512" type="line"/>
      <point x="282" y="512" type="line"/>
      <point x="274" y="520" type="line"/>
      <point x="274" y="664" type="line"/>
      <point x="266" y="672" type="line"/>
      <point x="210" y="672" type="line"/>
      <point x="202" y="664" type="line"/>
      <point x="202" y="520" type="line"/>
      <point x="194" y="512" type="line"/>
      <point x="40" y="512" type="line"/>
      <point x="32" y="504" type="line"/>
      <point x="32" y="440" type="line"/>
      <point x="40" y="432" type="line"/>
      <point x="194" y="432" type="line"/>
      <point x="202" y="424" type="line"/>
      <point x="202" y="149" type="line" smooth="yes"/>
      <point x="202" y="33"/>
      <point x="246" y="0"/>
    </contour>
  </outline>
</glyph>
<glyph name="u" format="2">
  <advance width="512"/>
  <unicode hex="0075"/>
  <outline>
    <contour>
      <point x="424" y="512" type="line"/>
      <point x="368" y="512" type="line"/>
      <point x="360" y="504" type="line"/>
      <point x="360" y="167" type="line" smooth="yes"/>
      <point x="360" y="91"/>
      <point x="306" y="64"/>
      <point x="250" y="64" type="curve" smooth="yes"/>
      <point x="194" y="64"/>
      <point x="152" y="91"/>
      <point x="152" y="167" type="curve" smooth="yes"/>
      <point x="152" y="504" type="line"/>
      <point x="144" y="512" type="line"/>
      <point x="88" y="512" type="line"/>
      <point x="80" y="504" type="line"/>
      <point x="80" y="151" type="line" smooth="yes"/>
      <point x="80" y="36"/>
      <point x="127" y="-16"/>
      <point x="220" y="-16" type="curve" smooth="yes"/>
      <point x="272" y="-16"/>
      <point x="322" y="8"/>
      <point x="352" y="64" type="curve"/>
      <point x="360" y="64" type="line"/>
      <point x="368" y="8" type="line"/>
      <point x="376" y="0" type="line"/>
      <point x="424" y="0" type="line"/>
      <point x="432" y="8" type="line"/>
      <point x="432" y="504" type="line"/>
    </contour>
  </outline>
</glyph>
<glyph name="v" format="2">
  <advance width="512"/>
  <unicode hex="0076"/>
  <outline>
    <contour>
      <point x="208" y="0" type="line"/>
      <point x="304" y="0" type="line"/>
      <point x="312" y="8" type="line"/>
      <point x="448" y="496" type="line"/>
      <point x="448" y="504" type="line"/>
      <point x="440" y="512" type="line"/>
      <point x="384" y="512" type="line"/>
      <point x="376" y="504" type="line"/>
      <point x="264" y="96" type="line"/>
      <point x="248" y="96" type="line"/>
      <point x="136" y="504" type="line"/>
      <point x="128" y="512" type="line"/>
      <point x="72" y="512" type="line"/>
      <point x="64" y="504" type="line"/>
      <point x="64" y="496" type="line"/>
      <point x="200" y="8" type="line"/>
    </contour>
  </outline>
</glyph>
<glyph name="w" format="2">
  <advance width="512"/>
  <unicode hex="0077"/>
  <anchor x="253" y="512" name="top"/>
  <outline>
    <contour>
      <point x="107" y="0" type="line"/>
      <point x="187" y="0" type="line"/>
      <point x="195" y="8" type="line"/>
      <point x="250" y="304" type="line"/>
      <point x="262" y="304" type="line"/>
      <point x="317" y="8" type="line"/>
      <point x="325" y="0" type="line"/>
      <point x="405" y="0" type="line"/>
      <point x="413" y="8" type="line"/>
      <point x="472" y="496" type="line"/>
      <point x="472" y="504" type="line"/>
      <point x="464" y="512" type="line"/>
      <point x="415" y="512" type="line"/>
      <point x="407" y="504" type="line"/>
      <point x="364" y="96" type="line"/>
      <point x="350" y="96" type="line"/>
      <point x="296" y="376" type="line"/>
      <point x="288" y="384" type="line"/>
      <point x="224" y="384" type="line"/>
      <point x="216" y="376" type="line"/>
      <point x="162" y="96" type="line"/>
      <point x="148" y="96" type="line"/>
      <point x="105" y="504" type="line"/>
      <point x="97" y="512" type="line"/>
      <point x="48" y="512" type="line"/>
      <point x="40" y="504" type="line"/>
      <point x="40" y="496" type="line"/>
      <point x="99" y="8" type="line"/>
    </contour>
  </outline>
</glyph>
<glyph name="x" format="2">
  <advance width="512"/>
  <unicode hex="0078"/>
  <outline>
    <contour>
      <point x="80" y="0" type="line"/>
      <point x="144" y="0" type="line"/>
      <point x="152" y="8" type="line"/>
      <point x="249" y="179" type="line"/>
      <point x="259" y="179" type="line"/>
      <point x="360" y="8" type="line"/>
      <point x="368" y="0" type="line"/>
      <point x="432" y="0" type="line"/>
      <point x="440" y="8" type="line"/>
      <point x="440" y="16" type="line"/>
      <point x="299" y="251" type="line"/>
      <point x="299" y="259" type="line"/>
      <point x="440" y="496" type="line"/>
      <point x="440" y="504" type="line"/>
      <point x="432" y="512" type="line"/>
      <point x="368" y="512" type="line"/>
      <point x="360" y="504" type="line"/>
      <point x="262" y="331" type="line"/>
      <point x="253" y="331" type="line"/>
      <point x="152" y="504" type="line"/>
      <point x="144" y="512" type="line"/>
      <point x="80" y="512" type="line"/>
      <point x="72" y="504" type="line"/>
      <point x="72" y="496" type="line"/>
      <point x="214" y="259" type="line"/>
      <point x="214" y="251" type="line"/>
      <point x="72" y="16" type="line"/>
      <point x="72" y="8" type="line"/>
    </contour>
  </outline>
</glyph>
<glyph name="y" format="2">
  <advance width="512"/>
  <unicode hex="0079"/>
  <anchor x="263" y="512" name="top"/>
  <outline>
    <contour>
      <point x="208" y="0" type="line"/>
      <point x="242" y="0" type="line"/>
      <point x="242" y="-8" type="line"/>
      <point x="226" y="-67" type="line" smooth="yes"/>
      <point x="213" y="-114"/>
      <point x="192" y="-128"/>
      <point x="153" y="-128" type="curve" smooth="yes"/>
      <point x="72" y="-128" type="line"/>
      <point x="64" y="-136" type="line"/>
      <point x="64" y="-200" type="line"/>
      <point x="72" y="-208" type="line"/>
      <point x="166" y="-208" type="line" smooth="yes"/>
      <point x="242" y="-208"/>
      <point x="260" y="-172"/>
      <point x="274" y="-124" type="curve" smooth="yes"/>
      <point x="448" y="496" type="line"/>
      <point x="448" y="504" type="line"/>
      <point x="440" y="512" type="line"/>
      <point x="384" y="512" type="line"/>
      <point x="376" y="504" type="line"/>
      <point x="264" y="80" type="line"/>
      <point x="248" y="80" type="line"/>
      <point x="136" y="504" type="line"/>
      <point x="128" y="512" type="line"/>
      <point x="72" y="512" type="line"/>
      <point x="64" y="504" type="line"/>
      <point x="64" y="496" type="line"/>
      <point x="200" y="8" type="line"/>
    </contour>
  </outline>
</glyph>
<glyph name="exclamdown" format="2">
  <advance width="512"/>
  <unicode hex="00A1"/>
  <outline>
    <contour>
      <point x="228" y="0" type="line"/>
      <point x="284" y="0" type="line"/>
      <point x="292" y="8" type="line"/>
      <point x="292" y="504" type="line"/>
      <point x="284" y="512" type="line"/>
      <point x="228" y="512" type="line"/>
      <point x="220" y="504" type="line"/>
      <point x="220" y="8" type="line"/>
    </contour>
    <contour>
      <point x="256" y="592" type="curve" smooth="yes"/>
      <point x="292" y="592"/>
      <point x="320" y="619"/>
      <point x="320" y="655" type="curve" smooth="yes"/>
      <point x="320" y="692"/>
      <point x="292" y="720"/>
      <point x="256" y="720" type="curve" smooth="yes"/>
      <point x="220" y="720"/>
      <point x="192" y="692"/>
      <point x="192" y="655" type="curve" smooth="yes"/>
      <point x="192" y="619"/>
      <point x="220" y="592"/>
    </contour>
  </outline>
</glyph>
<glyph name="cent" format="2">
  <advance width="512"/>
  <unicode hex="00A2"/>
  <outline>
    <contour>
      <point x="233" y="189" type="line"/>
      <point x="172" y="198"/>
      <point x="138" y="225"/>
      <point x="138" y="314" type="curve" smooth="yes"/>
      <point x="138" y="486" type="line" smooth="yes"/>
      <point x="138" y="577"/>
      <point x="172" y="604"/>
      <point x="233" y="612" type="curve"/>
    </contour>
    <contour>
      <point x="225" y="-16" type="line"/>
      <point x="291" y="-16" type="line"/>
      <point x="291" y="91" type="line"/>
      <point x="399" y="100.333"/>
      <point x="453" y="167"/>
      <point x="453" y="299" type="curve"/>
      <point x="385" y="299" type="line"/>
      <point x="385" y="204"/>
      <point x="342" y="192"/>
      <point x="283" y="188" type="curve"/>
      <point x="283" y="613" type="line"/>
      <point x="340" y="610"/>
      <point x="385" y="590"/>
      <point x="385" y="491" type="curve"/>
      <point x="453" y="491" type="line"/>
      <point x="445" y="626"/>
      <point x="396.333" y="699.667"/>
      <point x="291" y="709" type="curve"/>
      <point x="291" y="802" type="line"/>
      <point x="225" y="802" type="line"/>
      <point x="225" y="708" type="line"/>
      <point x="110.333" y="694.667"/>
      <point x="65" y="613"/>
      <point x="65" y="477" type="curve" smooth="yes"/>
      <point x="65" y="327" type="line" smooth="yes"/>
      <point x="65" y="187"/>
      <point x="109" y="105.333"/>
      <point x="225" y="92" type="curve"/>
    </contour>
  </outline>
</glyph>
<glyph name="brokenbar" format="2">
  <advance width="512"/>
  <unicode hex="00A6"/>
  <outline>
    <contour>
      <point x="253" y="368" type="line"/>
      <point x="332" y="368" type="line"/>
      <point x="332" y="768" type="line"/>
      <point x="253" y="768" type="line"/>
    </contour>
    <contour>
      <point x="253" y="-208" type="line"/>
      <point x="332" y="-208" type="line"/>
      <point x="332" y="192" type="line"/>
      <point x="253" y="192" type="line"/>
    </contour>
  </outline>
</glyph>
<glyph name="guillemetleft" format="2">
  <advance width="512"/>
  <unicode hex="00AB"/>
  <outline>
    <contour>
      <point x="478" y="112" type="line"/>
      <point x="478" y="194" type="line"/>
      <point x="318" y="349" type="line"/>
      <point x="478" y="504" type="line"/>
      <point x="478" y="586" type="line"/>
      <point x="277" y="391" type="line"/>
      <point x="277" y="307" type="line"/>
    </contour>
    <contour>
      <point x="245" y="112" type="line"/>
      <point x="245" y="194" type="line"/>
      <point x="85" y="349" type="line"/>
      <point x="245" y="504" type="line"/>
      <point x="245" y="586" type="line"/>
      <point x="44" y="391" type="line"/>
      <point x="44" y="307" type="line"/>
    </contour>
  </outline>
</glyph>
<glyph name="logicalnot" format="2">
  <advance width="600"/>
  <unicode hex="00AC"/>
  <outline>
    <contour>
      <point x="420" y="112" type="line"/>
      <point x="504" y="112" type="line"/>
      <point x="504" y="395" type="line"/>
      <point x="81" y="395" type="line"/>
      <point x="81" y="305" type="line"/>
      <point x="420" y="305" type="line"/>
    </contour>
  </outline>
</glyph>
<glyph name="macron" format="2">
  <advance width="512"/>
  <unicode hex="00AF"/>
  <outline>
    <contour>
      <point x="102" y="623" type="line"/>
      <point x="410" y="623" type="line"/>
      <point x="410" y="703" type="line"/>
      <point x="102" y="703" type="line"/>
    </contour>
  </outline>
</glyph>
<glyph name="threesuperior" format="2">
  <advance width="512"/>
  <unicode hex="00B3"/>
  <outline>
    <contour>
      <point x="252" y="432" type="curve"/>
      <point x="303" y="432"/>
      <point x="325" y="460"/>
      <point x="325" y="501" type="curve"/>
      <point x="325" y="545" type="line"/>
      <point x="325" y="573"/>
      <point x="294" y="572"/>
      <point x="294" y="583" type="curve" smooth="yes"/>
      <point x="294" y="587" type="line" smooth="yes"/>
      <point x="294" y="599"/>
      <point x="325" y="598"/>
      <point x="325" y="627" type="curve"/>
      <point x="325" y="651" type="line"/>
      <point x="325" y="692"/>
      <point x="303" y="720"/>
      <point x="252" y="720" type="curve"/>
      <point x="202" y="720"/>
      <point x="180" y="692"/>
      <point x="180" y="651" type="curve"/>
      <point x="180" y="629" type="line"/>
      <point x="183" y="626" type="line"/>
      <point x="206" y="626" type="line"/>
      <point x="209" y="629" type="line"/>
      <point x="209" y="638" type="line"/>
      <point x="209" y="673"/>
      <point x="221" y="689"/>
      <point x="252" y="689" type="curve"/>
      <point x="284" y="689"/>
      <point x="296" y="673"/>
      <point x="296" y="638" type="curve"/>
      <point x="296" y="627" type="line"/>
      <point x="296" y="611"/>
      <point x="285" y="602"/>
      <point x="262" y="602" type="curve"/>
      <point x="234" y="602" type="line"/>
      <point x="231" y="599" type="line"/>
      <point x="231" y="574" type="line"/>
      <point x="234" y="571" type="line"/>
      <point x="262" y="571" type="line"/>
      <point x="285" y="571"/>
      <point x="296" y="560"/>
      <point x="296" y="545" type="curve"/>
      <point x="296" y="514" type="line"/>
      <point x="296" y="479"/>
      <point x="284" y="463"/>
      <point x="252" y="463" type="curve"/>
      <point x="221" y="463"/>
      <point x="209" y="479"/>
      <point x="209" y="514" type="curve"/>
      <point x="209" y="520" type="line"/>
      <point x="206" y="523" type="line"/>
      <point x="183" y="523" type="line"/>
      <point x="180" y="520" type="line"/>
      <point x="180" y="501" type="line"/>
      <point x="180" y="460"/>
      <point x="202" y="432"/>
    </contour>
  </outline>
</glyph>
<glyph name="ordmasculine" format="2">
  <advance width="512"/>
  <unicode hex="00BA"/>
  <outline>
    <contour>
      <point x="239" y="416" type="curve" smooth="yes"/>
      <point x="215" y="416"/>
      <point x="191" y="425"/>
      <point x="191" y="463" type="curve" smooth="yes"/>
      <point x="191" y="512"/>
      <point x="217" y="527"/>
      <point x="261" y="527" type="curve" smooth="yes"/>
      <point x="298" y="527" type="line"/>
      <point x="303" y="522" type="line"/>
      <point x="303" y="448" type="line"/>
      <point x="284" y="423"/>
      <point x="261" y="416"/>
    </contour>
    <contour>
      <point x="234" y="364" type="curve" smooth="yes"/>
      <point x="263" y="364"/>
      <point x="319" y="379"/>
      <point x="337" y="402" type="curve"/>
      <point x="349" y="533" type="line"/>
      <point x="298" y="574" type="line"/>
      <point x="252" y="574" type="line" smooth="yes"/>
      <point x="188" y="574"/>
      <point x="143" y="547"/>
      <point x="143" y="463" type="curve" smooth="yes"/>
      <point x="143" y="396"/>
      <point x="187" y="364"/>
    </contour>
  </outline>
</glyph>
<glyph name="guillemetright" format="2">
  <advance width="512"/>
  <unicode hex="00BB"/>
  <outline>
    <contour>
      <point x="44" y="112" type="line"/>
      <point x="245" y="307" type="line"/>
      <point x="245" y="391" type="line"/>
      <point x="44" y="586" type="line"/>
      <point x="44" y="504" type="line"/>
      <point x="204" y="349" type="line"/>
      <point x="44" y="194" type="line"/>
    </contour>
    <contour>
      <point x="277" y="112" type="line"/>
      <point x="478" y="307" type="line"/>
      <point x="478" y="391" type="line"/>
      <point x="277" y="586" type="line"/>
      <point x="277" y="504" type="line"/>
      <point x="437" y="349" type="line"/>
      <point x="277" y="194" type="line"/>
    </contour>
  </outline>
</glyph>
<glyph name="onequarter" format="2">
  <advance width="512"/>
  <unicode hex="00BC"/>
  <outline>
    <contour>
      <point x="298" y="16" type="line"/>
      <point x="131" y="204" type="line"/>
      <point x="15" y="237" type="line"/>
      <point x="194" y="286" type="line"/>
      <point x="85" y="467" type="line"/>
      <point x="229" y="385" type="line"/>
      <point x="241" y="480" type="line"/>
      <point x="309" y="345" type="line"/>
      <point x="419" y="455" type="line"/>
      <point x="412" y="240" type="line"/>
      <point x="491" y="103" type="line"/>
      <point x="304" y="143" type="line"/>
    </contour>
  </outline>
</glyph>
<glyph name="multiply" format="2">
  <advance width="512"/>
  <unicode hex="00D7"/>
  <outline>
    <contour>
      <point x="165" y="226" type="line"/>
      <point x="177" y="226" type="line"/>
      <point x="256" y="305" type="line"/>
      <point x="335" y="226" type="line"/>
      <point x="347" y="226" type="line"/>
      <point x="386" y="265" type="line"/>
      <point x="386" y="277" type="line"/>
      <point x="307" y="356" type="line"/>
      <point x="386" y="435" type="line"/>
      <point x="386" y="447" type="line"/>
      <point x="347" y="486" type="line"/>
      <point x="335" y="486" type="line"/>
      <point x="256" y="407" type="line"/>
      <point x="177" y="486" type="line"/>
      <point x="165" y="486" type="line"/>
      <point x="126" y="447" type="line"/>
      <point x="126" y="435" type="line"/>
      <point x="205" y="356" type="line"/>
      <point x="126" y="277" type="line"/>
      <point x="126" y="265" type="line"/>
    </contour>
  </outline>
</glyph>
<glyph name="ae" format="2">
  <advance width="512"/>
  <unicode hex="00E6"/>
  <outline>
    <contour>
      <point x="98" y="64" type="curve" smooth="yes"/>
      <point x="62" y="64"/>
      <point x="88" y="77"/>
      <point x="88" y="136" type="curve" smooth="yes"/>
      <point x="88" y="210"/>
      <point x="40" y="249"/>
      <point x="131" y="249" type="curve" smooth="yes"/>
      <point x="204" y="249" type="line"/>
      <point x="212" y="241" type="line"/>
      <point x="212" y="136" type="line" smooth="yes"/>
      <point x="212" y="77"/>
      <point x="188" y="64"/>
    </contour>
    <contour>
      <point x="16" y="136" type="curve" smooth="yes"/>
      <point x="16" y="33"/>
      <point x="19" y="-16"/>
      <point x="90" y="-16" type="curve" smooth="yes"/>
      <point x="135" y="-16"/>
      <point x="185" y="7"/>
      <point x="212" y="42" type="curve"/>
      <point x="220" y="42" type="line"/>
      <point x="236" y="12"/>
      <point x="264" y="0"/>
      <point x="297" y="0" type="curve" smooth="yes"/>
      <point x="302" y="0" type="line"/>
      <point x="327" y="-11"/>
      <point x="356" y="-16"/>
      <point x="388" y="-16" type="curve" smooth="yes"/>
      <point x="492" y="-16"/>
      <point x="492" y="40"/>
      <point x="492" y="124" type="curve" smooth="yes"/>
      <point x="492" y="140" type="line"/>
      <point x="484" y="148" type="line"/>
      <point x="428" y="148" type="line"/>
      <point x="420" y="140" type="line"/>
      <point x="420" y="124" type="line" smooth="yes"/>
      <point x="420" y="84"/>
      <point x="447" y="64"/>
      <point x="389" y="64" type="curve" smooth="yes"/>
      <point x="318" y="64"/>
      <point x="284" y="96"/>
      <point x="284" y="190" type="curve" smooth="yes"/>
      <point x="284" y="216" type="line"/>
      <point x="292" y="224" type="line"/>
      <point x="492" y="224" type="line"/>
      <point x="500" y="232" type="line"/>
      <point x="500" y="352" type="line" smooth="yes"/>
      <point x="500" y="472"/>
      <point x="492" y="528"/>
      <point x="388" y="528" type="curve" smooth="yes"/>
      <point x="334" y="528"/>
      <point x="289" y="513"/>
      <point x="258" y="482" type="curve"/>
      <point x="237" y="512"/>
      <point x="199" y="528"/>
      <point x="136" y="528" type="curve" smooth="yes"/>
      <point x="45" y="528"/>
      <point x="43" y="487"/>
      <point x="43" y="396" type="curve" smooth="yes"/>
      <point x="43" y="380" type="line"/>
      <point x="51" y="372" type="line"/>
      <point x="107" y="372" type="line"/>
      <point x="115" y="380" type="line"/>
      <point x="115" y="396" type="line" smooth="yes"/>
      <point x="115" y="424"/>
      <point x="65" y="448"/>
      <point x="135" y="448" type="curve" smooth="yes"/>
      <point x="189" y="448"/>
      <point x="212" y="429"/>
      <point x="212" y="380" type="curve" smooth="yes"/>
      <point x="212" y="321" type="line"/>
      <point x="204" y="313" type="line"/>
      <point x="117" y="313" type="line" smooth="yes"/>
      <point x="12" y="313"/>
      <point x="16" y="264"/>
    </contour>
    <contour>
      <point x="284" y="304" type="line"/>
      <point x="284" y="320" type="line" smooth="yes"/>
      <point x="284" y="416"/>
      <point x="324" y="448"/>
      <point x="388" y="448" type="curve" smooth="yes"/>
      <point x="452" y="448"/>
      <point x="428" y="416"/>
      <point x="428" y="320" type="curve" smooth="yes"/>
      <point x="428" y="304" type="line"/>
      <point x="420" y="296" type="line"/>
      <point x="292" y="296" type="line"/>
    </contour>
  </outline>
</glyph>
<glyph name="Hbar" format="2">
  <advance width="512"/>
  <unicode hex="0126"/>
  <outline>
    <contour>
      <point x="88" y="0" type="line"/>
      <point x="145" y="0" type="line"/>
      <point x="153" y="8" type="line"/>
      <point x="153" y="343" type="line"/>
      <point x="161" y="351" type="line"/>
      <point x="351" y="351" type="line"/>
      <point x="359" y="343" type="line"/>
      <point x="359" y="8" type="line"/>
      <point x="367" y="0" type="line"/>
      <point x="424" y="0" type="line"/>
      <point x="432" y="8" type="line"/>
      <point x="432" y="560" type="line"/>
      <point x="472" y="560" type="line"/>
      <point x="480" y="568" type="line"/>
      <point x="480" y="632" type="line"/>
      <point x="472" y="640" type="line"/>
      <point x="432" y="640" type="line"/>
      <point x="432" y="696" type="line"/>
      <point x="424" y="704" type="line"/>
      <point x="367" y="704" type="line"/>
      <point x="359" y="696" type="line"/>
      <point x="359" y="640" type="line"/>
      <point x="153" y="640" type="line"/>
      <point x="153" y="696" type="line"/>
      <point x="145" y="704" type="line"/>
      <point x="88" y="704" type="line"/>
      <point x="80" y="696" type="line"/>
      <point x="80" y="640" type="line"/>
      <point x="40" y="640" type="line"/>
      <point x="32" y="632" type="line"/>
      <point x="32" y="568" type="line"/>
      <point x="40" y="560" type="line"/>
      <point x="80" y="560" type="line"/>
      <point x="80" y="8" type="line"/>
    </contour>
    <contour>
      <point x="153" y="439" type="line"/>
      <point x="153" y="560" type="line"/>
      <point x="359" y="560" type="line"/>
      <point x="359" y="439" type="line"/>
      <point x="351" y="431" type="line"/>
      <point x="161" y="431" type="line"/>
    </contour>
  </outline>
</glyph>
<glyph name="oe" format="2">
  <advance width="512"/>
  <unicode hex="0153"/>
  <outline>
    <contour>
      <point x="152" y="-16" type="curve" smooth="yes"/>
      <point x="212" y="-16"/>
      <point x="237" y="2"/>
      <point x="268" y="41" type="curve"/>
      <point x="299" y="3"/>
      <point x="316" y="-16"/>
      <point x="376" y="-16" type="curve" smooth="yes"/>
      <point x="480" y="-16"/>
      <point x="504" y="40"/>
      <point x="504" y="124" type="curve" smooth="yes"/>
      <point x="504" y="140" type="line"/>
      <point x="496" y="148" type="line"/>
      <point x="440" y="148" type="line"/>
      <point x="432" y="140" type="line"/>
      <point x="432" y="124" type="line" smooth="yes"/>
      <point x="432" y="84"/>
      <point x="435" y="64"/>
      <point x="377" y="64" type="curve" smooth="yes"/>
      <point x="306" y="64"/>
      <point x="304" y="96"/>
      <point x="304" y="190" type="curve" smooth="yes"/>
      <point x="304" y="216" type="line"/>
      <point x="312" y="224" type="line"/>
      <point x="504" y="224" type="line"/>
      <point x="512" y="232" type="line"/>
      <point x="512" y="352" type="line" smooth="yes"/>
      <point x="512" y="472"/>
      <point x="480" y="528"/>
      <point x="376" y="528" type="curve" smooth="yes"/>
      <point x="316" y="528"/>
      <point x="299" y="510"/>
      <point x="268" y="471" type="curve"/>
      <point x="237" y="510"/>
      <point x="212" y="528"/>
      <point x="152" y="528" type="curve" smooth="yes"/>
      <point x="48" y="528"/>
      <point x="0" y="472"/>
      <point x="0" y="352" type="curve" smooth="yes"/>
      <point x="0" y="160" type="line" smooth="yes"/>
      <point x="0" y="40"/>
      <point x="48" y="-16"/>
    </contour>
    <contour>
      <point x="72" y="192" type="curve" smooth="yes"/>
      <point x="72" y="320" type="line" smooth="yes"/>
      <point x="72" y="416"/>
      <point x="88" y="448"/>
      <point x="152" y="448" type="curve" smooth="yes"/>
      <point x="216" y="448"/>
      <point x="232" y="416"/>
      <point x="232" y="320" type="curve" smooth="yes"/>
      <point x="232" y="192" type="line" smooth="yes"/>
      <point x="232" y="96"/>
      <point x="216" y="64"/>
      <point x="152" y="64" type="curve" smooth="yes"/>
      <point x="88" y="64"/>
      <point x="72" y="96"/>
    </contour>
    <contour>
      <point x="304" y="304" type="line"/>
      <point x="304" y="320" type="line" smooth="yes"/>
      <point x="304" y="416"/>
      <point x="312" y="448"/>
      <point x="376" y="448" type="curve" smooth="yes"/>
      <point x="440" y="448"/>
      <point x="440" y="416"/>
      <point x="440" y="320" type="curve" smooth="yes"/>
      <point x="440" y="304" type="line"/>
      <point x="432" y="296" type="line"/>
      <point x="312" y="296" type="line"/>
    </contour>
  </outline>
</glyph>
<glyph name="acutecomb" format="2">
  <unicode hex="0301"/>
  <anchor x="256" y="512" name="_top"/>
  <anchor x="276" y="670" name="top"/>
  <outline>
    <contour>
      <point x="233" y="576" type="line"/>
      <point x="279" y="576" type="line"/>
      <point x="365" y="670" type="line"/>
      <point x="289" y="670" type="line"/>
    </contour>
  </outline>
</glyph>
<glyph name="circumflexcomb" format="2">
  <unicode hex="0302"/>
  <anchor x="256" y="512" name="_top"/>
  <anchor x="256" y="674" name="top"/>
  <outline>
    <contour>
      <point x="176" y="591" type="line"/>
      <point x="192" y="576" type="line"/>
      <point x="256" y="625" type="line"/>
      <point x="320" y="576" type="line"/>
      <point x="336" y="592" type="line"/>
      <point x="288" y="674" type="line"/>
      <point x="224" y="674" type="line"/>
    </contour>
  </outline>
</glyph>
<glyph name="hamza-ar" format="2">
  <advance width="512"/>
  <unicode hex="0621"/>
  <outline>
    <contour>
      <point x="149" y="164" type="line"/>
      <point x="363" y="164" type="line"/>
      <point x="376" y="178" type="line"/>
      <point x="376" y="229" type="line"/>
      <point x="363" y="243" type="line"/>
      <point x="273" y="243" type="line"/>
      <point x="259" y="256" type="line"/>
      <point x="259" y="283" type="line" smooth="yes"/>
      <point x="259" y="298"/>
      <point x="268" y="306"/>
      <point x="284" y="306" type="curve" smooth="yes"/>
      <point x="329" y="306" type="line"/>
      <point x="343" y="319" type="line"/>
      <point x="343" y="376" type="line"/>
      <point x="329" y="389" type="line"/>
      <point x="268" y="389" type="line" smooth="yes"/>
      <point x="203" y="389"/>
      <point x="186" y="354"/>
      <point x="186" y="296" type="curve" smooth="yes"/>
      <point x="186" y="256" type="line"/>
      <point x="173" y="243" type="line"/>
      <point x="149" y="243" type="line"/>
      <point x="136" y="229" type="line"/>
      <point x="136" y="178" type="line"/>
    </contour>
  </outline>
</glyph>
<glyph name="alef-ar" format="2">
  <advance width="512"/>
  <unicode hex="0627"/>
  <anchor x="256" y="0" name="bottom"/>
  <anchor x="256" y="704" name="top"/>
  <outline>
    <contour>
      <point x="228" y="0" type="line"/>
      <point x="284" y="0" type="line"/>
      <point x="292" y="8" type="line"/>
      <point x="292" y="696" type="line"/>
      <point x="284" y="704" type="line"/>
      <point x="228" y="704" type="line"/>
      <point x="220" y="696" type="line"/>
      <point x="220" y="8" type="line"/>
    </contour>
  </outline>
</glyph>
<glyph name="dal-ar" format="2">
  <advance width="512"/>
  <unicode hex="062F"/>
  <anchor x="321" y="336" name="top"/>
  <outline>
    <contour>
      <point x="72" y="0" type="line"/>
      <point x="440" y="0" type="line"/>
      <point x="448" y="8" type="line"/>
      <point x="448" y="208" type="line" smooth="yes"/>
      <point x="448" y="304"/>
      <point x="416" y="336"/>
      <point x="320" y="336" type="curve" smooth="yes"/>
      <point x="248" y="336" type="line"/>
      <point x="240" y="328" type="line"/>
      <point x="240" y="264" type="line"/>
      <point x="248" y="256" type="line"/>
      <point x="312" y="256" type="line" smooth="yes"/>
      <point x="360" y="256"/>
      <point x="376" y="240"/>
      <point x="376" y="192" type="curve" smooth="yes"/>
      <point x="376" y="80" type="line"/>
      <point x="72" y="80" type="line"/>
      <point x="64" y="72" type="line"/>
      <point x="64" y="8" type="line"/>
    </contour>
  </outline>
</glyph>
<glyph name="reh-ar" format="2">
  <advance width="512"/>
  <unicode hex="0631"/>
  <anchor x="340" y="304" name="top"/>
  <outline>
    <contour>
      <point x="88" y="-256" type="line"/>
      <point x="248" y="-256" type="line" smooth="yes"/>
      <point x="344" y="-256"/>
      <point x="376" y="-224"/>
      <point x="376" y="-128" type="curve" smooth="yes"/>
      <point x="376" y="296" type="line"/>
      <point x="368" y="304" type="line"/>
      <point x="312" y="304" type="line"/>
      <point x="304" y="296" type="line"/>
      <point x="304" y="-112" type="line" smooth="yes"/>
      <point x="304" y="-160"/>
      <point x="288" y="-176"/>
      <point x="240" y="-176" type="curve" smooth="yes"/>
      <point x="88" y="-176" type="line"/>
      <point x="80" y="-184" type="line"/>
      <point x="80" y="-248" type="line"/>
    </contour>
  </outline>
</glyph>
<glyph name="ain-ar" format="2">
  <advance width="512"/>
  <unicode hex="0639"/>
  <anchor x="358" y="336" name="top"/>
  <outline>
    <contour>
      <point x="128" y="-320" type="curve" smooth="yes"/>
      <point x="389" y="-320" type="line"/>
      <point x="397" y="-312" type="line"/>
      <point x="397" y="-248" type="line"/>
      <point x="389" y="-240" type="line"/>
      <point x="136" y="-240" type="line" smooth="yes"/>
      <point x="112" y="-240"/>
      <point x="104" y="-232"/>
      <point x="104" y="-208" type="curve" smooth="yes"/>
      <point x="104" y="-32" type="line" smooth="yes"/>
      <point x="104" y="-8"/>
      <point x="112" y="0"/>
      <point x="136" y="0" type="curve" smooth="yes"/>
      <point x="472" y="0" type="line"/>
      <point x="480" y="8" type="line"/>
      <point x="480" y="72" type="line"/>
      <point x="472" y="80" type="line"/>
      <point x="300" y="80" type="line"/>
      <point x="292" y="88" type="line"/>
      <point x="292" y="200" type="line" smooth="yes"/>
      <point x="292" y="240"/>
      <point x="308" y="256"/>
      <point x="340" y="256" type="curve" smooth="yes"/>
      <point x="440" y="256" type="line"/>
      <point x="448" y="264" type="line"/>
      <point x="448" y="328" type="line"/>
      <point x="440" y="336" type="line"/>
      <point x="324" y="336" type="line" smooth="yes"/>
      <point x="244" y="336"/>
      <point x="220" y="282"/>
      <point x="220" y="208" type="curve" smooth="yes"/>
      <point x="220" y="88" type="line"/>
      <point x="212" y="80" type="line"/>
      <point x="128" y="80" type="line" smooth="yes"/>
      <point x="64" y="80"/>
      <point x="32" y="48"/>
      <point x="32" y="-16" type="curve" smooth="yes"/>
      <point x="32" y="-224" type="line" smooth="yes"/>
      <point x="32" y="-288"/>
      <point x="64" y="-320"/>
    </contour>
  </outline>
</glyph>
<glyph name="kashida-ar" format="2">
  <advance width="512"/>
  <unicode hex="0640"/>
  <outline>
    <contour>
      <point x="40" y="0" type="line"/>
      <point x="472" y="0" type="line"/>
      <point x="480" y="8" type="line"/>
      <point x="480" y="71" type="line"/>
      <point x="472" y="80" type="line"/>
      <point x="40" y="80" type="line"/>
      <point x="32" y="72" type="line"/>
      <point x="32" y="8" type="line"/>
    </contour>
  </outline>
</glyph>
<glyph name="kaf-ar" format="2">
  <advance width="512"/>
  <unicode hex="0643"/>
  <outline>
    <contour>
      <point x="160" y="0" type="curve" smooth="yes"/>
      <point x="472" y="0" type="line"/>
      <point x="480" y="8" type="line"/>
      <point x="480" y="696" type="line"/>
      <point x="472" y="704" type="line"/>
      <point x="416" y="704" type="line"/>
      <point x="408" y="696" type="line"/>
      <point x="408" y="88" type="line"/>
      <point x="400" y="80" type="line"/>
      <point x="168" y="80" type="line" smooth="yes"/>
      <point x="120" y="80"/>
      <point x="104" y="96"/>
      <point x="104" y="144" type="curve" smooth="yes"/>
      <point x="104" y="248" type="line"/>
      <point x="96" y="256" type="line"/>
      <point x="40" y="256" type="line"/>
      <point x="32" y="248" type="line"/>
      <point x="32" y="128" type="line" smooth="yes"/>
      <point x="32" y="32"/>
      <point x="64" y="0"/>
    </contour>
    <contour>
      <point x="200" y="152" type="line"/>
      <point x="312" y="152" type="line"/>
      <point x="320" y="160" type="line"/>
      <point x="320" y="200" type="line"/>
      <point x="312" y="208" type="line"/>
      <point x="274" y="208" type="line"/>
      <point x="266" y="216" type="line"/>
      <point x="266" y="232" type="line" smooth="yes"/>
      <point x="266" y="248"/>
      <point x="274" y="256"/>
      <point x="290" y="256" type="curve" smooth="yes"/>
      <point x="306" y="256" type="line"/>
      <point x="314" y="264" type="line"/>
      <point x="314" y="304" type="line"/>
      <point x="306" y="312" type="line"/>
      <point x="286" y="312" type="line" smooth="yes"/>
      <point x="238" y="312"/>
      <point x="222" y="296"/>
      <point x="222" y="248" type="curve" smooth="yes"/>
      <point x="222" y="216" type="line"/>
      <point x="214" y="208" type="line"/>
      <point x="200" y="208" type="line"/>
      <point x="192" y="200" type="line"/>
      <point x="192" y="160" type="line"/>
    </contour>
  </outline>
</glyph>
<glyph name="heh-ar" format="2">
  <advance width="512"/>
  <unicode hex="0647"/>
  <anchor x="256" y="0" name="bottom"/>
  <anchor x="256" y="384" name="top"/>
  <outline>
    <contour>
      <point x="440" y="128" type="curve" smooth="yes"/>
      <point x="440" y="256" type="line" smooth="yes"/>
      <point x="440" y="344"/>
      <point x="400" y="384"/>
      <point x="312" y="384" type="curve" smooth="yes"/>
      <point x="200" y="384" type="line" smooth="yes"/>
      <point x="112" y="384"/>
      <point x="72" y="344"/>
      <point x="72" y="256" type="curve" smooth="yes"/>
      <point x="72" y="128" type="line" smooth="yes"/>
      <point x="72" y="40"/>
      <point x="112" y="0"/>
      <point x="200" y="0" type="curve" smooth="yes"/>
      <point x="312" y="0" type="line" smooth="yes"/>
      <point x="400" y="0"/>
      <point x="440" y="40"/>
    </contour>
    <contour>
      <point x="144" y="144" type="curve" smooth="yes"/>
      <point x="144" y="240" type="line" smooth="yes"/>
      <point x="144" y="288"/>
      <point x="160" y="304"/>
      <point x="208" y="304" type="curve" smooth="yes"/>
      <point x="304" y="304" type="line" smooth="yes"/>
      <point x="352" y="304"/>
      <point x="368" y="288"/>
      <point x="368" y="240" type="curve" smooth="yes"/>
      <point x="368" y="144" type="line" smooth="yes"/>
      <point x="368" y="96"/>
      <point x="352" y="80"/>
      <point x="304" y="80" type="curve" smooth="yes"/>
      <point x="208" y="80" type="line" smooth="yes"/>
      <point x="160" y="80"/>
      <point x="144" y="96"/>
    </contour>
  </outline>
</glyph>
<glyph name="waw-ar" format="2">
  <advance width="512"/>
  <unicode hex="0648"/>
  <anchor x="336" y="336" name="top"/>
  <outline>
    <contour>
      <point x="160" y="-256" type="line" smooth="yes"/>
      <point x="64" y="-256"/>
      <point x="32" y="-224"/>
      <point x="32" y="-128" type="curve" smooth="yes"/>
      <point x="32" y="-72" type="line"/>
      <point x="40" y="-64" type="line"/>
      <point x="96" y="-64" type="line"/>
      <point x="104" y="-72" type="line"/>
      <point x="104" y="-112" type="line" smooth="yes"/>
      <point x="104" y="-160"/>
      <point x="120" y="-176"/>
      <point x="168" y="-176" type="curve" smooth="yes"/>
      <point x="344" y="-176" type="line" smooth="yes"/>
      <point x="392" y="-176"/>
      <point x="408" y="-160"/>
      <point x="408" y="-112" type="curve" smooth="yes"/>
      <point x="408" y="-8" type="line"/>
      <point x="400" y="0" type="line"/>
      <point x="264" y="0" type="line" smooth="yes"/>
      <point x="216" y="0"/>
      <point x="192" y="24"/>
      <point x="192" y="72" type="curve" smooth="yes"/>
      <point x="192" y="264" type="line" smooth="yes"/>
      <point x="192" y="312"/>
      <point x="216" y="336"/>
      <point x="264" y="336" type="curve" smooth="yes"/>
      <point x="408" y="336" type="line" smooth="yes"/>
      <point x="456" y="336"/>
      <point x="480" y="312"/>
      <point x="480" y="264" type="curve" smooth="yes"/>
      <point x="480" y="-128" type="line" smooth="yes"/>
      <point x="480" y="-224"/>
      <point x="448" y="-256"/>
      <point x="352" y="-256" type="curve" smooth="yes"/>
    </contour>
    <contour>
      <point x="288" y="80" type="curve" smooth="yes"/>
      <point x="400" y="80" type="line"/>
      <point x="408" y="88" type="line"/>
      <point x="408" y="232" type="line" smooth="yes"/>
      <point x="408" y="248"/>
      <point x="400" y="256"/>
      <point x="384" y="256" type="curve" smooth="yes"/>
      <point x="288" y="256" type="line" smooth="yes"/>
      <point x="272" y="256"/>
      <point x="264" y="248"/>
      <point x="264" y="232" type="curve" smooth="yes"/>
      <point x="264" y="104" type="line" smooth="yes"/>
      <point x="264" y="88"/>
      <point x="272" y="80"/>
    </contour>
  </outline>
</glyph>
<glyph name="alefMaksura-ar" format="2">
  <advance width="512"/>
  <unicode hex="0649"/>
  <anchor x="276" y="-158" name="bottom"/>
  <anchor x="69" y="-15" name="top"/>
  <outline>
    <contour>
      <point x="112" y="-192" type="curve" smooth="yes"/>
      <point x="400" y="-192" type="line" smooth="yes"/>
      <point x="464" y="-192"/>
      <point x="480" y="-152"/>
      <point x="480" y="-96" type="curve" smooth="yes"/>
      <point x="480" y="-16" type="line" smooth="yes"/>
      <point x="480" y="40"/>
      <point x="464" y="80"/>
      <point x="400" y="80" type="curve" smooth="yes"/>
      <point x="288" y="80" type="line" smooth="yes"/>
      <point x="256" y="80"/>
      <point x="248" y="88"/>
      <point x="248" y="120" type="curve" smooth="yes"/>
      <point x="248" y="128" type="line" smooth="yes"/>
      <point x="248" y="160"/>
      <point x="256" y="168"/>
      <point x="288" y="168" type="curve" smooth="yes"/>
      <point x="400" y="168" type="line"/>
      <point x="408" y="176" type="line"/>
      <point x="408" y="240" type="line"/>
      <point x="400" y="248" type="line"/>
      <point x="256" y="248" type="line" smooth="yes"/>
      <point x="192" y="248"/>
      <point x="176" y="208"/>
      <point x="176" y="152" type="curve" smooth="yes"/>
      <point x="176" y="96" type="line" smooth="yes"/>
      <point x="176" y="40"/>
      <point x="192" y="0"/>
      <point x="256" y="0" type="curve" smooth="yes"/>
      <point x="368" y="0" type="line" smooth="yes"/>
      <point x="400" y="0"/>
      <point x="408" y="-8"/>
      <point x="408" y="-40" type="curve" smooth="yes"/>
      <point x="408" y="-72" type="line" smooth="yes"/>
      <point x="408" y="-104"/>
      <point x="400" y="-112"/>
      <point x="368" y="-112" type="curve" smooth="yes"/>
      <point x="144" y="-112" type="line" smooth="yes"/>
      <point x="112" y="-112"/>
      <point x="104" y="-104"/>
      <point x="104" y="-72" type="curve" smooth="yes"/>
      <point x="104" y="-24" type="line"/>
      <point x="96" y="-16" type="line"/>
      <point x="40" y="-16" type="line"/>
      <point x="32" y="-24" type="line"/>
      <point x="32" y="-96" type="line" smooth="yes"/>
      <point x="32" y="-152"/>
      <point x="48" y="-192"/>
    </contour>
  </outline>
</glyph>
<glyph name="madda-ar" format="2">
  <unicode hex="0653"/>
  <anchor x="272" y="512" name="_top"/>
  <anchor x="281" y="720" name="top"/>
  <outline>
    <contour>
      <point x="193" y="561" type="line"/>
      <point x="217" y="588" type="line"/>
      <point x="354" y="590" type="line"/>
      <point x="354" y="630" type="line"/>
      <point x="181" y="628" type="line"/>
      <point x="158" y="561" type="line"/>
    </contour>
  </outline>
</glyph>
<glyph name="hamzaabove-ar" format="2">
  <unicode hex="0654"/>
  <anchor x="256" y="704" name="_top"/>
  <outline>
    <contour>
      <point x="168" y="768" type="line"/>
      <point x="344" y="768" type="line"/>
      <point x="352" y="776" type="line"/>
      <point x="352" y="824" type="line"/>
      <point x="344" y="832" type="line"/>
      <point x="274" y="832" type="line"/>
      <point x="266" y="840" type="line"/>
      <point x="266" y="856" type="line" smooth="yes"/>
      <point x="266" y="872"/>
      <point x="274" y="880"/>
      <point x="290" y="880" type="curve" smooth="yes"/>
      <point x="306" y="880" type="line"/>
      <point x="314" y="888" type="line"/>
      <point x="314" y="936" type="line"/>
      <point x="306" y="944" type="line"/>
      <point x="278" y="944" type="line" smooth="yes"/>
      <point x="230" y="944"/>
      <point x="214" y="928"/>
      <point x="214" y="880" type="curve" smooth="yes"/>
      <point x="214" y="840" type="line"/>
      <point x="206" y="832" type="line"/>
      <point x="168" y="832" type="line"/>
      <point x="160" y="824" type="line"/>
      <point x="160" y="776" type="line"/>
    </contour>
  </outline>
</glyph>
<glyph name="hamzabelow-ar" format="2">
  <unicode hex="0655"/>
  <anchor x="256" y="0" name="_bottom"/>
  <outline>
    <contour>
      <point x="168" y="-240" type="line"/>
      <point x="344" y="-240" type="line"/>
      <point x="352" y="-232" type="line"/>
      <point x="352" y="-184" type="line"/>
      <point x="344" y="-176" type="line"/>
      <point x="274" y="-176" type="line"/>
      <point x="266" y="-168" type="line"/>
      <point x="266" y="-152" type="line" smooth="yes"/>
      <point x="266" y="-136"/>
      <point x="274" y="-128"/>
      <point x="290" y="-128" type="curve" smooth="yes"/>
      <point x="306" y="-128" type="line"/>
      <point x="314" y="-120" type="line"/>
      <point x="314" y="-72" type="line"/>
      <point x="306" y="-64" type="line"/>
      <point x="278" y="-64" type="line" smooth="yes"/>
      <point x="230" y="-64"/>
      <point x="214" y="-80"/>
      <point x="214" y="-128" type="curve" smooth="yes"/>
      <point x="214" y="-168" type="line"/>
      <point x="206" y="-176" type="line"/>
      <point x="168" y="-176" type="line"/>
      <point x="160" y="-184" type="line"/>
      <point x="160" y="-232" type="line"/>
    </contour>
  </outline>
</glyph>
<glyph name="behDotless-ar" format="2">
  <advance width="512"/>
  <unicode hex="066E"/>
  <anchor x="256" y="0" name="bottom"/>
  <anchor x="256" y="336" name="top"/>
  <outline>
    <contour>
      <point x="160" y="0" type="curve" smooth="yes"/>
      <point x="352" y="0" type="line" smooth="yes"/>
      <point x="448" y="0"/>
      <point x="480" y="32"/>
      <point x="480" y="128" type="curve" smooth="yes"/>
      <point x="480" y="328" type="line"/>
      <point x="472" y="336" type="line"/>
      <point x="416" y="336" type="line"/>
      <point x="408" y="328" type="line"/>
      <point x="408" y="144" type="line" smooth="yes"/>
      <point x="408" y="96"/>
      <point x="392" y="80"/>
      <point x="344" y="80" type="curve" smooth="yes"/>
      <point x="168" y="80" type="line" smooth="yes"/>
      <point x="120" y="80"/>
      <point x="104" y="96"/>
      <point x="104" y="144" type="curve" smooth="yes"/>
      <point x="104" y="328" type="line"/>
      <point x="96" y="336" type="line"/>
      <point x="40" y="336" type="line"/>
      <point x="32" y="328" type="line"/>
      <point x="32" y="128" type="line" smooth="yes"/>
      <point x="32" y="32"/>
      <point x="64" y="0"/>
    </contour>
  </outline>
</glyph>
<glyph name="qafDotless-ar" format="2">
  <advance width="512"/>
  <unicode hex="066F"/>
  <anchor x="352" y="272" name="top"/>
  <outline>
    <contour>
      <point x="160" y="-208" type="curve" smooth="yes"/>
      <point x="408" y="-208" type="line" smooth="yes"/>
      <point x="456" y="-208"/>
      <point x="480" y="-184"/>
      <point x="480" y="-136" type="curve" smooth="yes"/>
      <point x="480" y="200" type="line" smooth="yes"/>
      <point x="480" y="248"/>
      <point x="456" y="272"/>
      <point x="408" y="272" type="curve" smooth="yes"/>
      <point x="296" y="272" type="line" smooth="yes"/>
      <point x="248" y="272"/>
      <point x="224" y="248"/>
      <point x="224" y="200" type="curve" smooth="yes"/>
      <point x="224" y="72" type="line" smooth="yes"/>
      <point x="224" y="24"/>
      <point x="248" y="0"/>
      <point x="296" y="0" type="curve" smooth="yes"/>
      <point x="400" y="0" type="line"/>
      <point x="408" y="-8" type="line"/>
      <point x="408" y="-104" type="line" smooth="yes"/>
      <point x="408" y="-120"/>
      <point x="400" y="-128"/>
      <point x="384" y="-128" type="curve" smooth="yes"/>
      <point x="168" y="-128" type="line" smooth="yes"/>
      <point x="120" y="-128"/>
      <point x="104" y="-112"/>
      <point x="104" y="-64" type="curve" smooth="yes"/>
      <point x="104" y="-8" type="line"/>
      <point x="96" y="0" type="line"/>
      <point x="40" y="0" type="line"/>
      <point x="32" y="-8" type="line"/>
      <point x="32" y="-80" type="line" smooth="yes"/>
      <point x="32" y="-176"/>
      <point x="64" y="-208"/>
    </contour>
    <contour>
      <point x="296" y="104" type="curve" smooth="yes"/>
      <point x="296" y="168" type="line" smooth="yes"/>
      <point x="296" y="184"/>
      <point x="304" y="192"/>
      <point x="320" y="192" type="curve" smooth="yes"/>
      <point x="384" y="192" type="line" smooth="yes"/>
      <point x="400" y="192"/>
      <point x="408" y="184"/>
      <point x="408" y="168" type="curve" smooth="yes"/>
      <point x="408" y="88" type="line"/>
      <point x="400" y="80" type="line"/>
      <point x="320" y="80" type="line" smooth="yes"/>
      <point x="304" y="80"/>
      <point x="296" y="88"/>
    </contour>
  </outline>
</glyph>
<glyph name="emdash" format="2">
  <advance width="512"/>
  <unicode hex="2014"/>
  <outline>
    <contour>
      <point x="25" y="225" type="line"/>
      <point x="488" y="225" type="line"/>
      <point x="496" y="233" type="line"/>
      <point x="496" y="297" type="line"/>
      <point x="488" y="305" type="line"/>
      <point x="24" y="305" type="line"/>
      <point x="16" y="297" type="line"/>
      <point x="17" y="233" type="line"/>
    </contour>
  </outline>
</glyph>
<glyph name="quotedblleft" format="2">
  <advance width="512"/>
  <unicode hex="201C"/>
  <outline>
    <contour>
      <point x="140" y="512" type="line"/>
      <point x="219" y="512" type="line"/>
      <point x="219" y="704" type="line"/>
      <point x="140" y="704" type="line"/>
    </contour>
    <contour>
      <point x="293" y="512" type="line"/>
      <point x="372" y="512" type="line"/>
      <point x="372" y="704" type="line"/>
      <point x="293" y="704" type="line"/>
    </contour>
  </outline>
</glyph>
<glyph name="quotedblbase" format="2">
  <advance width="512"/>
  <unicode hex="201E"/>
  <outline>
    <contour>
      <point x="284" y="-208" type="line"/>
      <point x="340" y="-208" type="line"/>
      <point x="348" y="-200" type="line"/>
      <point x="348" y="144" type="line"/>
      <point x="340" y="152" type="line"/>
      <point x="284" y="152" type="line"/>
      <point x="276" y="144" type="line"/>
      <point x="276" y="-200" type="line"/>
    </contour>
    <contour>
      <point x="172" y="-208" type="line"/>
      <point x="228" y="-208" type="line"/>
      <point x="236" y="-200" type="line"/>
      <point x="236" y="144" type="line"/>
      <point x="228" y="152" type="line"/>
      <point x="172" y="152" type="line"/>
      <point x="164" y="144" type="line"/>
      <point x="164" y="-200" type="line"/>
    </contour>
  </outline>
</glyph>
<glyph name="foursuperior" format="2">
  <advance width="272"/>
  <unicode hex="2074"/>
  <outline>
    <contour>
      <point x="103" y="554" type="line"/>
      <point x="100" y="558" type="line"/>
      <point x="148" y="672" type="line"/>
      <point x="151" y="672" type="line"/>
      <point x="151" y="558" type="line"/>
      <point x="148" y="554" type="line"/>
    </contour>
    <contour>
      <point x="154" y="448" type="line"/>
      <point x="174" y="448" type="line"/>
      <point x="177" y="451" type="line"/>
      <point x="177" y="522" type="line"/>
      <point x="180" y="525" type="line"/>
      <point x="197" y="525" type="line"/>
      <point x="200" y="528" type="line"/>
      <point x="200" y="551" type="line"/>
      <point x="197" y="554" type="line"/>
      <point x="180" y="554" type="line"/>
      <point x="177" y="558" type="line"/>
      <point x="177" y="701" type="line"/>
      <point x="174" y="704" type="line"/>
      <point x="141" y="704" type="line"/>
      <point x="138" y="701" type="line"/>
      <point x="73" y="554" type="line"/>
      <point x="73" y="528" type="line"/>
      <point x="75" y="525" type="line"/>
      <point x="148" y="525" type="line"/>
      <point x="151" y="522" type="line"/>
      <point x="151" y="451" type="line"/>
    </contour>
  </outline>
</glyph>
<glyph name="euro" format="2">
  <advance width="512"/>
  <unicode hex="20AC"/>
  <outline>
    <contour>
      <point x="55" y="-15" type="line"/>
      <point x="134" y="53"/>
      <point x="159" y="57"/>
      <point x="170" y="58" type="curve" smooth="yes"/>
      <point x="217" y="59"/>
      <point x="299" y="-16"/>
      <point x="346" y="-16" type="curve" smooth="yes"/>
      <point x="430" y="-16"/>
      <point x="485" y="36"/>
      <point x="492" y="177" type="curve"/>
      <point x="427" y="177" type="line"/>
      <point x="423" y="111"/>
      <point x="404" y="51"/>
      <point x="344" y="51" type="curve" smooth="yes"/>
      <point x="307" y="51"/>
      <point x="258" y="110"/>
      <point x="227" y="110" type="curve" smooth="yes"/>
      <point x="214" y="110"/>
      <point x="193" y="118"/>
      <point x="181" y="108" type="curve"/>
      <point x="166" y="121" type="line"/>
      <point x="211" y="166"/>
      <point x="240" y="195"/>
      <point x="240" y="254" type="curve" smooth="yes"/>
      <point x="240" y="293"/>
      <point x="227" y="347"/>
      <point x="220" y="374" type="curve"/>
      <point x="342" y="374" type="line"/>
      <point x="342" y="446" type="line"/>
      <point x="188" y="446" type="line"/>
      <point x="175" y="481"/>
      <point x="154" y="517"/>
      <point x="154" y="569" type="curve" smooth="yes"/>
      <point x="154" y="652"/>
      <point x="205" y="690"/>
      <point x="266" y="690" type="curve" smooth="yes"/>
      <point x="345" y="690"/>
      <point x="376" y="705"/>
      <point x="376" y="597" type="curve"/>
      <point x="448" y="597" type="line"/>
      <point x="448" y="744"/>
      <point x="396" y="786"/>
      <point x="265" y="786" type="curve" smooth="yes"/>
      <point x="146" y="786"/>
      <point x="79" y="695"/>
      <point x="79" y="571" type="curve" smooth="yes"/>
      <point x="79" y="516"/>
      <point x="88" y="478"/>
      <point x="100" y="446" type="curve"/>
      <point x="34" y="446" type="line"/>
      <point x="34" y="374" type="line"/>
      <point x="137" y="374" type="line"/>
      <point x="146" y="346"/>
      <point x="163" y="291"/>
      <point x="163" y="246" type="curve" smooth="yes"/>
      <point x="163" y="178"/>
      <point x="126" y="126"/>
      <point x="89" y="99" type="curve" smooth="yes"/>
      <point x="24" y="52" type="line"/>
    </contour>
  </outline>
</glyph>
<glyph name="minus" format="2">
  <advance width="512"/>
  <unicode hex="2212"/>
  <outline>
    <contour>
      <point x="108" y="320" type="line"/>
      <point x="404" y="320" type="line"/>
      <point x="412" y="328" type="line"/>
      <point x="412" y="384" type="line"/>
      <point x="404" y="392" type="line"/>
      <point x="108" y="392" type="line"/>
      <point x="100" y="384" type="line"/>
      <point x="100" y="328" type="line"/>
    </contour>
  </outline>
</glyph>
<glyph name="allah-ar" format="2">
  <advance width="512"/>
  <unicode hex="FDF2"/>
  <outline>
    <contour>
      <point x="152" y="0" type="curve" smooth="yes"/>
      <point x="164" y="0" type="line" smooth="yes"/>
      <point x="196" y="0"/>
      <point x="228" y="16"/>
      <point x="236" y="32" type="curve"/>
      <point x="252" y="32" type="line"/>
      <point x="260" y="16"/>
      <point x="276" y="0"/>
      <point x="324" y="0" type="curve" smooth="yes"/>
      <point x="328" y="0" type="line" smooth="yes"/>
      <point x="424" y="0"/>
      <point x="440" y="32"/>
      <point x="440" y="128" type="curve" smooth="yes"/>
      <point x="440" y="600" type="line"/>
      <point x="432" y="608" type="line"/>
      <point x="384" y="608" type="line"/>
      <point x="376" y="600" type="line"/>
      <point x="376" y="144" type="line" smooth="yes"/>
      <point x="376" y="96"/>
      <point x="368" y="80"/>
      <point x="320" y="80" type="curve" smooth="yes"/>
      <point x="280" y="80"/>
      <point x="272" y="88"/>
      <point x="272" y="112" type="curve" smooth="yes"/>
      <point x="272" y="504" type="line"/>
      <point x="264" y="512" type="line"/>
      <point x="224" y="512" type="line"/>
      <point x="216" y="504" type="line"/>
      <point x="216" y="112" type="line" smooth="yes"/>
      <point x="216" y="88"/>
      <point x="192" y="80"/>
      <point x="168" y="80" type="curve" smooth="yes"/>
      <point x="136" y="80"/>
      <point x="112" y="88"/>
      <point x="112" y="120" type="curve" smooth="yes"/>
      <point x="112" y="408" type="line"/>
      <point x="104" y="416" type="line"/>
      <point x="64" y="416" type="line"/>
      <point x="56" y="408" type="line"/>
      <point x="56" y="376" type="line"/>
      <point x="48" y="368" type="line"/>
      <point x="24" y="368" type="line" smooth="yes"/>
      <point x="-56" y="368"/>
      <point x="-88" y="320"/>
      <point x="-88" y="240" type="curve" smooth="yes"/>
      <point x="-88" y="96" type="line" smooth="yes"/>
      <point x="-88" y="32"/>
      <point x="-80" y="0"/>
      <point x="-8" y="0" type="curve" smooth="yes"/>
      <point x="53" y="0" type="line"/>
      <point x="61" y="8" type="line"/>
      <point x="61" y="27" type="line"/>
      <point x="69" y="27" type="line"/>
      <point x="81" y="10"/>
      <point x="96" y="0"/>
    </contour>
    <contour>
      <point x="-32" y="112" type="curve" smooth="yes"/>
      <point x="-32" y="240" type="line" smooth="yes"/>
      <point x="-32" y="288"/>
      <point x="-16" y="304"/>
      <point x="32" y="304" type="curve" smooth="yes"/>
      <point x="48" y="304" type="line"/>
      <point x="56" y="296" type="line"/>
      <point x="56" y="88" type="line"/>
      <point x="48" y="80" type="line"/>
      <point x="0" y="80" type="line" smooth="yes"/>
      <point x="-24" y="80"/>
      <point x="-32" y="88"/>
    </contour>
    <contour>
      <point x="552" y="0" type="line"/>
      <point x="608" y="0" type="line"/>
      <point x="616" y="8" type="line"/>
      <point x="616" y="728" type="line"/>
      <point x="608" y="736" type="line"/>
      <point x="552" y="736" type="line"/>
      <point x="544" y="728" type="line"/>
      <point x="544" y="8" type="line"/>
    </contour>
    <contour>
      <point x="202" y="611" type="curve" smooth="yes"/>
      <point x="216" y="611"/>
      <point x="231" y="618"/>
      <point x="241" y="628" type="curve"/>
      <point x="250" y="618"/>
      <point x="265" y="611"/>
      <point x="280" y="611" type="curve" smooth="yes"/>
      <point x="321" y="611"/>
      <point x="334" y="644"/>
      <point x="334" y="676" type="curve" smooth="yes"/>
      <point x="334" y="682"/>
      <point x="330" y="687"/>
      <point x="323" y="687" type="curve" smooth="yes"/>
      <point x="307" y="687" type="line" smooth="yes"/>
      <point x="300" y="687"/>
      <point x="296" y="682"/>
      <point x="296" y="676" type="curve" smooth="yes"/>
      <point x="296" y="658"/>
      <point x="298" y="647"/>
      <point x="280" y="647" type="curve" smooth="yes"/>
      <point x="262" y="647"/>
      <point x="264" y="658"/>
      <point x="264" y="676" type="curve" smooth="yes"/>
      <point x="264" y="682"/>
      <point x="260" y="687"/>
      <point x="253" y="687" type="curve" smooth="yes"/>
      <point x="229" y="687" type="line" smooth="yes"/>
      <point x="222" y="687"/>
      <point x="218" y="682"/>
      <point x="218" y="676" type="curve" smooth="yes"/>
      <point x="218" y="658"/>
      <point x="220" y="647"/>
      <point x="202" y="647" type="curve" smooth="yes"/>
      <point x="184" y="647"/>
      <point x="186" y="658"/>
      <point x="186" y="676" type="curve" smooth="yes"/>
      <point x="186" y="682"/>
      <point x="182" y="687"/>
      <point x="175" y="687" type="curve" smooth="yes"/>
      <point x="159" y="687" type="line" smooth="yes"/>
      <point x="152" y="687"/>
      <point x="148" y="682"/>
      <point x="148" y="676" type="curve" smooth="yes"/>
      <point x="148" y="644"/>
      <point x="160" y="611"/>
    </contour>
    <contour>
      <point x="256" y="744" type="line"/>
      <point x="264" y="888" type="line"/>
      <point x="256" y="896" type="line"/>
      <point x="232" y="896" type="line"/>
      <point x="224" y="888" type="line"/>
      <point x="232" y="744" type="line"/>
      <point x="240" y="736" type="line"/>
      <point x="248" y="736" type="line"/>
    </contour>
  </outline>
</glyph>
<glyph name="kaf-ar.init" format="2">
  <advance width="512"/>
  <unicode hex="FEDB"/>
  <outline>
    <contour>
      <point x="40" y="0" type="line"/>
      <point x="336" y="0" type="line" smooth="yes"/>
      <point x="408" y="0"/>
      <point x="432" y="32"/>
      <point x="432" y="96" type="curve" smooth="yes"/>
      <point x="432" y="184" type="line" smooth="yes"/>
      <point x="432" y="280"/>
      <point x="400" y="312"/>
      <point x="304" y="312" type="curve" smooth="yes"/>
      <point x="184" y="312" type="line" smooth="yes"/>
      <point x="160" y="312"/>
      <point x="152" y="320"/>
      <point x="152" y="344" type="curve" smooth="yes"/>
      <point x="152" y="368" type="line" smooth="yes"/>
      <point x="152" y="416"/>
      <point x="168" y="432"/>
      <point x="216" y="432" type="curve" smooth="yes"/>
      <point x="312" y="432" type="line"/>
      <point x="320" y="440" type="line"/>
      <point x="320" y="504" type="line"/>
      <point x="312" y="512" type="line"/>
      <point x="208" y="512" type="line" smooth="yes"/>
      <point x="112" y="512"/>
      <point x="80" y="480"/>
      <point x="80" y="384" type="curve" smooth="yes"/>
      <point x="80" y="328" type="line" smooth="yes"/>
      <point x="80" y="264"/>
      <point x="104" y="232"/>
      <point x="176" y="232" type="curve" smooth="yes"/>
      <point x="296" y="232" type="line" smooth="yes"/>
      <point x="344" y="232"/>
      <point x="360" y="216"/>
      <point x="360" y="168" type="curve" smooth="yes"/>
      <point x="360" y="112" type="line" smooth="yes"/>
      <point x="360" y="88"/>
      <point x="352" y="80"/>
      <point x="328" y="80" type="curve" smooth="yes"/>
      <point x="40" y="80" type="line"/>
      <point x="32" y="72" type="line"/>
      <point x="32" y="8" type="line"/>
    </contour>
  </outline>
</glyph>
<glyph name="kaf-ar.medi" format="2">
  <advance width="512"/>
  <unicode hex="FEDC"/>
  <outline>
    <contour>
      <point x="40" y="0" type="line"/>
      <point x="328" y="0" type="line" smooth="yes"/>
      <point x="360" y="0"/>
      <point x="380" y="16"/>
      <point x="388" y="32" type="curve"/>
      <point x="404" y="32" type="line"/>
      <point x="412" y="16"/>
      <point x="432" y="0"/>
      <point x="464" y="0" type="curve" smooth="yes"/>
      <point x="472" y="0" type="line"/>
      <point x="480" y="8" type="line"/>
      <point x="480" y="72" type="line"/>
      <point x="472" y="80" type="line"/>
      <point x="464" y="80" type="line" smooth="yes"/>
      <point x="440" y="80"/>
      <point x="432" y="88"/>
      <point x="432" y="112" type="curve" smooth="yes"/>
      <point x="432" y="184" type="line" smooth="yes"/>
      <point x="432" y="280"/>
      <point x="400" y="312"/>
      <point x="304" y="312" type="curve" smooth="yes"/>
      <point x="184" y="312" type="line" smooth="yes"/>
      <point x="160" y="312"/>
      <point x="152" y="320"/>
      <point x="152" y="344" type="curve" smooth="yes"/>
      <point x="152" y="368" type="line" smooth="yes"/>
      <point x="152" y="416"/>
      <point x="168" y="432"/>
      <point x="216" y="432" type="curve" smooth="yes"/>
      <point x="304" y="432" type="line"/>
      <point x="312" y="440" type="line"/>
      <point x="312" y="504" type="line"/>
      <point x="304" y="512" type="line"/>
      <point x="208" y="512" type="line" smooth="yes"/>
      <point x="112" y="512"/>
      <point x="80" y="480"/>
      <point x="80" y="384" type="curve" smooth="yes"/>
      <point x="80" y="328" type="line" smooth="yes"/>
      <point x="80" y="264"/>
      <point x="104" y="232"/>
      <point x="176" y="232" type="curve" smooth="yes"/>
      <point x="296" y="232" type="line" smooth="yes"/>
      <point x="344" y="232"/>
      <point x="360" y="216"/>
      <point x="360" y="168" type="curve" smooth="yes"/>
      <point x="360" y="112" type="line" smooth="yes"/>
      <point x="360" y="88"/>
      <point x="352" y="80"/>
      <point x="328" y="80" type="curve" smooth="yes"/>
      <point x="40" y="80" type="line"/>
      <point x="32" y="72" type="line"/>
      <point x="32" y="8" type="line"/>
    </contour>
  </outline>
</glyph>
<glyph name="ain-ar.fina" format="2">
  <advance width="512"/>
  <anchor x="256" y="336" name="top"/>
  <outline>
    <contour>
      <point x="72" y="-168" type="curve" smooth="yes"/>
      <point x="72" y="-109"/>
      <point x="111" y="-83"/>
      <point x="210" y="18" type="curve" smooth="yes"/>
      <point x="252" y="61" type="line"/>
      <point x="260" y="61" type="line"/>
      <point x="302" y="18" type="line" smooth="yes"/>
      <point x="316" y="4"/>
      <point x="324" y="0"/>
      <point x="344" y="0" type="curve" smooth="yes"/>
      <point x="472" y="0" type="line"/>
      <point x="480" y="8" type="line"/>
      <point x="480" y="72" type="line"/>
      <point x="472" y="80" type="line"/>
      <point x="368" y="80" type="line" smooth="yes"/>
      <point x="347" y="80"/>
      <point x="337" y="80"/>
      <point x="324" y="93" type="curve" smooth="yes"/>
      <point x="308" y="109" type="line"/>
      <point x="308" y="117" type="line"/>
      <point x="441" y="252" type="line"/>
      <point x="445" y="260" type="line"/>
      <point x="445" y="328" type="line"/>
      <point x="437" y="336" type="line"/>
      <point x="75" y="336" type="line"/>
      <point x="67" y="328" type="line"/>
      <point x="67" y="260" type="line"/>
      <point x="71" y="252" type="line"/>
      <point x="204" y="117" type="line"/>
      <point x="204" y="109" type="line"/>
      <point x="188" y="93" type="line" smooth="yes"/>
      <point x="35" y="-60"/>
      <point x="0" y="-96"/>
      <point x="0" y="-176" type="curve" smooth="yes"/>
      <point x="0" y="-250"/>
      <point x="24" y="-304"/>
      <point x="104" y="-304" type="curve" smooth="yes"/>
      <point x="404" y="-304" type="line"/>
      <point x="412" y="-296" type="line"/>
      <point x="412" y="-232" type="line"/>
      <point x="404" y="-224" type="line"/>
      <point x="120" y="-224" type="line" smooth="yes"/>
      <point x="88" y="-224"/>
      <point x="72" y="-208"/>
    </contour>
    <contour>
      <point x="252" y="166" type="line"/>
      <point x="163" y="256" type="line"/>
      <point x="167" y="264" type="line"/>
      <point x="345" y="264" type="line"/>
      <point x="349" y="256" type="line"/>
      <point x="260" y="166" type="line"/>
    </contour>
  </outline>
</glyph>
<glyph name="ain-ar.init" format="2">
  <advance width="512"/>
  <anchor x="334" y="384" name="top"/>
  <outline>
    <contour>
      <point x="40" y="0" type="line"/>
      <point x="472" y="0" type="line"/>
      <point x="480" y="8" type="line"/>
      <point x="480" y="72" type="line"/>
      <point x="472" y="80" type="line"/>
      <point x="276" y="80" type="line"/>
      <point x="268" y="88" type="line"/>
      <point x="268" y="240" type="line" smooth="yes"/>
      <point x="268" y="288"/>
      <point x="284" y="304"/>
      <point x="332" y="304" type="curve" smooth="yes"/>
      <point x="440" y="304" type="line"/>
      <point x="448" y="312" type="line"/>
      <point x="448" y="376" type="line"/>
      <point x="440" y="384" type="line"/>
      <point x="324" y="384" type="line" smooth="yes"/>
      <point x="228" y="384"/>
      <point x="196" y="346"/>
      <point x="196" y="256" type="curve" smooth="yes"/>
      <point x="196" y="88" type="line"/>
      <point x="188" y="80" type="line"/>
      <point x="40" y="80" type="line"/>
      <point x="32" y="72" type="line"/>
      <point x="32" y="8" type="line"/>
    </contour>
  </outline>
</glyph>
<glyph name="ain-ar.medi" format="2">
  <advance width="512"/>
  <anchor x="256" y="336" name="top"/>
  <outline>
    <contour>
      <point x="40" y="0" type="line"/>
      <point x="168" y="0" type="line" smooth="yes"/>
      <point x="188" y="0"/>
      <point x="196" y="4"/>
      <point x="210" y="18" type="curve" smooth="yes"/>
      <point x="252" y="61" type="line"/>
      <point x="260" y="61" type="line"/>
      <point x="302" y="18" type="line" smooth="yes"/>
      <point x="316" y="4"/>
      <point x="324" y="0"/>
      <point x="344" y="0" type="curve" smooth="yes"/>
      <point x="472" y="0" type="line"/>
      <point x="480" y="8" type="line"/>
      <point x="480" y="72" type="line"/>
      <point x="472" y="80" type="line"/>
      <point x="368" y="80" type="line" smooth="yes"/>
      <point x="347" y="80"/>
      <point x="337" y="80"/>
      <point x="324" y="93" type="curve" smooth="yes"/>
      <point x="308" y="109" type="line"/>
      <point x="308" y="117" type="line"/>
      <point x="441" y="252" type="line"/>
      <point x="445" y="260" type="line"/>
      <point x="445" y="328" type="line"/>
      <point x="437" y="336" type="line"/>
      <point x="75" y="336" type="line"/>
      <point x="67" y="328" type="line"/>
      <point x="67" y="260" type="line"/>
      <point x="71" y="252" type="line"/>
      <point x="204" y="117" type="line"/>
      <point x="204" y="109" type="line"/>
      <point x="188" y="93" type="line" smooth="yes"/>
      <point x="175" y="80"/>
      <point x="166" y="80"/>
      <point x="147" y="80" type="curve" smooth="yes"/>
      <point x="40" y="80" type="line"/>
      <point x="32" y="72" type="line"/>
      <point x="32" y="8" type="line"/>
    </contour>
    <contour>
      <point x="252" y="166" type="line"/>
      <point x="163" y="256" type="line"/>
      <point x="167" y="264" type="line"/>
      <point x="345" y="264" type="line"/>
      <point x="349" y="256" type="line"/>
      <point x="260" y="166" type="line"/>
    </contour>
  </outline>
</glyph>
<glyph name="alef-ar.fina" format="2">
  <advance width="512"/>
  <anchor x="224" y="0" name="bottom"/>
  <anchor x="132" y="704" name="top"/>
  <outline>
    <contour>
      <point x="224" y="0" type="curve" smooth="yes"/>
      <point x="472" y="0" type="line"/>
      <point x="480" y="8" type="line"/>
      <point x="480" y="72" type="line"/>
      <point x="472" y="80" type="line"/>
      <point x="232" y="80" type="line" smooth="yes"/>
      <point x="184" y="80"/>
      <point x="168" y="96"/>
      <point x="168" y="144" type="curve" smooth="yes"/>
      <point x="168" y="696" type="line"/>
      <point x="160" y="704" type="line"/>
      <point x="104" y="704" type="line"/>
      <point x="96" y="696" type="line"/>
      <point x="96" y="128" type="line" smooth="yes"/>
      <point x="96" y="32"/>
      <point x="128" y="0"/>
    </contour>
  </outline>
</glyph>
<glyph name="alefMaksura-ar.fina" format="2">
  <advance width="512"/>
  <anchor x="232" y="-256" name="bottom"/>
  <anchor x="68" y="0" name="top"/>
  <outline>
    <contour>
      <point x="320" y="0" type="line"/>
      <point x="472" y="0" type="line"/>
      <point x="480" y="8" type="line"/>
      <point x="480" y="71" type="line"/>
      <point x="472" y="80" type="line"/>
      <point x="320" y="80" type="line"/>
      <point x="312" y="72" type="line"/>
      <point x="312" y="8" type="line"/>
    </contour>
    <contour>
      <point x="160" y="-256" type="curve" smooth="yes"/>
      <point x="304" y="-256" type="line" smooth="yes"/>
      <point x="400" y="-256"/>
      <point x="432" y="-224"/>
      <point x="432" y="-128" type="curve" smooth="yes"/>
      <point x="432" y="-8" type="line"/>
      <point x="440" y="0" type="line"/>
      <point x="352" y="0" type="line"/>
      <point x="360" y="-8" type="line"/>
      <point x="360" y="-112" type="line" smooth="yes"/>
      <point x="360" y="-160"/>
      <point x="344" y="-176"/>
      <point x="296" y="-176" type="curve" smooth="yes"/>
      <point x="168" y="-176" type="line" smooth="yes"/>
      <point x="120" y="-176"/>
      <point x="104" y="-160"/>
      <point x="104" y="-112" type="curve" smooth="yes"/>
      <point x="104" y="-8" type="line"/>
      <point x="96" y="0" type="line"/>
      <point x="40" y="0" type="line"/>
      <point x="32" y="-8" type="line"/>
      <point x="32" y="-128" type="line" smooth="yes"/>
      <point x="32" y="-224"/>
      <point x="64" y="-256"/>
    </contour>
  </outline>
</glyph>
<glyph name="behDotless-ar.fina" format="2">
  <advance width="512"/>
  <anchor x="256" y="0" name="bottom"/>
  <anchor x="232" y="384" name="top"/>
  <outline>
    <contour>
      <point x="160" y="0" type="curve" smooth="yes"/>
      <point x="312" y="0" type="line" smooth="yes"/>
      <point x="344" y="0"/>
      <point x="368" y="16"/>
      <point x="376" y="32" type="curve"/>
      <point x="392" y="32" type="line"/>
      <point x="400" y="16"/>
      <point x="424" y="0"/>
      <point x="456" y="0" type="curve" smooth="yes"/>
      <point x="472" y="0" type="line"/>
      <point x="480" y="8" type="line"/>
      <point x="480" y="72" type="line"/>
      <point x="472" y="80" type="line"/>
      <point x="452" y="80" type="line" smooth="yes"/>
      <point x="428" y="80"/>
      <point x="420" y="88"/>
      <point x="420" y="112" type="curve" smooth="yes"/>
      <point x="420" y="376" type="line"/>
      <point x="412" y="384" type="line"/>
      <point x="356" y="384" type="line"/>
      <point x="348" y="376" type="line"/>
      <point x="348" y="112" type="line" smooth="yes"/>
      <point x="348" y="88"/>
      <point x="340" y="80"/>
      <point x="316" y="80" type="curve" smooth="yes"/>
      <point x="168" y="80" type="line" smooth="yes"/>
      <point x="120" y="80"/>
      <point x="104" y="96"/>
      <point x="104" y="144" type="curve" smooth="yes"/>
      <point x="104" y="376" type="line"/>
      <point x="96" y="384" type="line"/>
      <point x="40" y="384" type="line"/>
      <point x="32" y="376" type="line"/>
      <point x="32" y="128" type="line" smooth="yes"/>
      <point x="32" y="32"/>
      <point x="64" y="0"/>
    </contour>
  </outline>
</glyph>
<glyph name="behDotless-ar.init" format="2">
  <advance width="512"/>
  <anchor x="312" y="0" name="bottom"/>
  <anchor x="412" y="336" name="top"/>
  <outline>
    <contour>
      <point x="40" y="0" type="line"/>
      <point x="320" y="0" type="line" smooth="yes"/>
      <point x="416" y="0"/>
      <point x="448" y="32"/>
      <point x="448" y="128" type="curve" smooth="yes"/>
      <point x="448" y="328" type="line"/>
      <point x="440" y="336" type="line"/>
      <point x="384" y="336" type="line"/>
      <point x="376" y="328" type="line"/>
      <point x="376" y="144" type="line" smooth="yes"/>
      <point x="376" y="96"/>
      <point x="360" y="80"/>
      <point x="312" y="80" type="curve" smooth="yes"/>
      <point x="40" y="80" type="line"/>
      <point x="32" y="72" type="line"/>
      <point x="32" y="8" type="line"/>
    </contour>
  </outline>
</glyph>
<glyph name="brevecomb.case" format="2">
  <anchor x="256" y="704" name="_top"/>
  <anchor x="256" y="904" name="top"/>
  <outline>
    <contour>
      <point x="256" y="760" type="curve" smooth="yes"/>
      <point x="336" y="760"/>
      <point x="371" y="792"/>
      <point x="371" y="872" type="curve" smooth="yes"/>
      <point x="371" y="896" type="line"/>
      <point x="363" y="904" type="line"/>
      <point x="327" y="904" type="line"/>
      <point x="319" y="896" type="line"/>
      <point x="319" y="872" type="line" smooth="yes"/>
      <point x="319" y="832"/>
      <point x="296" y="816"/>
      <point x="256" y="816" type="curve" smooth="yes"/>
      <point x="216" y="816"/>
      <point x="193" y="832"/>
      <point x="193" y="872" type="curve" smooth="yes"/>
      <point x="193" y="896" type="line"/>
      <point x="185" y="904" type="line"/>
      <point x="149" y="904" type="line"/>
      <point x="141" y="896" type="line"/>
      <point x="141" y="872" type="line" smooth="yes"/>
      <point x="141" y="792"/>
      <point x="176" y="760"/>
    </contour>
  </outline>
</glyph>
<glyph name="caroncomb.case" format="2">
  <anchor x="256" y="700" name="_top"/>
  <anchor x="256" y="904" name="top"/>
  <outline>
    <contour>
      <point x="216" y="768" type="line"/>
      <point x="296" y="768" type="line"/>
      <point x="304" y="776" type="line"/>
      <point x="384" y="904" type="line"/>
      <point x="384" y="912" type="line"/>
      <point x="376" y="920" type="line"/>
      <point x="352" y="920" type="line"/>
      <point x="336" y="912" type="line"/>
      <point x="264" y="832" type="line"/>
      <point x="248" y="832" type="line"/>
      <point x="176" y="912" type="line"/>
      <point x="160" y="920" type="line"/>
      <point x="136" y="920" type="line"/>
      <point x="128" y="912" type="line"/>
      <point x="128" y="904" type="line"/>
      <point x="208" y="776" type="line"/>
    </contour>
  </outline>
</glyph>
<glyph name="dal-ar.fina" format="2">
  <advance width="512"/>
  <anchor x="257" y="336" name="top"/>
  <outline>
    <contour>
      <point x="472" y="0" type="line"/>
      <point x="480" y="8" type="line"/>
      <point x="480" y="72" type="line"/>
      <point x="472" y="80" type="line"/>
      <point x="344" y="80" type="line"/>
      <point x="344" y="208" type="line" smooth="yes"/>
      <point x="344" y="304"/>
      <point x="312" y="336"/>
      <point x="216" y="336" type="curve" smooth="yes"/>
      <point x="176" y="336" type="line"/>
      <point x="168" y="328" type="line"/>
      <point x="168" y="264" type="line"/>
      <point x="176" y="256" type="line"/>
      <point x="208" y="256" type="line" smooth="yes"/>
      <point x="256" y="256"/>
      <point x="272" y="240"/>
      <point x="272" y="192" type="curve" smooth="yes"/>
      <point x="272" y="80" type="line"/>
      <point x="72" y="80" type="line"/>
      <point x="64" y="72" type="line"/>
      <point x="64" y="8" type="line"/>
      <point x="72" y="0" type="line"/>
    </contour>
  </outline>
</glyph>
<glyph name="dotabove-ar" format="2">
  <anchor x="256" y="512" name="_top"/>
  <outline>
    <contour>
      <point x="256" y="608" type="curve" smooth="yes"/>
      <point x="287" y="608"/>
      <point x="312" y="633"/>
      <point x="312" y="664" type="curve" smooth="yes"/>
      <point x="312" y="695"/>
      <point x="287" y="720"/>
      <point x="256" y="720" type="curve" smooth="yes"/>
      <point x="225" y="720"/>
      <point x="200" y="695"/>
      <point x="200" y="664" type="curve" smooth="yes"/>
      <point x="200" y="633"/>
      <point x="225" y="608"/>
    </contour>
  </outline>
</glyph>
<glyph name="dotbelow-ar" format="2">
  <anchor x="256" y="0" name="_bottom"/>
  <outline>
    <contour>
      <point x="256" y="-208" type="curve" smooth="yes"/>
      <point x="287" y="-208"/>
      <point x="312" y="-183"/>
      <point x="312" y="-152" type="curve" smooth="yes"/>
      <point x="312" y="-121"/>
      <point x="287" y="-96"/>
      <point x="256" y="-96" type="curve" smooth="yes"/>
      <point x="225" y="-96"/>
      <point x="200" y="-121"/>
      <point x="200" y="-152" type="curve" smooth="yes"/>
      <point x="200" y="-183"/>
      <point x="225" y="-208"/>
    </contour>
  </outline>
</glyph>
<glyph name="fehDotless-ar.init" format="2">
  <advance width="512"/>
  <anchor x="296" y="408" name="top"/>
  <outline>
    <contour>
      <point x="40" y="0" type="line"/>
      <point x="336" y="0" type="line" smooth="yes"/>
      <point x="408" y="0"/>
      <point x="432" y="32"/>
      <point x="432" y="96" type="curve" smooth="yes"/>
      <point x="432" y="280" type="line" smooth="yes"/>
      <point x="432" y="360"/>
      <point x="384" y="408"/>
      <point x="304" y="408" type="curve" smooth="yes"/>
      <point x="288" y="408" type="line" smooth="yes"/>
      <point x="208" y="408"/>
      <point x="160" y="360"/>
      <point x="160" y="280" type="curve" smooth="yes"/>
      <point x="160" y="256" type="line" smooth="yes"/>
      <point x="160" y="184"/>
      <point x="184" y="160"/>
      <point x="256" y="160" type="curve" smooth="yes"/>
      <point x="352" y="160" type="line"/>
      <point x="360" y="152" type="line"/>
      <point x="360" y="112" type="line" smooth="yes"/>
      <point x="360" y="88"/>
      <point x="352" y="80"/>
      <point x="328" y="80" type="curve" smooth="yes"/>
      <point x="40" y="80" type="line"/>
      <point x="32" y="72" type="line"/>
      <point x="32" y="8" type="line"/>
    </contour>
    <contour>
      <point x="264" y="232" type="line" smooth="yes"/>
      <point x="240" y="232"/>
      <point x="232" y="240"/>
      <point x="232" y="264" type="curve" smooth="yes"/>
      <point x="232" y="272" type="line" smooth="yes"/>
      <point x="232" y="312"/>
      <point x="248" y="328"/>
      <point x="288" y="328" type="curve" smooth="yes"/>
      <point x="304" y="328" type="line" smooth="yes"/>
      <point x="344" y="328"/>
      <point x="360" y="312"/>
      <point x="360" y="272" type="curve" smooth="yes"/>
      <point x="360" y="240" type="line"/>
      <point x="352" y="232" type="line"/>
    </contour>
  </outline>
</glyph>
<glyph name="gravecomb.case" format="2">
  <anchor x="256" y="704" name="_top"/>
  <anchor x="212" y="862" name="top"/>
  <outline>
    <contour>
      <point x="283" y="768" type="line"/>
      <point x="291" y="776" type="line"/>
      <point x="243" y="912" type="line"/>
      <point x="235" y="920" type="line"/>
      <point x="159" y="920" type="line"/>
      <point x="151" y="912" type="line"/>
      <point x="151" y="904" type="line"/>
      <point x="221" y="776" type="line"/>
      <point x="229" y="768" type="line"/>
    </contour>
  </outline>
</glyph>
<glyph name="hah-ar.medi" format="2">
  <advance width="512"/>
  <anchor x="256" y="0" name="bottom"/>
  <anchor x="256" y="384" name="top"/>
  <outline>
    <contour>
      <point x="40" y="0" type="line"/>
      <point x="472" y="0" type="line"/>
      <point x="480" y="8" type="line"/>
      <point x="480" y="71" type="line"/>
      <point x="472" y="80" type="line"/>
      <point x="432" y="80" type="line"/>
      <point x="432" y="256" type="line" smooth="yes"/>
      <point x="432" y="352"/>
      <point x="400" y="384"/>
      <point x="304" y="384" type="curve" smooth="yes"/>
      <point x="88" y="384" type="line"/>
      <point x="80" y="376" type="line"/>
      <point x="80" y="312" type="line"/>
      <point x="88" y="304" type="line"/>
      <point x="296" y="304" type="line" smooth="yes"/>
      <point x="344" y="304"/>
      <point x="360" y="288"/>
      <point x="360" y="240" type="curve" smooth="yes"/>
      <point x="360" y="88" type="line"/>
      <point x="352" y="80" type="line"/>
      <point x="40" y="80" type="line"/>
      <point x="32" y="72" type="line"/>
      <point x="32" y="8" type="line"/>
    </contour>
  </outline>
</glyph>
<glyph name="heh-ar.fina" format="2">
  <advance width="512"/>
  <anchor x="234" y="336" name="top"/>
  <outline>
    <contour>
      <point x="472" y="0" type="line"/>
      <point x="480" y="8" type="line"/>
      <point x="480" y="72" type="line"/>
      <point x="472" y="80" type="line"/>
      <point x="384" y="80" type="line" smooth="yes"/>
      <point x="352" y="80"/>
      <point x="344" y="88"/>
      <point x="344" y="120" type="curve" smooth="yes"/>
      <point x="344" y="376" type="line"/>
      <point x="336" y="384" type="line"/>
      <point x="280" y="384" type="line"/>
      <point x="272" y="376" type="line"/>
      <point x="272" y="344" type="line"/>
      <point x="264" y="336" type="line"/>
      <point x="208" y="336" type="line" smooth="yes"/>
      <point x="128" y="336"/>
      <point x="80" y="288"/>
      <point x="80" y="208" type="curve" smooth="yes"/>
      <point x="80" y="96" type="line" smooth="yes"/>
      <point x="80" y="32"/>
      <point x="104" y="0"/>
      <point x="176" y="0" type="curve" smooth="yes"/>
      <point x="269" y="0" type="line"/>
      <point x="277" y="8" type="line"/>
      <point x="277" y="51" type="line"/>
      <point x="285" y="51" type="line"/>
      <point x="289" y="10"/>
      <point x="312" y="0"/>
      <point x="336" y="0" type="curve" smooth="yes"/>
    </contour>
    <contour>
      <point x="152" y="112" type="curve" smooth="yes"/>
      <point x="152" y="192" type="line" smooth="yes"/>
      <point x="152" y="240"/>
      <point x="168" y="256"/>
      <point x="216" y="256" type="curve" smooth="yes"/>
      <point x="264" y="256" type="line"/>
      <point x="272" y="248" type="line"/>
      <point x="272" y="88" type="line"/>
      <point x="264" y="80" type="line"/>
      <point x="184" y="80" type="line" smooth="yes"/>
      <point x="160" y="80"/>
      <point x="152" y="88"/>
    </contour>
  </outline>
</glyph>
<glyph name="heh-ar.init" format="2">
  <advance width="512"/>
  <anchor x="276" y="416" name="top"/>
  <outline>
    <contour>
      <point x="304" y="96" type="curve" smooth="yes"/>
      <point x="304" y="136" type="line"/>
      <point x="312" y="144" type="line"/>
      <point x="384" y="144" type="line" smooth="yes"/>
      <point x="448" y="144"/>
      <point x="480" y="176"/>
      <point x="480" y="240" type="curve" smooth="yes"/>
      <point x="480" y="320" type="line" smooth="yes"/>
      <point x="480" y="384"/>
      <point x="448" y="416"/>
      <point x="384" y="416" type="curve" smooth="yes"/>
      <point x="168" y="416" type="line" smooth="yes"/>
      <point x="104" y="416"/>
      <point x="72" y="384"/>
      <point x="72" y="320" type="curve" smooth="yes"/>
      <point x="72" y="240" type="line" smooth="yes"/>
      <point x="72" y="176"/>
      <point x="104" y="144"/>
      <point x="168" y="144" type="curve" smooth="yes"/>
      <point x="240" y="144" type="line"/>
      <point x="248" y="136" type="line"/>
      <point x="248" y="120" type="line" smooth="yes"/>
      <point x="248" y="88"/>
      <point x="240" y="80"/>
      <point x="208" y="80" type="curve" smooth="yes"/>
      <point x="32" y="80" type="line"/>
      <point x="24" y="72" type="line"/>
      <point x="24" y="8" type="line"/>
      <point x="32" y="0" type="line"/>
      <point x="224" y="0" type="line" smooth="yes"/>
      <point x="288" y="0"/>
      <point x="304" y="40"/>
    </contour>
    <contour>
      <point x="136" y="256" type="curve" smooth="yes"/>
      <point x="136" y="304" type="line" smooth="yes"/>
      <point x="136" y="328"/>
      <point x="144" y="336"/>
      <point x="168" y="336" type="curve" smooth="yes"/>
      <point x="240" y="336" type="line"/>
      <point x="248" y="328" type="line"/>
      <point x="248" y="232" type="line"/>
      <point x="240" y="224" type="line"/>
      <point x="168" y="224" type="line" smooth="yes"/>
      <point x="144" y="224"/>
      <point x="136" y="232"/>
    </contour>
    <contour>
      <point x="304" y="232" type="line"/>
      <point x="304" y="328" type="line"/>
      <point x="312" y="336" type="line"/>
      <point x="384" y="336" type="line" smooth="yes"/>
      <point x="408" y="336"/>
      <point x="416" y="328"/>
      <point x="416" y="304" type="curve" smooth="yes"/>
      <point x="416" y="256" type="line" smooth="yes"/>
      <point x="416" y="232"/>
      <point x="408" y="224"/>
      <point x="384" y="224" type="curve" smooth="yes"/>
      <point x="312" y="224" type="line"/>
    </contour>
  </outline>
</glyph>
<glyph name="heh-ar.medi" format="2">
  <advance width="512"/>
  <outline>
    <contour>
      <point x="208" y="-288" type="curve" smooth="yes"/>
      <point x="272" y="-288" type="line" smooth="yes"/>
      <point x="368" y="-288"/>
      <point x="400" y="-256"/>
      <point x="400" y="-160" type="curve" smooth="yes"/>
      <point x="400" y="-64" type="line" smooth="yes"/>
      <point x="400" y="-40"/>
      <point x="384" y="-16"/>
      <point x="368" y="-8" type="curve"/>
      <point x="368" y="0" type="line"/>
      <point x="472" y="0" type="line"/>
      <point x="480" y="8" type="line"/>
      <point x="480" y="72" type="line"/>
      <point x="472" y="80" type="line"/>
      <point x="336" y="80" type="line"/>
      <point x="336" y="88" type="line"/>
      <point x="352" y="96"/>
      <point x="368" y="120"/>
      <point x="368" y="144" type="curve" smooth="yes"/>
      <point x="368" y="256" type="line" smooth="yes"/>
      <point x="368" y="352"/>
      <point x="336" y="384"/>
      <point x="240" y="384" type="curve" smooth="yes"/>
      <point x="208" y="384" type="line" smooth="yes"/>
      <point x="144" y="384"/>
      <point x="112" y="352"/>
      <point x="112" y="288" type="curve" smooth="yes"/>
      <point x="112" y="88" type="line"/>
      <point x="104" y="80" type="line"/>
      <point x="40" y="80" type="line"/>
      <point x="32" y="72" type="line"/>
      <point x="32" y="8" type="line"/>
      <point x="40" y="0" type="line"/>
      <point x="104" y="0" type="line"/>
      <point x="112" y="-8" type="line"/>
      <point x="112" y="-192" type="line" smooth="yes"/>
      <point x="112" y="-256"/>
      <point x="144" y="-288"/>
    </contour>
    <contour>
      <point x="216" y="-208" type="line" smooth="yes"/>
      <point x="192" y="-208"/>
      <point x="184" y="-200"/>
      <point x="184" y="-176" type="curve" smooth="yes"/>
      <point x="184" y="-8" type="line"/>
      <point x="192" y="0" type="line"/>
      <point x="264" y="0" type="line" smooth="yes"/>
      <point x="312" y="0"/>
      <point x="328" y="-16"/>
      <point x="328" y="-64" type="curve" smooth="yes"/>
      <point x="328" y="-144" type="line" smooth="yes"/>
      <point x="328" y="-192"/>
      <point x="312" y="-208"/>
      <point x="264" y="-208" type="curve" smooth="yes"/>
    </contour>
    <contour>
      <point x="192" y="80" type="line"/>
      <point x="184" y="88" type="line"/>
      <point x="184" y="272" type="line" smooth="yes"/>
      <point x="184" y="296"/>
      <point x="192" y="304"/>
      <point x="216" y="304" type="curve" smooth="yes"/>
      <point x="232" y="304" type="line" smooth="yes"/>
      <point x="280" y="304"/>
      <point x="296" y="288"/>
      <point x="296" y="240" type="curve" smooth="yes"/>
      <point x="296" y="144" type="line" smooth="yes"/>
      <point x="296" y="96"/>
      <point x="280" y="80"/>
      <point x="232" y="80" type="curve" smooth="yes"/>
    </contour>
  </outline>
</glyph>
<glyph name="hungarumlautcomb.case" format="2">
  <anchor x="250" y="704" name="_top"/>
  <anchor x="290" y="884" name="top"/>
  <outline>
    <contour>
      <point x="311" y="754" type="curve" smooth="yes"/>
      <point x="326" y="754" type="line" smooth="yes"/>
      <point x="339" y="754"/>
      <point x="348" y="759"/>
      <point x="356" y="768" type="curve" smooth="yes"/>
      <point x="427" y="852" type="line" smooth="yes"/>
      <point x="431" y="856"/>
      <point x="433" y="860"/>
      <point x="433" y="865" type="curve" smooth="yes"/>
      <point x="433" y="877"/>
      <point x="425" y="884"/>
      <point x="413" y="884" type="curve" smooth="yes"/>
      <point x="373" y="884" type="line" smooth="yes"/>
      <point x="352" y="884"/>
      <point x="342" y="878"/>
      <point x="336" y="865" type="curve" smooth="yes"/>
      <point x="300" y="785" type="line" smooth="yes"/>
      <point x="298" y="781"/>
      <point x="295" y="775"/>
      <point x="295" y="770" type="curve" smooth="yes"/>
      <point x="295" y="760"/>
      <point x="301" y="754"/>
    </contour>
    <contour>
      <point x="163" y="754" type="curve" smooth="yes"/>
      <point x="178" y="754" type="line" smooth="yes"/>
      <point x="191" y="754"/>
      <point x="200" y="759"/>
      <point x="208" y="768" type="curve" smooth="yes"/>
      <point x="279" y="852" type="line" smooth="yes"/>
      <point x="283" y="856"/>
      <point x="285" y="860"/>
      <point x="285" y="865" type="curve" smooth="yes"/>
      <point x="285" y="877"/>
      <point x="277" y="884"/>
      <point x="265" y="884" type="curve" smooth="yes"/>
      <point x="225" y="884" type="line" smooth="yes"/>
      <point x="204" y="884"/>
      <point x="194" y="878"/>
      <point x="188" y="865" type="curve" smooth="yes"/>
      <point x="152" y="785" type="line" smooth="yes"/>
      <point x="150" y="781"/>
      <point x="147" y="775"/>
      <point x="147" y="770" type="curve" smooth="yes"/>
      <point x="147" y="760"/>
      <point x="153" y="754"/>
    </contour>
  </outline>
</glyph>
<glyph name="kaf-ar.fina" format="2">
  <advance width="512"/>
  <outline>
    <contour>
      <point x="160" y="0" type="curve" smooth="yes"/>
      <point x="472" y="0" type="line"/>
      <point x="480" y="8" type="line"/>
      <point x="480" y="72" type="line"/>
      <point x="472" y="80" type="line"/>
      <point x="456" y="80" type="line"/>
      <point x="448" y="88" type="line"/>
      <point x="448" y="696" type="line"/>
      <point x="440" y="704" type="line"/>
      <point x="384" y="704" type="line"/>
      <point x="376" y="696" type="line"/>
      <point x="376" y="88" type="line"/>
      <point x="368" y="80" type="line"/>
      <point x="168" y="80" type="line" smooth="yes"/>
      <point x="120" y="80"/>
      <point x="104" y="96"/>
      <point x="104" y="144" type="curve" smooth="yes"/>
      <point x="104" y="248" type="line"/>
      <point x="96" y="256" type="line"/>
      <point x="40" y="256" type="line"/>
      <point x="32" y="248" type="line"/>
      <point x="32" y="128" type="line" smooth="yes"/>
      <point x="32" y="32"/>
      <point x="64" y="0"/>
    </contour>
    <contour>
      <point x="184" y="152" type="line"/>
      <point x="296" y="152" type="line"/>
      <point x="304" y="160" type="line"/>
      <point x="304" y="200" type="line"/>
      <point x="296" y="208" type="line"/>
      <point x="258" y="208" type="line"/>
      <point x="250" y="216" type="line"/>
      <point x="250" y="232" type="line" smooth="yes"/>
      <point x="250" y="248"/>
      <point x="258" y="256"/>
      <point x="274" y="256" type="curve" smooth="yes"/>
      <point x="290" y="256" type="line"/>
      <point x="298" y="264" type="line"/>
      <point x="298" y="304" type="line"/>
      <point x="290" y="312" type="line"/>
      <point x="270" y="312" type="line" smooth="yes"/>
      <point x="222" y="312"/>
      <point x="206" y="296"/>
      <point x="206" y="248" type="curve" smooth="yes"/>
      <point x="206" y="216" type="line"/>
      <point x="198" y="208" type="line"/>
      <point x="184" y="208" type="line"/>
      <point x="176" y="200" type="line"/>
      <point x="176" y="160" type="line"/>
    </contour>
  </outline>
</glyph>
<glyph name="keheh-ar.fina" format="2">
  <advance width="512"/>
  <outline>
    <contour>
      <point x="40" y="0" type="line"/>
      <point x="472" y="0" type="line"/>
      <point x="480" y="8" type="line"/>
      <point x="480" y="72" type="line"/>
      <point x="472" y="80" type="line"/>
      <point x="440" y="80" type="line"/>
      <point x="432" y="88" type="line"/>
      <point x="432" y="216" type="line" smooth="yes"/>
      <point x="432" y="264"/>
      <point x="408" y="288"/>
      <point x="360" y="288" type="curve" smooth="yes"/>
      <point x="160" y="288" type="line" smooth="yes"/>
      <point x="144" y="288"/>
      <point x="136" y="296"/>
      <point x="136" y="312" type="curve" smooth="yes"/>
      <point x="136" y="409" type="line" smooth="yes"/>
      <point x="136" y="424"/>
      <point x="144" y="432"/>
      <point x="160" y="432" type="curve" smooth="yes"/>
      <point x="282" y="432" type="line"/>
      <point x="290" y="440" type="line"/>
      <point x="290" y="504" type="line"/>
      <point x="282" y="512" type="line"/>
      <point x="136" y="512" type="line" smooth="yes"/>
      <point x="88" y="512"/>
      <point x="64" y="488"/>
      <point x="64" y="440" type="curve" smooth="yes"/>
      <point x="64" y="280" type="line" smooth="yes"/>
      <point x="64" y="232"/>
      <point x="89" y="208"/>
      <point x="136" y="208" type="curve" smooth="yes"/>
      <point x="336" y="208" type="line" smooth="yes"/>
      <point x="352" y="208"/>
      <point x="360" y="200"/>
      <point x="360" y="184" type="curve" smooth="yes"/>
      <point x="360" y="88" type="line"/>
      <point x="352" y="80" type="line"/>
      <point x="40" y="80" type="line"/>
      <point x="32" y="72" type="line"/>
      <point x="32" y="8" type="line"/>
    </contour>
  </outline>
</glyph>
<glyph name="lam-ar.init" format="2">
  <advance width="512"/>
  <outline>
    <contour>
      <point x="344" y="0" type="line" smooth="yes"/>
      <point x="408" y="0"/>
      <point x="440" y="32"/>
      <point x="440" y="96" type="curve" smooth="yes"/>
      <point x="440" y="696" type="line"/>
      <point x="432" y="704" type="line"/>
      <point x="376" y="704" type="line"/>
      <point x="368" y="696" type="line"/>
      <point x="368" y="144" type="line" smooth="yes"/>
      <point x="368" y="96"/>
      <point x="352" y="80"/>
      <point x="304" y="80" type="curve" smooth="yes"/>
      <point x="40" y="80" type="line"/>
      <point x="32" y="72" type="line"/>
      <point x="32" y="8" type="line"/>
      <point x="40" y="0" type="line"/>
    </contour>
  </outline>
</glyph>
<glyph name="lam-ar.medi" format="2">
  <advance width="512"/>
  <anchor x="256" y="704" name="top"/>
  <outline>
    <contour>
      <point x="40" y="0" type="line"/>
      <point x="472" y="0" type="line"/>
      <point x="480" y="8" type="line"/>
      <point x="480" y="71" type="line"/>
      <point x="472" y="80" type="line"/>
      <point x="300" y="80" type="line"/>
      <point x="292" y="88" type="line"/>
      <point x="292" y="696" type="line"/>
      <point x="284" y="704" type="line"/>
      <point x="228" y="704" type="line"/>
      <point x="220" y="696" type="line"/>
      <point x="220" y="88" type="line"/>
      <point x="212" y="80" type="line"/>
      <point x="40" y="80" type="line"/>
      <point x="32" y="72" type="line"/>
      <point x="32" y="8" type="line"/>
    </contour>
  </outline>
</glyph>
<glyph name="macroncomb.case" format="2">
  <anchor x="256" y="704" name="_top"/>
  <anchor x="256" y="842" name="top"/>
  <outline>
    <contour>
      <point x="142" y="768" type="line"/>
      <point x="369" y="768" type="line"/>
      <point x="377" y="776" type="line"/>
      <point x="377" y="834" type="line"/>
      <point x="369" y="842" type="line"/>
      <point x="142" y="842" type="line"/>
      <point x="134" y="834" type="line"/>
      <point x="134" y="776" type="line"/>
    </contour>
  </outline>
</glyph>
<glyph name="meem-ar.init" format="2">
  <advance width="512"/>
  <outline>
    <contour>
      <point x="256" y="-80" type="curve" smooth="yes"/>
      <point x="349" y="-80"/>
      <point x="424" y="-5"/>
      <point x="424" y="88" type="curve" smooth="yes"/>
      <point x="424" y="181"/>
      <point x="349" y="256"/>
      <point x="256" y="256" type="curve" smooth="yes"/>
      <point x="163" y="256"/>
      <point x="88" y="181"/>
      <point x="88" y="88" type="curve"/>
      <point x="80" y="80" type="line"/>
      <point x="32" y="80" type="line"/>
      <point x="24" y="72" type="line"/>
      <point x="24" y="8" type="line"/>
      <point x="32" y="0" type="line"/>
      <point x="113" y="0" type="line"/>
      <point x="142" y="-48"/>
      <point x="195" y="-80"/>
    </contour>
    <contour>
      <point x="164" y="88" type="curve" smooth="yes"/>
      <point x="164" y="135"/>
      <point x="202" y="176"/>
      <point x="256" y="176" type="curve" smooth="yes"/>
      <point x="311" y="176"/>
      <point x="348" y="135"/>
      <point x="348" y="88" type="curve" smooth="yes"/>
      <point x="348" y="42"/>
      <point x="311" y="0"/>
      <point x="256" y="0" type="curve" smooth="yes"/>
      <point x="202" y="0"/>
      <point x="164" y="42"/>
    </contour>
  </outline>
</glyph>
<glyph name="noonghunna-ar.fina" format="2">
  <advance width="512"/>
  <anchor x="256" y="208" name="top"/>
  <outline>
    <contour>
      <point x="248" y="-208" type="curve" smooth="yes"/>
      <point x="304" y="-208" type="line" smooth="yes"/>
      <point x="400" y="-208"/>
      <point x="432" y="-176"/>
      <point x="432" y="-80" type="curve" smooth="yes"/>
      <point x="432" y="-8" type="line"/>
      <point x="440" y="0" type="line"/>
      <point x="472" y="0" type="line"/>
      <point x="480" y="8" type="line"/>
      <point x="480" y="72" type="line"/>
      <point x="472" y="80" type="line"/>
      <point x="440" y="80" type="line"/>
      <point x="432" y="88" type="line"/>
      <point x="432" y="200" type="line"/>
      <point x="424" y="208" type="line"/>
      <point x="368" y="208" type="line"/>
      <point x="360" y="200" type="line"/>
      <point x="360" y="-64" type="line" smooth="yes"/>
      <point x="360" y="-112"/>
      <point x="344" y="-128"/>
      <point x="296" y="-128" type="curve" smooth="yes"/>
      <point x="248" y="-128" type="line" smooth="yes"/>
      <point x="176" y="-128"/>
      <point x="152" y="-104"/>
      <point x="152" y="-32" type="curve" smooth="yes"/>
      <point x="152" y="72" type="line"/>
      <point x="144" y="80" type="line"/>
      <point x="88" y="80" type="line"/>
      <point x="80" y="72" type="line"/>
      <point x="80" y="-40" type="line" smooth="yes"/>
      <point x="80" y="-168"/>
      <point x="120" y="-208"/>
    </contour>
  </outline>
</glyph>
<glyph name="qafDotless-ar.fina" format="2">
  <advance width="512"/>
  <anchor x="320" y="272" name="top"/>
  <outline>
    <contour>
      <point x="160" y="-208" type="curve" smooth="yes"/>
      <point x="376" y="-208" type="line" smooth="yes"/>
      <point x="424" y="-208"/>
      <point x="448" y="-184"/>
      <point x="448" y="-136" type="curve" smooth="yes"/>
      <point x="448" y="-8" type="line"/>
      <point x="456" y="0" type="line"/>
      <point x="472" y="0" type="line"/>
      <point x="480" y="8" type="line"/>
      <point x="480" y="72" type="line"/>
      <point x="472" y="80" type="line"/>
      <point x="456" y="80" type="line"/>
      <point x="448" y="88" type="line"/>
      <point x="448" y="200" type="line" smooth="yes"/>
      <point x="448" y="248"/>
      <point x="424" y="272"/>
      <point x="376" y="272" type="curve" smooth="yes"/>
      <point x="264" y="272" type="line" smooth="yes"/>
      <point x="216" y="272"/>
      <point x="192" y="248"/>
      <point x="192" y="200" type="curve" smooth="yes"/>
      <point x="192" y="72" type="line" smooth="yes"/>
      <point x="192" y="24"/>
      <point x="216" y="0"/>
      <point x="264" y="0" type="curve" smooth="yes"/>
      <point x="368" y="0" type="line"/>
      <point x="376" y="-8" type="line"/>
      <point x="376" y="-104" type="line" smooth="yes"/>
      <point x="376" y="-120"/>
      <point x="368" y="-128"/>
      <point x="352" y="-128" type="curve" smooth="yes"/>
      <point x="168" y="-128" type="line" smooth="yes"/>
      <point x="120" y="-128"/>
      <point x="104" y="-112"/>
      <point x="104" y="-64" type="curve" smooth="yes"/>
      <point x="104" y="-8" type="line"/>
      <point x="96" y="0" type="line"/>
      <point x="40" y="0" type="line"/>
      <point x="32" y="-8" type="line"/>
      <point x="32" y="-80" type="line" smooth="yes"/>
      <point x="32" y="-176"/>
      <point x="64" y="-208"/>
    </contour>
    <contour>
      <point x="264" y="104" type="curve" smooth="yes"/>
      <point x="264" y="168" type="line" smooth="yes"/>
      <point x="264" y="184"/>
      <point x="272" y="192"/>
      <point x="288" y="192" type="curve" smooth="yes"/>
      <point x="352" y="192" type="line" smooth="yes"/>
      <point x="368" y="192"/>
      <point x="376" y="184"/>
      <point x="376" y="168" type="curve" smooth="yes"/>
      <point x="376" y="88" type="line"/>
      <point x="368" y="80" type="line"/>
      <point x="288" y="80" type="line" smooth="yes"/>
      <point x="272" y="80"/>
      <point x="264" y="88"/>
    </contour>
  </outline>
</glyph>
<glyph name="reh-ar.fina" format="2">
  <advance width="512"/>
  <anchor x="172" y="192" name="top"/>
  <outline>
    <contour>
      <point x="-24" y="-352" type="line"/>
      <point x="80" y="-352" type="line" smooth="yes"/>
      <point x="176" y="-352"/>
      <point x="208" y="-320"/>
      <point x="208" y="-224" type="curve" smooth="yes"/>
      <point x="208" y="-8" type="line"/>
      <point x="216" y="0" type="line"/>
      <point x="472" y="0" type="line"/>
      <point x="480" y="8" type="line"/>
      <point x="480" y="71" type="line"/>
      <point x="472" y="80" type="line"/>
      <point x="216" y="80" type="line"/>
      <point x="208" y="88" type="line"/>
      <point x="208" y="184" type="line"/>
      <point x="200" y="192" type="line"/>
      <point x="144" y="192" type="line"/>
      <point x="136" y="184" type="line"/>
      <point x="136" y="-208" type="line" smooth="yes"/>
      <point x="136" y="-256"/>
      <point x="120" y="-272"/>
      <point x="72" y="-272" type="curve" smooth="yes"/>
      <point x="-24" y="-272" type="line"/>
      <point x="-32" y="-280" type="line"/>
      <point x="-32" y="-344" type="line"/>
    </contour>
  </outline>
</glyph>
<glyph name="ringcomb.case" format="2">
  <anchor x="256" y="704" name="_top"/>
  <anchor x="256" y="931" name="top"/>
  <outline>
    <contour>
      <point x="256" y="752" type="curve" smooth="yes"/>
      <point x="300" y="752"/>
      <point x="336" y="783"/>
      <point x="336" y="827" type="curve" smooth="yes"/>
      <point x="336" y="871"/>
      <point x="300" y="902"/>
      <point x="256" y="902" type="curve" smooth="yes"/>
      <point x="212" y="902"/>
      <point x="176" y="871"/>
      <point x="176" y="827" type="curve" smooth="yes"/>
      <point x="176" y="783"/>
      <point x="212" y="752"/>
    </contour>
    <contour>
      <point x="256" y="797" type="curve" smooth="yes"/>
      <point x="239" y="797"/>
      <point x="226" y="810"/>
      <point x="226" y="827" type="curve" smooth="yes"/>
      <point x="226" y="844"/>
      <point x="239" y="857"/>
      <point x="256" y="857" type="curve" smooth="yes"/>
      <point x="273" y="857"/>
      <point x="286" y="844"/>
      <point x="286" y="827" type="curve" smooth="yes"/>
      <point x="286" y="810"/>
      <point x="273" y="797"/>
    </contour>
  </outline>
</glyph>
<glyph name="seen-ar.init" format="2">
  <advance width="512"/>
  <anchor x="276" y="0" name="bottom"/>
  <anchor x="284" y="336" name="top"/>
  <outline>
    <contour>
      <point x="40" y="0" type="line"/>
      <point x="352" y="0" type="line" smooth="yes"/>
      <point x="448" y="0"/>
      <point x="480" y="32"/>
      <point x="480" y="128" type="curve" smooth="yes"/>
      <point x="480" y="328" type="line"/>
      <point x="472" y="336" type="line"/>
      <point x="416" y="336" type="line"/>
      <point x="408" y="328" type="line"/>
      <point x="408" y="144" type="line" smooth="yes"/>
      <point x="408" y="96"/>
      <point x="392" y="80"/>
      <point x="344" y="80" type="curve" smooth="yes"/>
      <point x="328" y="80" type="line"/>
      <point x="320" y="88" type="line"/>
      <point x="320" y="328" type="line"/>
      <point x="312" y="336" type="line"/>
      <point x="256" y="336" type="line"/>
      <point x="248" y="328" type="line"/>
      <point x="248" y="88" type="line"/>
      <point x="240" y="80" type="line"/>
      <point x="168" y="80" type="line"/>
      <point x="160" y="88" type="line"/>
      <point x="160" y="328" type="line"/>
      <point x="152" y="336" type="line"/>
      <point x="96" y="336" type="line"/>
      <point x="88" y="328" type="line"/>
      <point x="88" y="88" type="line"/>
      <point x="80" y="80" type="line"/>
      <point x="40" y="80" type="line"/>
      <point x="32" y="72" type="line"/>
      <point x="32" y="8" type="line"/>
    </contour>
  </outline>
</glyph>
<glyph name="seen-ar.medi" format="2">
  <advance width="512"/>
  <anchor x="261" y="0" name="bottom"/>
  <anchor x="256" y="336" name="top"/>
  <outline>
    <contour>
      <point x="40" y="0" type="line"/>
      <point x="472" y="0" type="line"/>
      <point x="480" y="8" type="line"/>
      <point x="480" y="72" type="line"/>
      <point x="472" y="80" type="line"/>
      <point x="460" y="80" type="line"/>
      <point x="452" y="88" type="line"/>
      <point x="452" y="328" type="line"/>
      <point x="444" y="336" type="line"/>
      <point x="388" y="336" type="line"/>
      <point x="380" y="328" type="line"/>
      <point x="380" y="88" type="line"/>
      <point x="372" y="80" type="line"/>
      <point x="300" y="80" type="line"/>
      <point x="292" y="88" type="line"/>
      <point x="292" y="328" type="line"/>
      <point x="284" y="336" type="line"/>
      <point x="228" y="336" type="line"/>
      <point x="220" y="328" type="line"/>
      <point x="220" y="88" type="line"/>
      <point x="212" y="80" type="line"/>
      <point x="140" y="80" type="line"/>
      <point x="132" y="88" type="line"/>
      <point x="132" y="328" type="line"/>
      <point x="124" y="336" type="line"/>
      <point x="68" y="336" type="line"/>
      <point x="60" y="328" type="line"/>
      <point x="60" y="88" type="line"/>
      <point x="52" y="80" type="line"/>
      <point x="40" y="80" type="line"/>
      <point x="32" y="72" type="line"/>
      <point x="32" y="8" type="line"/>
    </contour>
  </outline>
</glyph>
<glyph name="threedotsupabove-ar" format="2">
  <anchor x="256" y="512" name="_top"/>
  <outline>
    <contour>
      <point x="176" y="608" type="curve" smooth="yes"/>
      <point x="207" y="608"/>
      <point x="232" y="633"/>
      <point x="232" y="664" type="curve" smooth="yes"/>
      <point x="232" y="695"/>
      <point x="207" y="720"/>
      <point x="176" y="720" type="curve" smooth="yes"/>
      <point x="145" y="720"/>
      <point x="120" y="695"/>
      <point x="120" y="664" type="curve" smooth="yes"/>
      <point x="120" y="633"/>
      <point x="145" y="608"/>
    </contour>
    <contour>
      <point x="336" y="608" type="curve" smooth="yes"/>
      <point x="367" y="608"/>
      <point x="392" y="633"/>
      <point x="392" y="664" type="curve" smooth="yes"/>
      <point x="392" y="695"/>
      <point x="367" y="720"/>
      <point x="336" y="720" type="curve" smooth="yes"/>
      <point x="305" y="720"/>
      <point x="280" y="695"/>
      <point x="280" y="664" type="curve" smooth="yes"/>
      <point x="280" y="633"/>
      <point x="305" y="608"/>
    </contour>
    <contour>
      <point x="256" y="738" type="curve" smooth="yes"/>
      <point x="287" y="738"/>
      <point x="312" y="763"/>
      <point x="312" y="794" type="curve" smooth="yes"/>
      <point x="312" y="825"/>
      <point x="287" y="850"/>
      <point x="256" y="850" type="curve" smooth="yes"/>
      <point x="225" y="850"/>
      <point x="200" y="825"/>
      <point x="200" y="794" type="curve" smooth="yes"/>
      <point x="200" y="763"/>
      <point x="225" y="738"/>
    </contour>
  </outline>
</glyph>
<glyph name="tildecomb.case" format="2">
  <anchor x="256" y="704" name="_top"/>
  <anchor x="256" y="890" name="top"/>
  <outline>
    <contour>
      <point x="312" y="760" type="curve" smooth="yes"/>
      <point x="376" y="760"/>
      <point x="410" y="811"/>
      <point x="410" y="856" type="curve" smooth="yes"/>
      <point x="410" y="872" type="line"/>
      <point x="402" y="880" type="line"/>
      <point x="362" y="880" type="line"/>
      <point x="354" y="872" type="line"/>
      <point x="354" y="864" type="line" smooth="yes"/>
      <point x="354" y="843"/>
      <point x="347" y="824"/>
      <point x="312" y="824" type="curve" smooth="yes"/>
      <point x="272" y="824"/>
      <point x="256" y="888"/>
      <point x="200" y="888" type="curve" smooth="yes"/>
      <point x="136" y="888"/>
      <point x="104" y="847"/>
      <point x="104" y="792" type="curve" smooth="yes"/>
      <point x="104" y="776" type="line"/>
      <point x="112" y="768" type="line"/>
      <point x="152" y="768" type="line"/>
      <point x="160" y="776" type="line"/>
      <point x="160" y="784" type="line" smooth="yes"/>
      <point x="160" y="801"/>
      <point x="164" y="824"/>
      <point x="200" y="824" type="curve" smooth="yes"/>
      <point x="240" y="824"/>
      <point x="256" y="760"/>
    </contour>
  </outline>
</glyph>
<glyph name="twodotshorizontalabove-ar" format="2">
  <anchor x="256" y="512" name="_top"/>
  <outline>
    <contour>
      <point x="176" y="608" type="curve" smooth="yes"/>
      <point x="207" y="608"/>
      <point x="232" y="633"/>
      <point x="232" y="664" type="curve" smooth="yes"/>
      <point x="232" y="695"/>
      <point x="207" y="720"/>
      <point x="176" y="720" type="curve" smooth="yes"/>
      <point x="145" y="720"/>
      <point x="120" y="695"/>
      <point x="120" y="664" type="curve" smooth="yes"/>
      <point x="120" y="633"/>
      <point x="145" y="608"/>
    </contour>
    <contour>
      <point x="336" y="608" type="curve" smooth="yes"/>
      <point x="367" y="608"/>
      <point x="392" y="633"/>
      <point x="392" y="664" type="curve" smooth="yes"/>
      <point x="392" y="695"/>
      <point x="367" y="720"/>
      <point x="336" y="720" type="curve" smooth="yes"/>
      <point x="305" y="720"/>
      <point x="280" y="695"/>
      <point x="280" y="664" type="curve" smooth="yes"/>
      <point x="280" y="633"/>
      <point x="305" y="608"/>
    </contour>
  </outline>
</glyph>
